<?xml version="1.0" encoding="iso-8859-1"?>
<!-- Generator: Adobe Illustrator 19.0.0, SVG Export Plug-In . SVG Version: 6.00 Build 0)  -->
<svg version="1.1" id="Layer_1" xmlns="http://www.w3.org/2000/svg" xmlns:xlink="http://www.w3.org/1999/xlink" x="0px" y="0px"
	 viewBox="0 0 512.002 512.002" style="enable-background:new 0 0 512.002 512.002;" xml:space="preserve">
<circle style="fill:#366695;" cx="256.001" cy="256" r="256"/>
<path style="fill:#273B7A;" d="M327.4,131.915L215.777,388.741l112.805,112.806c88.91-26.241,157.663-99.444,177.552-190.895
	L327.4,131.915z"/>
<rect x="213.334" y="292.219" style="fill:#55D8B3;" width="85.333" height="85.333"/>
<rect x="254.846" y="292.219" style="fill:#34AD88;" width="43.815" height="85.333"/>
<path style="fill:#FFEDB5;" d="M349.38,198.011c0,61.886-41.806,127.569-93.379,127.569s-93.379-65.683-93.379-127.569
	s41.806-97.401,93.379-97.401S349.38,136.125,349.38,198.011z"/>
<path style="fill:#E8CF89;" d="M256.001,100.611c-0.386,0-0.765,0.021-1.15,0.024v224.899c0.384,0.007,0.764,0.047,1.15,0.047
	c51.571,0,93.379-65.684,93.379-127.569C349.38,136.125,307.573,100.611,256.001,100.611z"/>
<path style="fill:#55D8B3;" d="M174.691,237.816c0-48.964,36.404-77.062,81.311-77.062s81.311,28.1,81.311,77.062
	c0,9.023-1.245,18.146-3.543,27.029c9.856-20.444,15.61-43.898,15.61-66.836c0-61.887-41.806-97.401-93.379-97.401
	s-93.379,35.514-93.379,97.401c0,22.938,5.754,46.392,15.61,66.836C175.936,255.964,174.691,246.839,174.691,237.816z"/>
<path style="fill:#34AD88;" d="M349.38,198.011c0-61.887-41.806-97.401-93.379-97.401c-0.386,0-0.765,0.021-1.15,0.024v60.142
	c0.384-0.003,0.764-0.022,1.15-0.022c44.906,0,81.311,28.1,81.311,77.062c0,9.023-1.245,18.146-3.543,27.029
	C343.625,244.402,349.38,220.95,349.38,198.011z"/>
<path style="fill:#FFFFFF;" d="M357.765,360.5l-45.22-9.044l-7.992-11.666c-1.496-2.184-4.327-3.007-6.759-1.965l-8.785,3.784
	c-21.064,9.075-44.94,9.054-65.988-0.06l-8.561-3.706c-2.415-1.053-5.239-0.262-6.754,1.893l-8.247,11.719l-45.22,9.044
	c-23.026,4.606-39.598,24.821-39.598,48.3v60.647C155.149,496.328,203.742,512,256.001,512s100.852-15.672,141.36-42.555v-60.647
	C397.361,385.319,380.789,365.104,357.765,360.5z"/>
<path style="fill:#CBD3D1;" d="M357.765,360.5l-45.22-9.044l-7.992-11.666c-1.496-2.184-4.327-3.007-6.759-1.965l-8.785,3.786
	c-10.893,4.692-22.538,6.932-34.156,6.761v163.609c0.384,0.002,0.764,0.021,1.148,0.021c52.258,0,100.852-15.672,141.36-42.555
	V408.8C397.361,385.319,380.789,365.104,357.765,360.5z"/>
<path style="fill:#FFFFFF;" d="M351.348,203.605c-1.565-1.083-3.712-0.696-4.799,0.864l-23.25,33.458
	c-44.887-2.293-89.772-2.319-134.659-0.093l-23.185-33.364c-1.086-1.56-3.231-1.946-4.799-0.864
	c-1.564,1.088-1.95,3.236-0.864,4.799l22.918,32.978c0.986,20.428,8.302,41.475,18.208,62.933c35.712,5.558,71.678,6.615,108.161,0
	c9.39-20.34,16.444-40.312,17.996-59.735l25.14-36.176C353.296,206.841,352.912,204.693,351.348,203.605z"/>
<path style="fill:#CBD3D1;" d="M351.348,203.605c-1.565-1.083-3.712-0.696-4.799,0.864l-23.25,33.458
	c-22.816-1.165-45.63-1.738-68.446-1.734v72.688c17.968,0.124,36.031-1.265,54.224-4.565c9.39-20.34,16.444-40.312,17.996-59.735
	l25.14-36.176C353.296,206.841,352.912,204.693,351.348,203.605z"/>
<g>
</g>
<g>
</g>
<g>
</g>
<g>
</g>
<g>
</g>
<g>
</g>
<g>
</g>
<g>
</g>
<g>
</g>
<g>
</g>
<g>
</g>
<g>
</g>
<g>
</g>
<g>
</g>
<g>
</g>
</svg>
