<?xml version="1.0" encoding="iso-8859-1"?>
<!-- Generator: Adobe Illustrator 19.0.0, SVG Export Plug-In . SVG Version: 6.00 Build 0)  -->
<svg version="1.1" id="Layer_1" xmlns="http://www.w3.org/2000/svg" xmlns:xlink="http://www.w3.org/1999/xlink" x="0px" y="0px"
	 viewBox="0 0 512 512" style="enable-background:new 0 0 512 512;" xml:space="preserve">
<circle style="fill:#386895;" cx="256" cy="256" r="256"/>
<path style="fill:#273B7A;" d="M244.221,236.175c0,0,13.886,193.343,21.059,275.64c117.701-4.196,215.161-87.835,240.369-198.932
	L362.02,169.255L244.221,236.175z"/>
<path style="fill:#707070;" d="M377.966,252.75H134.034c-16.582,0-30.025,13.443-30.025,30.025v160.792
	c42.508,31.416,95.077,50,151.992,50s109.484-18.584,151.992-50V282.776C407.992,266.193,394.549,252.75,377.966,252.75z"/>
<path style="fill:#4C4C4C;" d="M377.966,252.75h-122.54v240.811c0.191,0,0.383,0.005,0.574,0.005
	c56.915,0,109.484-18.584,151.992-50v-160.79C407.992,266.193,394.549,252.75,377.966,252.75z"/>
<path style="fill:#EFEFEF;" d="M370.691,328.806l-50.964-9.044l-9.007-11.666c-1.686-2.184-4.875-3.007-7.618-1.965l-47.101-1.664
	l-46.82,1.681c-2.722-1.053-5.904-0.262-7.613,1.893l-9.295,11.719l-50.964,9.044c-25.948,4.605-44.627,24.819-44.627,48.3v79.272
	C140.404,491.187,195.768,512,255.998,512s115.595-20.813,159.318-55.622v-79.272C415.316,353.626,396.64,333.41,370.691,328.806z"
	/>
<path style="fill:#BCBCBC;" d="M370.69,328.806l-50.964-9.044l-9.007-11.666c-1.686-2.184-4.875-3.007-7.618-1.965L256,304.468
	l-0.574,0.021v207.505c0.191,0,0.381,0.007,0.574,0.007c60.232,0,115.595-20.813,159.318-55.622v-79.272
	C415.316,353.626,396.64,333.41,370.69,328.806z"/>
<path style="fill:#C6C6C6;" d="M360.146,326.935l-40.42-7.173l-9.007-11.666c-1.686-2.184-4.875-3.007-7.618-1.965L256,304.468
	l-46.82,1.681c-2.722-1.053-5.904-0.262-7.613,1.893l-9.295,11.719l-40.42,7.173c15.077,16.008,36.454,26.017,60.18,26.017h87.935
	C323.693,352.951,345.069,342.942,360.146,326.935z"/>
<path style="fill:#7F7F7F;" d="M319.726,319.762l-9.007-11.666c-1.686-2.184-4.875-3.007-7.618-1.965L256,304.468l-0.574,0.021
	v48.462h44.542c23.726,0,45.101-10.009,60.18-26.017L319.726,319.762z"/>
<path style="fill:#EFEFEF;" d="M299.966,330.54h-87.935c-45.663,0-82.68-37.017-82.68-82.68v-17.37
	c0-55.898,45.315-101.212,101.212-101.214h50.869c55.898,0,101.214,45.315,101.214,101.212v17.368
	C382.647,293.523,345.631,330.54,299.966,330.54z"/>
<path style="fill:#D8D8D8;" d="M281.435,129.277h-26.009V330.54h44.542c45.663,0,82.68-37.017,82.68-82.68v-17.368
	C382.647,174.592,337.332,129.277,281.435,129.277z"/>
<path style="fill:#FFC61B;" d="M178.874,199.309c-10.342,0-19.389,7.018-21.906,17.049c-1.741,6.942-2.667,14.21-2.667,21.692l0,0
	c0,40.131,32.532,72.663,72.663,72.663h58.07c40.131,0,72.663-32.532,72.663-72.663l0,0c0-7.483-0.926-14.75-2.667-21.692
	c-2.515-10.031-11.562-17.051-21.906-17.051h-154.25V199.309z"/>
<path style="fill:#D48B07;" d="M355.031,216.361c-2.515-10.031-11.564-17.049-21.906-17.049h-77.7v111.406h29.61
	c40.131,0,72.663-32.532,72.663-72.663C357.698,230.571,356.773,223.303,355.031,216.361z"/>
<path style="fill:#BABABA;" d="M168.081,496.502C195.5,506.528,225.111,512,256,512s60.5-5.472,87.919-15.498v-43.403
	c0-9.838-7.975-17.813-17.813-17.813h-140.21c-9.838,0-17.815,7.975-17.815,17.813L168.081,496.502L168.081,496.502z"/>
<g>
	<path style="fill:#7F7F7F;" d="M326.104,435.286h-70.68v76.707c0.191,0,0.383,0.007,0.574,0.007c30.889,0,60.5-5.472,87.919-15.498
		v-43.403C343.919,443.261,335.943,435.286,326.104,435.286z"/>
	<path style="fill:#7F7F7F;" d="M362.02,327.268v161.801c7.378-3.363,14.565-7.071,21.549-11.095V332.598
		c-4.032-1.695-8.34-2.986-12.878-3.791L362.02,327.268z"/>
</g>
<path style="fill:#BABABA;" d="M128.431,332.597v145.377c6.984,4.022,14.171,7.732,21.549,11.095V327.266l-8.673,1.539
	C136.771,329.611,132.463,330.902,128.431,332.597z"/>
<g>
</g>
<g>
</g>
<g>
</g>
<g>
</g>
<g>
</g>
<g>
</g>
<g>
</g>
<g>
</g>
<g>
</g>
<g>
</g>
<g>
</g>
<g>
</g>
<g>
</g>
<g>
</g>
<g>
</g>
</svg>
