<?xml version="1.0" encoding="iso-8859-1"?>
<!-- Generator: Adobe Illustrator 19.0.0, SVG Export Plug-In . SVG Version: 6.00 Build 0)  -->
<svg version="1.1" id="Layer_1" xmlns="http://www.w3.org/2000/svg" xmlns:xlink="http://www.w3.org/1999/xlink" x="0px" y="0px"
	 viewBox="0 0 512 512" style="enable-background:new 0 0 512 512;" xml:space="preserve">
<circle style="fill:#FF7F4F;" cx="256" cy="256" r="256"/>
<path style="fill:#E03A00;" d="M348.37,101.788L216.854,356.202l136.583,136.583c90.36-37.224,154.729-124.65,158.38-227.55
	L348.37,101.788z"/>
<rect x="213.333" y="292.219" style="fill:#FCD088;" width="85.333" height="85.333"/>
<rect x="256.293" y="292.219" style="fill:#DDAB62;" width="42.379" height="85.333"/>
<path style="fill:#5380A5;" d="M357.764,360.5l-45.22-9.044l-7.992-11.666c-1.496-2.184-4.327-3.007-6.759-1.965l-0.217,0.093
	c-26.533,11.431-56.606,11.404-83.116-0.076l0,0c-2.415-1.053-5.239-0.262-6.754,1.893l-8.247,11.719l-45.22,9.044
	c-23.026,4.606-39.598,24.821-39.598,48.3v60.647C155.148,496.328,203.742,512,256,512s100.852-15.672,141.36-42.555v-60.647
	C397.36,385.319,380.788,365.104,357.764,360.5z"/>
<path style="fill:#386895;" d="M397.36,408.798c0-23.48-16.572-43.696-39.596-48.3l-45.22-9.044l-7.992-11.666
	c-1.496-2.184-4.327-3.007-6.759-1.965l-0.217,0.093c-13.179,5.677-27.231,8.521-41.288,8.547v165.529
	c52.15-0.057,100.638-15.717,141.072-42.549V408.798z"/>
<path style="fill:#366695;" d="M153.428,490.584C184.834,504.341,219.517,512,256,512s71.166-7.659,102.572-21.416V360.698
	c-0.272-0.059-0.534-0.143-0.809-0.198l-45.22-9.044l-7.992-11.666c-1.496-2.184-4.327-3.007-6.759-1.965l-0.217,0.093
	c-26.533,11.431-56.606,11.404-83.116-0.076c-2.415-1.053-5.239-0.262-6.754,1.893l-8.247,11.719l-45.22,9.044
	c-0.274,0.055-0.536,0.14-0.809,0.198v129.888H153.428z"/>
<path style="fill:#273B7A;" d="M358.572,360.698c-0.272-0.059-0.534-0.143-0.809-0.198l-45.22-9.044l-7.992-11.666
	c-1.496-2.184-4.327-3.007-6.759-1.965l-0.217,0.093c-13.179,5.677-27.231,8.521-41.288,8.547v165.531
	c36.376-0.04,70.961-7.69,102.285-21.413V360.698z"/>
<path style="fill:#FFEDB5;" d="M347.531,205.44c0.459-4.244,0.698-8.428,0.698-12.509c0-53.974-41.293-97.728-92.229-97.728
	s-92.229,43.753-92.229,97.728c0,4.08,0.24,8.264,0.698,12.509c-8.945,2.326-13.202,16.087-9.506,30.817
	c3.708,14.776,14.014,24.921,23.018,22.661c0.821-0.205,1.586-0.538,2.326-0.927c16.667,33.452,44.351,60.594,75.693,60.594
	s59.027-27.139,75.693-60.594c0.74,0.39,1.505,0.722,2.326,0.927c9.004,2.26,19.309-7.885,23.018-22.661
	C360.732,221.527,356.476,207.763,347.531,205.44z"/>
<path style="fill:#E8CF89;" d="M347.531,205.44c0.459-4.244,0.698-8.428,0.698-12.509c0-53.872-41.138-97.556-91.941-97.721v223.365
	c31.223-0.165,58.79-27.236,75.405-60.585c0.74,0.39,1.505,0.721,2.326,0.927c9.004,2.26,19.309-7.885,23.018-22.661
	C360.732,221.527,356.476,207.763,347.531,205.44z"/>
<g>
	<path style="fill:#FFC91B;" d="M295.364,414.599h35.34c4.601,0,8.332-3.731,8.332-8.332v-0.574c0-4.601-3.731-8.332-8.332-8.332
		h-35.34c-4.601,0-8.332,3.731-8.332,8.332v0.574C287.03,410.869,290.761,414.599,295.364,414.599z"/>
	<circle style="fill:#FFC91B;" cx="205.438" cy="414.168" r="5.603"/>
	<circle style="fill:#FFC91B;" cx="205.438" cy="457.266" r="5.603"/>
	<circle style="fill:#FFC91B;" cx="205.438" cy="435.717" r="5.603"/>
</g>
<path style="fill:#494948;" d="M163.138,179.976c0,0-0.041,24.502,3.189,39.586l8.051,0.21c0,0-0.565-20.09,17.811-39.183
	S163.138,179.976,163.138,179.976z"/>
<path style="fill:#333333;" d="M350.136,180.364c0,0-0.578,24.497-4.189,39.498l-8.054,0.007c0,0,1.072-20.071-16.815-39.624
	C303.192,160.69,350.136,180.364,350.136,180.364z"/>
<path style="fill:#5380A5;" d="M350.241,184.206c-62.266-11.878-126.216-11.878-188.481,0v-74.75c0-8.17,5.899-15.188,13.964-16.491
	c53.172-8.597,107.382-8.597,160.554,0c8.064,1.303,13.964,8.321,13.964,16.491L350.241,184.206L350.241,184.206z"/>
<path style="fill:#386895;" d="M350.241,109.456c0-8.17-5.899-15.188-13.964-16.491c-26.491-4.284-53.239-6.43-79.989-6.446v88.781
	c31.458,0.017,62.914,2.984,93.953,8.904L350.241,109.456L350.241,109.456z"/>
<path style="fill:#FFC61B;" d="M161.759,164.778v22.411c62.266-11.878,126.216-11.878,188.481,0v-22.411
	C287.975,152.9,224.025,152.9,161.759,164.778z"/>
<path style="fill:#FF7F4F;" d="M350.241,164.778c-31.039-5.922-62.495-8.887-93.953-8.906v22.411
	c31.458,0.017,62.914,2.984,93.953,8.906V164.778z"/>
<g>
</g>
<g>
</g>
<g>
</g>
<g>
</g>
<g>
</g>
<g>
</g>
<g>
</g>
<g>
</g>
<g>
</g>
<g>
</g>
<g>
</g>
<g>
</g>
<g>
</g>
<g>
</g>
<g>
</g>
</svg>
