<?xml version="1.0" encoding="iso-8859-1"?>
<!-- Generator: Adobe Illustrator 19.0.0, SVG Export Plug-In . SVG Version: 6.00 Build 0)  -->
<svg version="1.1" id="Layer_1" xmlns="http://www.w3.org/2000/svg" xmlns:xlink="http://www.w3.org/1999/xlink" x="0px" y="0px"
	 viewBox="0 0 512 512" style="enable-background:new 0 0 512 512;" xml:space="preserve">
<circle style="fill:#FFC91B;" cx="256" cy="256" r="256"/>
<path style="fill:#D48B07;" d="M182.92,404.645l105.338,105.338C414.415,494.121,512,386.458,512,256
	c0-14.238-1.181-28.196-3.417-41.801L345.528,51.143L182.92,404.645z"/>
<g>
	<path style="fill:#895707;" d="M177.85,125.414c0,0-78.869,109.468,26.721,239.192l113.347-9.051c0,0,46.114-66.37,46.545-132.741
		S177.85,125.414,177.85,125.414z"/>
	<path style="fill:#895707;" d="M177.85,125.414c0,0-78.869,109.468,26.721,239.192l51.717-4.13V144.332
		C215.085,131.596,177.85,125.414,177.85,125.414z"/>
</g>
<path style="fill:#664008;" d="M364.463,222.815c0.238-36.759-57.027-62.671-108.175-78.483v216.143l61.63-4.92
	C317.918,355.556,364.032,289.185,364.463,222.815z"/>
<rect x="213.333" y="292.219" style="fill:#FCD088;" width="85.333" height="85.333"/>
<rect x="256.293" y="292.219" style="fill:#DDAB62;" width="42.379" height="85.333"/>
<path style="fill:#E2E2E2;" d="M357.764,360.5l-45.22-9.044l-7.992-11.666c-1.496-2.184-4.327-3.007-6.759-1.965l-8.785,3.784
	c-21.064,9.075-44.941,9.054-65.988-0.06l-8.561-3.706c-2.415-1.053-5.239-0.262-6.754,1.893l-8.247,11.719l-45.22,9.044
	c-23.026,4.606-39.598,24.821-39.598,48.3v60.647C155.148,496.328,203.742,512,256,512s100.852-15.672,141.36-42.555v-60.647
	C397.36,385.319,380.788,365.104,357.764,360.5z"/>
<path style="fill:#C2C2C6;" d="M397.36,408.798c0-23.48-16.572-43.696-39.596-48.3l-45.22-9.044l-7.992-11.666
	c-1.496-2.184-4.327-3.007-6.759-1.965l-8.785,3.784c-10.445,4.499-21.58,6.756-32.72,6.784v163.6
	c52.15-0.057,100.638-15.717,141.072-42.549V408.798z"/>
<path style="fill:#FFEDB5;" d="M347.531,205.44c0.459-4.244,0.698-8.428,0.698-12.509c0-53.974-41.293-97.728-92.229-97.728
	s-92.229,43.753-92.229,97.728c0,4.08,0.24,8.264,0.698,12.509c-8.945,2.326-13.202,16.087-9.506,30.817
	c3.708,14.776,14.014,24.921,23.018,22.661c0.821-0.205,1.586-0.538,2.326-0.927c16.667,33.452,44.351,60.594,75.693,60.594
	s59.027-27.139,75.693-60.594c0.74,0.39,1.505,0.722,2.326,0.927c9.004,2.26,19.309-7.885,23.018-22.661
	C360.732,221.527,356.476,207.763,347.531,205.44z"/>
<path style="fill:#E8CF89;" d="M347.531,205.44c0.459-4.244,0.698-8.428,0.698-12.509c0-53.872-41.138-97.556-91.941-97.721v223.365
	c31.223-0.165,58.79-27.236,75.405-60.585c0.74,0.39,1.505,0.722,2.326,0.927c9.004,2.26,19.309-7.885,23.018-22.661
	C360.732,221.527,356.476,207.763,347.531,205.44z"/>
<g>
	<circle style="fill:#515151;" cx="209.661" cy="404.825" r="5.746"/>
	<circle style="fill:#515151;" cx="209.661" cy="426.908" r="5.746"/>
	<circle style="fill:#515151;" cx="209.661" cy="448.974" r="5.746"/>
	<circle style="fill:#515151;" cx="209.661" cy="471.057" r="5.746"/>
	<circle style="fill:#515151;" cx="302.321" cy="404.825" r="5.746"/>
	<circle style="fill:#515151;" cx="302.321" cy="426.908" r="5.746"/>
	<circle style="fill:#515151;" cx="302.321" cy="448.974" r="5.746"/>
	<circle style="fill:#515151;" cx="302.321" cy="471.057" r="5.746"/>
</g>
<path style="fill:#940030;" d="M267.012,392.13c0.253,0.755,0.71,1.412,1.331,1.91c4.451,3.579,22.8,20.12,19.547,47.338
	c-1.093,9.147-1.736,16.225-2.098,21.659c-0.288,4.322-6.106,5.436-8.004,1.543c-8.189-16.791-19.708-44.235-18.756-64.105
	C260.289,374.198,265.554,387.784,267.012,392.13z"/>
<g>
	<path style="fill:#E03A00;" d="M245.227,392.13c-0.253,0.755-0.71,1.412-1.331,1.91c-4.451,3.579-22.8,20.12-19.547,47.338
		c1.093,9.147,1.736,16.225,2.098,21.659c0.288,4.306,6.099,5.448,7.992,1.569c8.189-16.787,19.72-44.251,18.768-64.131
		C251.949,374.198,246.684,387.784,245.227,392.13z"/>
	<path style="fill:#E03A00;" d="M254.081,390.43c-21.171,0-40.939-12.069-58.764-35.878c-1.712-2.286-1.246-5.527,1.041-7.239
		s5.529-1.246,7.239,1.041c15.765,21.056,32.752,31.732,50.488,31.732c0.036,0,0.069,0,0.103,0
		c30.389-0.071,53.965-31.392,54.198-31.71c1.701-2.293,4.941-2.775,7.232-1.079c2.295,1.696,2.781,4.929,1.088,7.225
		c-1.079,1.462-26.824,35.785-62.435,35.906C254.209,390.43,254.143,390.43,254.081,390.43z"/>
</g>
<path style="fill:#940030;" d="M315.618,347.3c-2.291-1.696-5.53-1.214-7.232,1.079c-0.229,0.309-22.731,30.184-52.098,31.637
	v10.349c34.559-1.374,59.359-34.406,60.418-35.838C318.398,352.228,317.912,348.996,315.618,347.3z"/>
<circle style="fill:#FF5419;" cx="256" cy="386.724" r="16.951"/>
<path style="fill:#FF0F27;" d="M272.951,386.729c0-9.264-7.435-16.782-16.663-16.937v33.875
	C265.516,403.511,272.951,395.995,272.951,386.729z"/>
<path style="fill:#895707;" d="M206.295,144.808c0,0,24.997,36.202,77.576,42.667s53.41,44.92,47.823,70.515
	c-5.587,25.595,26.305,10.94,30.184-11.902S383.772,81.113,252.409,88.781c-110.761,6.465-87.94,116.658-87.94,116.658
	S173.971,159.03,206.295,144.808z"/>
<path style="fill:#664008;" d="M256.288,88.621v92.174c8.166,3.027,17.344,5.422,27.582,6.68
	c52.579,6.465,53.41,44.92,47.823,70.515c-5.587,25.595,26.305,10.94,30.184-11.902C365.716,223.475,383.386,83.975,256.288,88.621z
	"/>
<path style="fill:#E2E2E2;" d="M349.522,135.327h-176.7V61.702c0-8.847,7.171-16.019,16.017-16.019h144.665
	c8.847,0,16.019,7.171,16.019,16.019V135.327z"/>
<path style="fill:#C2C2C6;" d="M349.522,61.702c0-8.847-7.171-16.019-16.019-16.019h-77.217v89.643h93.234V61.702H349.522z"/>
<path style="fill:#C1C1C1;" d="M349.2,140.857H173.144c-3.906,0-7.075-3.167-7.075-7.075v-4.813c0-3.906,3.167-7.075,7.075-7.075
	h176.056c3.906,0,7.075,3.167,7.075,7.075v4.813C356.274,137.688,353.108,140.857,349.2,140.857z"/>
<path style="fill:#AAAAAA;" d="M349.2,121.894h-92.912v18.963H349.2c3.906,0,7.075-3.167,7.075-7.075v-4.813
	C356.274,125.061,353.108,121.894,349.2,121.894z"/>
<g>
</g>
<g>
</g>
<g>
</g>
<g>
</g>
<g>
</g>
<g>
</g>
<g>
</g>
<g>
</g>
<g>
</g>
<g>
</g>
<g>
</g>
<g>
</g>
<g>
</g>
<g>
</g>
<g>
</g>
</svg>
