<?xml version="1.0" encoding="iso-8859-1"?>
<!-- Generator: Adobe Illustrator 19.0.0, SVG Export Plug-In . SVG Version: 6.00 Build 0)  -->
<svg version="1.1" id="Layer_1" xmlns="http://www.w3.org/2000/svg" xmlns:xlink="http://www.w3.org/1999/xlink" x="0px" y="0px"
	 viewBox="0 0 512.002 512.002" style="enable-background:new 0 0 512.002 512.002;" xml:space="preserve">
<circle style="fill:#FF7F4F;" cx="256.001" cy="256" r="256"/>
<path style="fill:#FF5419;" d="M273.678,511.381c122.228-8.339,220.898-102.455,236.246-222.629L330.106,108.937L273.678,511.381z"
	/>
<path style="fill:#543E1E;" d="M179.144,135.614c0,0-6.896,131.448,98.694,261.172l41.374-31.03c0,0,46.114-66.37,46.545-132.741
	C366.188,166.645,179.144,135.614,179.144,135.614z"/>
<path style="fill:#443219;" d="M179.144,135.614c0,0-6.896,131.448,98.694,261.172l41.374-31.03c0,0,46.114-66.37,46.545-132.741
	C366.188,166.645,179.144,135.614,179.144,135.614z"/>
<rect x="213.334" y="292.219" style="fill:#FCD088;" width="85.333" height="85.333"/>
<rect x="254.57" y="292.219" style="fill:#DDAB62;" width="44.103" height="85.333"/>
<path style="fill:#D9EDEC;" d="M357.765,360.5l-45.22-9.044l-7.992-11.666c-1.496-2.184-4.327-3.007-6.759-1.965l-41.793,18.004
	l-41.543-17.987c-2.415-1.053-5.239-0.262-6.754,1.893l-8.247,11.719l-45.22,9.044c-23.024,4.606-39.596,24.821-39.596,48.3v60.647
	c40.508,26.883,89.1,42.555,141.36,42.555s100.852-15.672,141.36-42.555v-60.647C397.361,385.319,380.787,365.104,357.765,360.5z"/>
<path style="fill:#BECECD;" d="M357.765,360.5l-45.22-9.044l-7.992-11.666c-1.496-2.184-4.327-3.007-6.759-1.965l-41.793,18.004
	l-1.436-0.621v156.765c0.479,0.002,0.955,0.028,1.436,0.028c52.258,0,100.852-15.672,141.36-42.555V408.8
	C397.361,385.319,380.787,365.104,357.765,360.5z"/>
<path style="fill:#FFEDB5;" d="M347.532,205.44c0.459-4.244,0.698-8.428,0.698-12.509c0-53.974-41.293-97.728-92.229-97.728
	s-92.229,43.753-92.229,97.728c0,4.08,0.24,8.264,0.698,12.509c-8.945,2.326-13.202,16.087-9.506,30.817
	c3.708,14.776,14.014,24.921,23.018,22.661c0.821-0.205,1.586-0.538,2.326-0.927c16.667,33.452,44.351,60.594,75.693,60.594
	s59.027-27.139,75.693-60.594c0.74,0.39,1.505,0.722,2.326,0.927c9.004,2.26,19.309-7.885,23.018-22.661
	C360.733,221.527,356.477,207.763,347.532,205.44z"/>
<path style="fill:#E8CF89;" d="M347.532,205.44c0.459-4.244,0.698-8.428,0.698-12.509c0-53.974-41.293-97.728-92.229-97.728
	c-0.481,0-0.955,0.031-1.436,0.038v223.303c0.479,0.012,0.955,0.038,1.436,0.038c31.342,0,59.027-27.139,75.693-60.592
	c0.74,0.39,1.505,0.721,2.326,0.927c9.004,2.26,19.309-7.885,23.018-22.661C360.733,221.527,356.477,207.763,347.532,205.44z"/>
<path style="fill:#353535;" d="M267.911,511.697c30.484-1.398,59.564-8.135,86.354-19.287V359.8l-34.907-6.982L267.911,511.697z"/>
<g>
	<path style="fill:#494948;" d="M244.09,511.697c-30.484-1.398-59.564-8.135-86.354-19.287V359.8l34.907-6.982L244.09,511.697z"/>
	<path style="fill:#494948;" d="M290.246,355.924l-24.061,8.814c-0.398-1.245-1.551-2.151-2.929-2.151h-13.648
		c-1.37,0-2.52,0.9-2.924,2.136l-24.017-8.799c-4.16-1.524-8.566,1.555-8.566,5.985v30.396c0,4.429,4.406,7.509,8.566,5.985
		l24.017-8.799c0.403,1.236,1.552,2.136,2.924,2.136h13.648c1.377,0,2.529-0.907,2.929-2.151l24.061,8.814
		c4.16,1.524,8.566-1.555,8.566-5.985V361.91C298.812,357.479,294.406,354.401,290.246,355.924z"/>
	<path style="fill:#494948;" d="M249.609,362.586c-1.371,0-2.52,0.9-2.924,2.136l-24.017-8.799c-4.16-1.524-8.566,1.555-8.566,5.985
		v30.396c0,4.43,4.406,7.509,8.566,5.985l24.017-8.799c0.403,1.236,1.553,2.136,2.924,2.136h4.956v-29.041H249.609z"/>
</g>
<path style="fill:#353535;" d="M290.246,355.924l-24.061,8.814c-0.398-1.245-1.551-2.153-2.929-2.153h-8.692v29.041h8.692
	c1.377,0,2.529-0.907,2.929-2.151l24.061,8.814c4.16,1.524,8.566-1.555,8.566-5.985v-30.396
	C298.812,357.479,294.406,354.401,290.246,355.924z"/>
<g>
	<circle style="fill:#ADADAD;" cx="256.001" cy="410.29" r="4.31"/>
	<circle style="fill:#ADADAD;" cx="256.001" cy="433.131" r="4.31"/>
	<circle style="fill:#ADADAD;" cx="256.001" cy="455.973" r="4.31"/>
</g>
<path style="fill:#543E1E;" d="M208.252,156.02c0,0,24.997,36.202,77.576,42.667s48.74,44.361,43.153,69.956
	c-5.587,25.593,30.975,11.498,34.854-11.343c3.879-22.842,18.587-185.758-113.004-169.667
	c-135.042,16.512-78.15,152.278-78.15,152.278S175.929,170.243,208.252,156.02z"/>
<path style="fill:#443219;" d="M254.565,87.247v103.327c9.054,3.703,19.456,6.661,31.261,8.111
	c52.579,6.465,48.74,44.363,43.153,69.956c-5.587,25.593,30.975,11.498,34.854-11.343
	C367.675,234.677,382.115,74.697,254.565,87.247z"/>
<g>
</g>
<g>
</g>
<g>
</g>
<g>
</g>
<g>
</g>
<g>
</g>
<g>
</g>
<g>
</g>
<g>
</g>
<g>
</g>
<g>
</g>
<g>
</g>
<g>
</g>
<g>
</g>
<g>
</g>
</svg>
