<?xml version="1.0" encoding="iso-8859-1"?>
<!-- Generator: Adobe Illustrator 19.0.0, SVG Export Plug-In . SVG Version: 6.00 Build 0)  -->
<svg version="1.1" id="Layer_1" xmlns="http://www.w3.org/2000/svg" xmlns:xlink="http://www.w3.org/1999/xlink" x="0px" y="0px"
	 viewBox="0 0 512 512" style="enable-background:new 0 0 512 512;" xml:space="preserve">
<circle style="fill:#FFC61B;" cx="256" cy="256" r="256"/>
<path style="fill:#D48B07;" d="M422.931,208.305l-16.206-8.285l3.591-2.946L309.77,96.528v62.933l32.187,35.069l-43.708,43.708
	L92.831,217.805l112.926,112.926l-14.083,14.083l151.833,151.833c86.668-31.523,151.492-108.527,165.612-202.154L422.931,208.305z"
	/>
<g>
	<rect x="213.333" y="292.219" style="fill:#FCD088;" width="85.333" height="85.333"/>
	<rect x="213.333" y="292.219" style="fill:#FCD088;" width="41.231" height="85.333"/>
</g>
<rect x="254.569" y="292.219" style="fill:#DDAB62;" width="44.103" height="85.333"/>
<path style="fill:#3A3A3A;" d="M199.456,351.454l-45.22,9.044c-23.024,4.606-39.596,24.821-39.596,48.3v59.809
	c40.432,27.067,89.05,42.861,141.36,42.861s100.928-15.794,141.36-42.861v-59.809c0-23.48-16.572-43.696-39.596-48.3l-45.22-9.044
	l-7.992-11.666c-1.496-2.184-4.327-3.007-6.759-1.965l-9.209,3.967c-20.794,8.959-44.365,8.937-65.141-0.059l-8.985-3.891
	c-2.415-1.053-5.239-0.262-6.754,1.893L199.456,351.454z"/>
<path style="fill:#282828;" d="M357.764,360.5l-45.22-9.044l-7.992-11.666c-1.496-2.184-4.327-3.007-6.759-1.965l-9.209,3.967
	c-10.849,4.673-22.45,6.878-34.02,6.666v162.985c0.481,0.003,0.955,0.028,1.436,0.028c52.31,0,100.928-15.794,141.36-42.861V408.8
	C397.36,385.319,380.787,365.104,357.764,360.5z"/>
<path style="fill:#FFEDB5;" d="M344.629,226.568c0.445-4.11,0.676-8.161,0.676-12.112c0-52.264-39.984-94.632-89.305-94.632
	s-89.305,42.368-89.305,94.632c0,3.951,0.233,8.002,0.676,12.112c-8.663,2.251-12.784,15.577-9.204,29.839
	c3.591,14.307,13.569,24.131,22.288,21.942c0.795-0.2,1.536-0.521,2.251-0.898c16.137,32.392,42.946,58.673,73.294,58.673
	c30.348,0,57.156-26.279,73.294-58.673c0.715,0.378,1.458,0.698,2.251,0.898c8.718,2.188,18.697-7.635,22.288-21.942
	C357.414,242.145,353.292,228.817,344.629,226.568z"/>
<path style="fill:#E8CF89;" d="M344.629,226.568c0.445-4.11,0.676-8.161,0.676-12.112c0-52.264-39.984-94.632-89.305-94.632
	c-0.481,0-0.957,0.031-1.436,0.038v216.223c0.479,0.014,0.955,0.038,1.436,0.038c30.348,0,57.156-26.279,73.294-58.673
	c0.715,0.378,1.458,0.698,2.251,0.898c8.718,2.188,18.697-7.635,22.288-21.942C357.414,242.145,353.292,228.817,344.629,226.568z"/>
<path style="fill:#777777;" d="M371.415,360.108l-42.777-5.47L256,491.456l-72.816-136.763l-42.599,5.415
	c-26.112,4.632-44.908,24.971-44.908,48.593v46.864C139.555,490.863,195.305,512,256,512s116.445-21.137,160.323-56.432v-46.864
	C416.323,385.081,397.527,364.742,371.415,360.108z"/>
<path style="fill:#666666;" d="M371.415,360.108l-42.777-5.47L256,491.456l-1.436-2.696v23.224c0.479,0.002,0.957,0.016,1.436,0.016
	c60.695,0,116.445-21.137,160.323-56.432v-46.864C416.323,385.081,397.527,364.742,371.415,360.108z"/>
<path style="fill:#3A3A3A;" d="M167.403,226.568c13.333,6.544,14.21,32.266,14.21,32.266s15.441-53,9.599-72.195
	s9.737-20.513,9.737-20.513c19.554,6.435,38.228,8.59,54.477,8.613v-61.955C163.74,113.231,154.098,220.036,167.403,226.568z"/>
<path style="fill:#333333;" d="M256,112.773c-0.195,0-0.381,0.01-0.574,0.01v61.955c32.765,0.047,55.625-8.613,55.625-8.613
	s15.579,1.315,9.737,20.513c-5.842,19.197,9.599,72.195,9.599,72.195s0.876-25.721,14.21-32.266
	C357.931,220.022,348.227,112.773,256,112.773z"/>
<path style="fill:#383838;" d="M298.672,318.352c0,0-27.969,84.608-49.538,193.555c2.282,0.06,4.57,0.093,6.866,0.093
	c8.47,0,16.841-0.422,25.1-1.226l61.814-94.451l-19.106-31.604l37.064-17.239C360.872,367.48,331.493,321.724,298.672,318.352z"/>
<path style="fill:#4F4F4F;" d="M213.328,318.352c-32.821,3.372-62.199,49.128-62.199,49.128l37.064,17.239l-19.108,31.604
	l61.814,94.451c8.259,0.803,16.629,1.226,25.1,1.226c2.296,0,4.584-0.033,6.866-0.093
	C241.295,402.96,213.328,318.352,213.328,318.352z"/>
<path style="fill:#777777;" d="M163.771,186.301c0,0,18.075-131.624,92.229-95.473c74.154-36.15,92.229,95.473,92.229,95.473"/>
<path style="fill:#666666;" d="M256,90.827c-0.484-0.236-0.957-0.436-1.436-0.657v96.13h93.665
	C348.229,186.301,330.154,54.677,256,90.827z"/>
<path style="fill:#4F4F4F;" d="M256,163.483c-92.193,0-166.931,20.068-166.931,44.822c0,14.796,26.705,27.915,67.872,36.078
	c0.467-9.083,4.305-16.224,10.43-17.815c-0.445-4.11-0.676-8.161-0.676-12.112c0-2.303,0.105-4.577,0.257-6.839
	c19.478-12.422,52.088-20.573,89.048-20.573s69.57,8.149,89.048,20.573c0.152,2.262,0.257,4.536,0.257,6.839
	c0,3.951-0.233,8.002-0.676,12.112c6.125,1.593,9.964,8.732,10.43,17.815c41.167-8.163,67.872-21.282,67.872-36.078
	C422.931,183.551,348.193,163.483,256,163.483z"/>
<path style="fill:#383838;" d="M256,163.483c-0.481,0-0.957,0.003-1.436,0.005v23.574c0.481-0.003,0.953-0.019,1.436-0.019
	c36.961,0,69.57,8.149,89.048,20.573c0.152,2.262,0.257,4.536,0.257,6.839c0,3.951-0.233,8.002-0.676,12.112
	c6.125,1.593,9.964,8.732,10.43,17.815c41.167-8.163,67.872-21.282,67.872-36.078C422.931,183.551,348.193,163.483,256,163.483z"/>
<g>
</g>
<g>
</g>
<g>
</g>
<g>
</g>
<g>
</g>
<g>
</g>
<g>
</g>
<g>
</g>
<g>
</g>
<g>
</g>
<g>
</g>
<g>
</g>
<g>
</g>
<g>
</g>
<g>
</g>
</svg>
