<?xml version="1.0" encoding="iso-8859-1"?>
<!-- Generator: Adobe Illustrator 19.0.0, SVG Export Plug-In . SVG Version: 6.00 Build 0)  -->
<svg version="1.1" id="Layer_1" xmlns="http://www.w3.org/2000/svg" xmlns:xlink="http://www.w3.org/1999/xlink" x="0px" y="0px"
	 viewBox="0 0 512 512" style="enable-background:new 0 0 512 512;" xml:space="preserve">
<circle style="fill:#71E2EF;" cx="256" cy="256" r="256"/>
<path style="fill:#38C6D9;" d="M422.931,208.305l-8.042,0.262l1.333-5.68L312.889,99.552l-4.16,112.464l-213.518,8.375
	l269.593,267.383c75.871-35.678,131.379-107.498,144.315-193.281L422.931,208.305z"/>
<rect x="213.333" y="292.219" style="fill:#FCD088;" width="85.333" height="117.519"/>
<rect x="255.431" y="292.219" style="fill:#DDAB62;" width="43.236" height="117.519"/>
<path style="fill:#FFEDB5;" d="M344.629,226.568c0.445-4.11,0.676-8.161,0.676-12.112c0-52.264-39.984-94.632-89.305-94.632
	s-89.305,42.368-89.305,94.632c0,3.951,0.233,8.002,0.676,12.112c-8.663,2.251-12.784,15.577-9.204,29.839
	c3.591,14.307,13.569,24.131,22.288,21.942c0.795-0.2,1.536-0.521,2.251-0.898c16.137,32.392,42.946,58.673,73.294,58.673
	c30.348,0,57.156-26.279,73.294-58.673c0.715,0.378,1.458,0.698,2.251,0.898c8.718,2.188,18.697-7.635,22.288-21.942
	C357.414,242.145,353.292,228.817,344.629,226.568z"/>
<path style="fill:#E8CF89;" d="M344.629,226.568c0.445-4.11,0.676-8.161,0.676-12.112c0-52.264-39.984-94.632-89.305-94.632
	c-0.193,0-0.381,0.014-0.574,0.016v216.269c0.191,0.002,0.383,0.016,0.574,0.016c30.348,0,57.156-26.279,73.294-58.673
	c0.715,0.378,1.458,0.698,2.251,0.898c8.718,2.188,18.697-7.635,22.288-21.944C357.414,242.145,353.292,228.817,344.629,226.568z"/>
<path style="fill:#895707;" d="M214.302,281.262l-28.875-43.794h-6.034c0,0,4.31,24.566,4.31,46.545s22.842,64.431,64.431,64.431
	h15.731c41.589,0,64.431-42.451,64.431-64.431s4.31-46.545,4.31-46.545h-6.034l-28.875,43.794l-41.982,9.216L214.302,281.262z"/>
<path style="fill:#6D4306;" d="M326.572,237.468l-28.875,43.794l-41.982,9.216l-0.288-0.064v58.03h8.439
	c41.589,0,64.431-42.451,64.431-64.431s4.31-46.545,4.31-46.545L326.572,237.468L326.572,237.468z"/>
<path style="fill:#3A3A3A;" d="M277.647,285.051c-14.498-9.4-18.941-5.268-21.647-0.64c-2.707-4.629-7.149-8.761-21.647,0.64
	c-14.827,9.612-34.38-1.467-34.38-1.467s10.442,20.292,36.009,17.76c10.952-1.084,17.677-5.566,20.018-10.121
	c2.341,4.555,9.066,9.037,20.018,10.121c25.567,2.532,36.009-17.758,36.009-17.758S292.474,294.665,277.647,285.051z"/>
<path style="fill:#333333;" d="M277.647,285.051c-14.498-9.4-18.941-5.268-21.647-0.64c-0.183-0.312-0.374-0.619-0.574-0.922v8.706
	c0.212-0.322,0.407-0.646,0.574-0.972c2.341,4.555,9.066,9.037,20.018,10.121c25.567,2.532,36.009-17.76,36.009-17.76
	S292.474,294.665,277.647,285.051z"/>
<path style="fill:#3A3A3A;" d="M200.949,166.124c0,0-15.579,1.315-9.737,20.513s-9.599,72.195-9.599,72.195
	s-0.876-25.721-14.21-32.266c-13.334-6.546-3.631-113.795,88.597-113.795s101.929,107.251,88.597,113.795
	c-13.333,6.544-14.21,32.266-14.21,32.266s-15.441-53-9.599-72.195s-9.737-20.513-9.737-20.513S259.929,185.535,200.949,166.124z"/>
<path style="fill:#FFEDB5;" d="M163.771,186.301c0,0,18.075-131.624,92.229-95.473c74.154-36.15,92.229,95.473,92.229,95.473"/>
<g>
	<path style="fill:#FEE187;" d="M256,90.827c-0.193-0.095-0.381-0.171-0.574-0.262v95.735h92.803
		C348.229,186.301,330.154,54.677,256,90.827z"/>
	<path style="fill:#FEE187;" d="M256,163.483c-92.193,0-166.931,20.068-166.931,44.822c0,14.796,26.705,27.915,67.872,36.078
		c0.467-9.083,4.305-16.224,10.43-17.815c-0.445-4.11-0.676-8.161-0.676-12.112c0-2.303,0.105-4.577,0.257-6.839
		c19.478-12.422,52.088-20.573,89.048-20.573s69.57,8.149,89.048,20.573c0.152,2.262,0.257,4.536,0.257,6.839
		c0,3.951-0.233,8.002-0.676,12.112c6.125,1.593,9.964,8.732,10.43,17.815c41.167-8.163,67.872-21.282,67.872-36.078
		C422.931,183.551,348.193,163.483,256,163.483z"/>
</g>
<path style="fill:#FFC61B;" d="M256,163.483c-0.191,0-0.383,0.002-0.574,0.002v23.566c0.193,0,0.381-0.009,0.574-0.009
	c36.961,0,69.57,8.149,89.048,20.573c0.152,2.262,0.257,4.536,0.257,6.839c0,3.951-0.233,8.002-0.676,12.112
	c6.125,1.593,9.964,8.732,10.43,17.815c41.167-8.163,67.872-21.282,67.872-36.078C422.931,183.551,348.193,163.483,256,163.483z"/>
<path style="fill:#FF5419;" d="M357.764,365.671l-45.22-9.044l-7.992-11.666c-1.496-2.184-4.327-3.007-6.759-1.965L256,390.494
	l-41.543-47.48c-2.415-1.053-5.239-0.262-6.754,1.893l-8.247,11.719l-45.22,9.044c-23.024,4.606-39.596,24.821-39.596,48.3v55.475
	C155.148,496.328,203.74,512,256,512s100.852-15.672,141.36-42.555V413.97C397.36,390.491,380.787,370.276,357.764,365.671z"/>
<path style="fill:#FF0F27;" d="M357.764,365.671l-45.22-9.044l-7.992-11.666c-1.496-2.184-4.327-3.007-6.759-1.965L256,390.494
	l-0.574-0.657V511.99c0.191,0,0.381,0.01,0.574,0.01c52.258,0,100.852-15.672,141.36-42.555V413.97
	C397.36,390.491,380.787,370.276,357.764,365.671z"/>
<path style="fill:#FEE187;" d="M187.906,358.936l-20.687,4.137v133.058C194.882,506.368,224.777,512,256,512
	s61.119-5.632,88.781-15.869V363.075l-20.687-4.137v64.586H187.906V358.936z"/>
<path style="fill:#FFC61B;" d="M324.094,358.936v64.586h-68.668v88.471c0.191,0,0.381,0.007,0.574,0.007
	c31.223,0,61.119-5.632,88.781-15.869V363.075L324.094,358.936z"/>
<path style="fill:#FEE187;" d="M256,390.608l-43.973-51.053c-1.872-2.007-5.26-2.003-7.127,0.007l-16.994,19.299l36.664,52.707
	c3.053,4.472,10.119,4.596,13.357,0.233L256,390.608z"/>
<path style="fill:#FFC61B;" d="M256,390.608l43.973-51.053c1.872-2.007,5.26-2.003,7.127,0.007l16.994,19.299l-36.664,52.707
	c-3.053,4.472-10.119,4.596-13.357,0.233L256,390.608z"/>
<g>
</g>
<g>
</g>
<g>
</g>
<g>
</g>
<g>
</g>
<g>
</g>
<g>
</g>
<g>
</g>
<g>
</g>
<g>
</g>
<g>
</g>
<g>
</g>
<g>
</g>
<g>
</g>
<g>
</g>
</svg>
