<?xml version="1.0" encoding="iso-8859-1"?>
<!-- Generator: Adobe Illustrator 19.0.0, SVG Export Plug-In . SVG Version: 6.00 Build 0)  -->
<svg version="1.1" id="Layer_1" xmlns="http://www.w3.org/2000/svg" xmlns:xlink="http://www.w3.org/1999/xlink" x="0px" y="0px"
	 viewBox="0 0 512.002 512.002" style="enable-background:new 0 0 512.002 512.002;" xml:space="preserve">
<circle style="fill:#71E2EF;" cx="256.001" cy="256" r="256"/>
<g>
	<polygon style="fill:#38C6D9;" points="316.11,119.824 384.937,188.65 305.42,188.65 	"/>
	<path style="fill:#38C6D9;" d="M427.817,201.409l-10.821,8.156l-327.018,3.281l147.79,142.15l-43.255,22.254L320.946,503.68
		c101.167-26.455,177.921-113.249,189.519-219.622L427.817,201.409z"/>
</g>
<rect x="213.334" y="292.219" style="fill:#3F444C;" width="85.333" height="104.296"/>
<rect x="255.432" y="292.219" style="fill:#333333;" width="43.236" height="104.296"/>
<path style="fill:#263A7A;" d="M349.38,215.25c0,61.887-41.806,127.569-93.379,127.569s-93.379-65.683-93.379-127.569
	s41.806-97.401,93.379-97.401S349.38,153.364,349.38,215.25z"/>
<path style="fill:#2B3344;" d="M256.001,117.85c-0.193,0-0.381,0.012-0.574,0.012v224.935c0.193,0.002,0.381,0.022,0.574,0.022
	c51.571,0,93.379-65.684,93.379-127.569C349.38,153.364,307.572,117.85,256.001,117.85z"/>
<path style="fill:#B3E0E2;" d="M337.066,195.691c0,53.726-36.293,110.747-81.065,110.747s-81.065-57.022-81.065-110.747
	s36.295-84.558,81.065-84.558S337.066,141.965,337.066,195.691z"/>
<path style="fill:#71E2EF;" d="M256.001,111.133c-0.193,0-0.383,0.012-0.574,0.012v195.269c0.193,0.002,0.381,0.022,0.574,0.022
	c44.772,0,81.065-57.022,81.065-110.747C337.066,141.965,300.772,111.133,256.001,111.133z"/>
<path style="fill:#386895;" d="M256.001,310.748c-48.864,0-85.373-60.744-85.373-115.057c0-26.75,8.656-49.397,25.031-65.498
	c15.327-15.069,36.757-23.369,60.344-23.369s45.016,8.299,60.344,23.369c16.375,16.101,25.033,38.752,25.033,65.498
	C341.376,250.003,304.865,310.748,256.001,310.748z M256.001,115.443c-45.909,0-76.753,32.249-76.753,80.248
	c0,49.221,33.528,106.437,76.753,106.437c43.227,0,76.755-57.216,76.755-106.437C332.756,147.692,301.912,115.443,256.001,115.443z"
	/>
<path style="fill:#273B7A;" d="M316.344,130.191c-15.327-15.069-36.757-23.369-60.344-23.369c-0.193,0-0.381,0.012-0.574,0.012v8.62
	c0.193-0.002,0.381-0.012,0.574-0.012c45.911,0,76.755,32.249,76.755,80.248c0,49.221-33.528,106.437-76.755,106.437
	c-0.193,0-0.381-0.021-0.574-0.024v8.621c0.193,0.002,0.381,0.022,0.574,0.022c48.864,0,85.375-60.744,85.375-115.057
	C341.376,168.943,332.72,146.292,316.344,130.191z"/>
<path style="fill:#FFC61B;" d="M256.001,95.142c-47.795,0-86.854,39.86-89.643,90.138h179.286
	C342.855,135.001,303.796,95.142,256.001,95.142z"/>
<path style="fill:#D48B07;" d="M256.001,95.142c-0.193,0-0.381,0.014-0.574,0.016v90.124h90.217
	C342.855,135.001,303.796,95.142,256.001,95.142z"/>
<path style="fill:#F7D27F;" d="M265.339,176.7h-18.675c-5.158,0-9.338-4.18-9.338-9.338V92.948c0-5.158,4.18-9.338,9.338-9.338
	h18.675c5.158,0,9.338,4.18,9.338,9.338v74.414C274.676,172.52,270.495,176.7,265.339,176.7z"/>
<path style="fill:#FFC61B;" d="M265.339,83.609h-9.912V176.7h9.912c5.158,0,9.338-4.18,9.338-9.338V92.948
	C274.676,87.79,270.495,83.609,265.339,83.609z"/>
<path style="fill:#D48B07;" d="M256.001,157.163c-94.892,0-171.816,19.809-171.816,44.247c0,15.784,32.103,29.637,80.403,37.469
	c-1.284-7.842-1.965-15.767-1.965-23.628c0-5.189,0.319-10.176,0.888-14.989c0,0,91.289-22.411,184.98,0
	c0.569,4.813,0.888,9.8,0.888,14.989c0,7.863-0.681,15.786-1.965,23.628c48.302-7.832,80.403-21.683,80.403-37.469
	C427.817,176.973,350.893,157.163,256.001,157.163z"/>
<path style="fill:#E03A00;" d="M256.001,157.163c-0.191,0-0.383,0.002-0.574,0.002v33.151c28.246-0.215,60.507,2.157,93.065,9.945
	c0.569,4.813,0.888,9.8,0.888,14.989c0,7.863-0.681,15.786-1.965,23.628c48.302-7.832,80.403-21.683,80.403-37.469
	C427.817,176.973,350.893,157.163,256.001,157.163z"/>
<path style="fill:#273B7A;" d="M386.444,403.394h-20.687V330.99c0-10.473-8.49-18.963-18.963-18.963H274.39V291.34h77.791
	c18.923,0,34.263,15.339,34.263,34.263V403.394z"/>
<circle style="fill:#B3E0E2;" cx="256.001" cy="302.545" r="27.008"/>
<path style="fill:#71E2EF;" d="M256.001,275.537c-0.193,0-0.381,0.024-0.574,0.029v53.958c0.193,0.003,0.381,0.029,0.574,0.029
	c14.915,0,27.008-12.091,27.008-27.008S270.916,275.537,256.001,275.537z"/>
<path style="fill:#386895;" d="M256.001,333.864c-17.27,0-31.318-14.048-31.318-31.318c0-17.27,14.048-31.318,31.318-31.318
	s31.318,14.048,31.318,31.318C287.319,319.816,273.271,333.864,256.001,333.864z M256.001,279.847
	c-12.517,0-22.699,10.181-22.699,22.699c0,12.517,10.181,22.699,22.699,22.699c12.517,0,22.699-10.181,22.699-22.699
	C278.7,290.028,268.518,279.847,256.001,279.847z"/>
<path style="fill:#273B7A;" d="M256.001,271.227c-0.193,0-0.381,0.026-0.574,0.029v8.62c0.193-0.005,0.381-0.029,0.574-0.029
	c12.517,0,22.699,10.181,22.699,22.699c0,12.517-10.181,22.699-22.699,22.699c-0.193,0-0.381-0.024-0.574-0.029v8.62
	c0.193,0.003,0.381,0.029,0.574,0.029c17.27,0,31.318-14.048,31.318-31.318C287.319,285.275,273.271,271.227,256.001,271.227z"/>
<path style="fill:#263A7A;" d="M370.692,365.671l-50.964-9.044l-9.007-11.666c-1.686-2.184-4.875-3.007-7.618-1.965l-10.84,10.931
	c-19.961,20.128-52.515,20.083-72.42-0.102l-10.662-10.812c-2.722-1.053-5.904-0.262-7.613,1.893l-9.295,11.719l-50.964,9.044
	c-25.948,4.605-44.627,24.819-44.627,48.3v42.408C140.404,491.187,195.769,512,256.001,512s115.595-20.813,159.318-55.622V413.97
	C415.319,390.491,396.641,370.276,370.692,365.671z"/>
<path style="fill:#2B3344;" d="M370.692,365.671l-50.964-9.044l-9.007-11.666c-1.686-2.184-4.875-3.007-7.618-1.965l-10.84,10.931
	c-10.133,10.219-23.512,15.227-36.835,15.051v143.015c0.191,0,0.381,0.007,0.574,0.007c60.232,0,115.595-20.813,159.318-55.622
	v-42.408C415.319,390.491,396.641,370.276,370.692,365.671z"/>
<g>
	<path style="fill:#FFC61B;" d="M343.346,496.704c9.063-3.289,17.88-7.085,26.433-11.336V358.859l-26.433-5.746L343.346,496.704
		L343.346,496.704z"/>
	<path style="fill:#FFC61B;" d="M142.223,485.369c8.552,4.251,17.37,8.045,26.433,11.335V353.113l-26.433,5.747V485.369z"/>
</g>
<g>
</g>
<g>
</g>
<g>
</g>
<g>
</g>
<g>
</g>
<g>
</g>
<g>
</g>
<g>
</g>
<g>
</g>
<g>
</g>
<g>
</g>
<g>
</g>
<g>
</g>
<g>
</g>
<g>
</g>
</svg>
