<?xml version="1.0" encoding="iso-8859-1"?>
<!-- Generator: Adobe Illustrator 19.0.0, SVG Export Plug-In . SVG Version: 6.00 Build 0)  -->
<svg version="1.1" id="Layer_1" xmlns="http://www.w3.org/2000/svg" xmlns:xlink="http://www.w3.org/1999/xlink" x="0px" y="0px"
	 viewBox="0 0 512 512" style="enable-background:new 0 0 512 512;" xml:space="preserve">
<circle style="fill:#FEE187;" cx="256" cy="256" r="256"/>
<path style="fill:#FFC61B;" d="M293.598,100.624l-16.867,255.407L392.99,472.29c57.492-36.49,99.445-95.265,113.697-164.178
	l-170.312-171.66l-9.773-3.693L293.598,100.624z"/>
<path style="fill:#750621;" d="M256.288,223.908c-0.578,0-1.148,0.021-1.724,0.026v141.884c0.576,0.003,1.146,0.026,1.724,0.026
	c68.074,0,123.259-31.773,123.259-70.968S324.361,223.908,256.288,223.908z"/>
<path style="fill:#940030;" d="M133.029,294.876c0,38.86,54.26,70.409,121.535,70.942V223.934
	C187.287,224.466,133.029,256.014,133.029,294.876z"/>
<rect x="213.333" y="292.219" style="fill:#FCD088;" width="85.333" height="85.333"/>
<rect x="255.431" y="292.219" style="fill:#DDAB62;" width="43.236" height="85.333"/>
<path style="fill:#E03A00;" d="M199.456,351.454l-45.22,9.044c-23.024,4.606-39.596,24.821-39.596,48.3v59.809
	c40.432,27.067,89.05,42.861,141.36,42.861s100.928-15.794,141.36-42.861v-59.809c0-23.48-16.572-43.696-39.596-48.3l-45.22-9.044
	l-7.992-11.666c-1.496-2.184-4.327-3.007-6.759-1.965l-9.209,3.967c-20.794,8.959-44.365,8.937-65.141-0.059l-8.985-3.891
	c-2.415-1.053-5.239-0.262-6.754,1.893L199.456,351.454z"/>
<path style="fill:#940030;" d="M357.764,360.5l-45.22-9.044l-7.992-11.666c-1.496-2.184-4.327-3.007-6.759-1.965l-9.209,3.968
	c-10.58,4.558-21.876,6.778-33.159,6.689V511.46c0.193,0,0.383,0.01,0.574,0.01c52.31,0,100.928-15.794,141.36-42.861V408.8
	C397.36,385.319,380.788,365.104,357.764,360.5z"/>
<path style="fill:#FFEDB5;" d="M344.629,226.568c0.445-4.11,0.676-8.161,0.676-12.112c0-52.264-39.984-94.632-89.305-94.632
	s-89.305,42.368-89.305,94.632c0,3.951,0.233,8.002,0.676,12.112c-8.663,2.251-12.784,15.577-9.204,29.839
	c3.591,14.307,13.569,24.131,22.288,21.942c0.795-0.2,1.536-0.521,2.251-0.898c16.137,32.392,42.946,58.673,73.294,58.673
	s57.156-26.279,73.294-58.673c0.715,0.378,1.458,0.698,2.251,0.898c8.718,2.188,18.697-7.635,22.288-21.942
	C357.414,242.145,353.292,228.817,344.629,226.568z"/>
<path style="fill:#E8CF89;" d="M344.629,226.568c0.445-4.11,0.676-8.161,0.676-12.112c0-52.264-39.984-94.632-89.305-94.632
	c-0.193,0-0.383,0.014-0.574,0.016v216.269c0.191,0.002,0.383,0.016,0.574,0.016c30.348,0,57.156-26.279,73.294-58.673
	c0.715,0.378,1.458,0.698,2.251,0.898c8.718,2.188,18.697-7.635,22.288-21.944C357.414,242.145,353.292,228.817,344.629,226.568z"/>
<path style="fill:#E03A00;" d="M371.415,360.11l-42.777-5.47L256,491.456l-0.574-1.079v21.616c0.191,0,0.383,0.007,0.574,0.007
	c60.695,0,116.445-21.137,160.323-56.432v-46.864C416.323,385.081,397.527,364.742,371.415,360.11z"/>
<path style="fill:#D48B07;" d="M183.184,354.694l-42.599,5.417c-26.112,4.632-44.908,24.971-44.908,48.593v46.864
	c43.739,35.183,99.276,56.292,159.749,56.425v-21.616L183.184,354.694z"/>
<path style="fill:#3A3A3A;" d="M200.949,166.124c0,0-15.579,1.315-9.737,20.513s-9.599,72.195-9.599,72.195
	s-0.876-25.721-14.21-32.266c-13.334-6.546-3.631-113.795,88.597-113.795s101.929,107.251,88.597,113.795
	c-13.333,6.544-14.21,32.266-14.21,32.266s-15.441-53-9.599-72.195c5.842-19.196-9.737-20.513-9.737-20.513
	S259.929,185.535,200.949,166.124z"/>
<path style="fill:#FC9C3D;" d="M298.672,318.352c0,0-27.969,84.608-49.538,193.555c2.282,0.06,4.57,0.093,6.866,0.093
	c8.47,0,16.841-0.422,25.1-1.226l61.814-94.451l-19.106-31.604l37.064-17.239C360.872,367.48,331.493,321.724,298.672,318.352z"/>
<path style="fill:#FFC61B;" d="M213.328,318.352c-32.821,3.372-62.199,49.128-62.199,49.128l37.064,17.239l-19.108,31.604
	l61.814,94.451c8.259,0.803,16.629,1.226,25.1,1.226c2.296,0,4.584-0.033,6.866-0.093
	C241.295,402.96,213.328,318.352,213.328,318.352z"/>
<path style="fill:#FF0F27;" d="M134.008,285.882c7.683-34.944,59.502-61.974,122.278-61.974s114.595,27.029,122.278,61.973
	c0,0-21.257-84.952-24.314-113.912c-3.746-35.511-43.989-64.655-98.251-64.655s-94.591,29.136-98.254,64.657
	C154.764,200.906,134.008,285.882,134.008,285.882"/>
<g>
	<path style="fill:#940030;" d="M354.252,171.97c-3.748-35.512-43.991-64.657-98.252-64.657c-0.193,0-0.381,0.009-0.574,0.01V223.92
		c0.288-0.002,0.572-0.012,0.862-0.012c62.776,0,114.595,27.029,122.278,61.973C378.565,285.88,357.307,200.928,354.252,171.97z"/>
	<path style="fill:#940030;" d="M296.512,201.123h-81.024v-93.091c0-6.03,4.889-10.917,10.918-10.917h59.187
		c6.03,0,10.918,4.889,10.918,10.917v93.091H296.512z"/>
</g>
<path style="fill:#750621;" d="M296.512,108.032c0-6.03-4.889-10.917-10.918-10.917h-30.168v104.008h41.086V108.032z"/>
<path style="fill:#B20D2D;" d="M256.288,192.303c-47.683,0-89.022,15.605-109.523,38.417c-6.251,28.525-12.757,55.163-12.757,55.163
	c7.683-34.944,59.502-61.974,122.278-61.974s114.595,27.029,122.278,61.973c0,0-6.739-26.933-13.174-55.637
	C344.748,207.688,303.642,192.303,256.288,192.303z"/>
<path style="fill:#8E0E2D;" d="M365.39,230.243c-20.644-22.556-61.75-37.94-109.104-37.94c-0.288,0-0.574,0.007-0.862,0.009v31.608
	c0.288-0.002,0.572-0.012,0.862-0.012c62.776,0,114.595,27.029,122.278,61.973C378.565,285.88,371.826,258.948,365.39,230.243z"/>
<ellipse style="fill:#D48B07;" cx="256" cy="148.549" rx="22.123" ry="24.709"/>
<path style="fill:#E03A00;" d="M256,123.833c-0.193,0-0.381,0.028-0.574,0.033v49.354c0.193,0.005,0.381,0.033,0.574,0.033
	c12.219,0,22.123-11.062,22.123-24.709C278.123,134.896,268.217,123.833,256,123.833z"/>
<g>
</g>
<g>
</g>
<g>
</g>
<g>
</g>
<g>
</g>
<g>
</g>
<g>
</g>
<g>
</g>
<g>
</g>
<g>
</g>
<g>
</g>
<g>
</g>
<g>
</g>
<g>
</g>
<g>
</g>
</svg>
