<?xml version="1.0" encoding="iso-8859-1"?>
<!-- Generator: Adobe Illustrator 19.0.0, SVG Export Plug-In . SVG Version: 6.00 Build 0)  -->
<svg version="1.1" id="Layer_1" xmlns="http://www.w3.org/2000/svg" xmlns:xlink="http://www.w3.org/1999/xlink" x="0px" y="0px"
	 viewBox="0 0 512 512" style="enable-background:new 0 0 512 512;" xml:space="preserve">
<circle style="fill:#386895;" cx="256" cy="256" r="256"/>
<path style="fill:#273B7A;" d="M207.588,384L325.92,502.332c86.659-24.55,154.607-93.598,177.624-180.889L316.983,134.882
	L207.588,384z"/>
<rect x="213.333" y="292.219" style="fill:#FCD088;" width="85.333" height="85.333"/>
<rect x="255.431" y="292.219" style="fill:#DDAB62;" width="43.236" height="85.333"/>
<path style="fill:#D9EDEC;" d="M199.456,351.454l-45.22,9.044c-23.024,4.606-39.596,24.821-39.596,48.3v59.809
	c40.432,27.067,89.05,42.861,141.36,42.861s100.928-15.794,141.36-42.861v-59.809c0-23.48-16.572-43.696-39.596-48.3l-45.22-9.044
	l-7.992-11.666c-1.496-2.184-4.327-3.007-6.759-1.965L256,355.83l-41.543-17.987c-2.415-1.053-5.239-0.262-6.754,1.893
	L199.456,351.454z"/>
<path style="fill:#B9C9C8;" d="M357.764,360.5l-45.22-9.044l-7.992-11.666c-1.496-2.184-4.327-3.007-6.759-1.965L256,355.83
	l-0.574-0.248v155.877c0.191,0,0.381,0.01,0.574,0.01c52.31,0,100.928-15.794,141.36-42.861v-59.809
	C397.36,385.319,380.787,365.104,357.764,360.5z"/>
<path style="fill:#FFEDB5;" d="M344.629,226.568c0.445-4.11,0.676-8.161,0.676-12.112c0-52.264-39.984-94.632-89.305-94.632
	s-89.305,42.368-89.305,94.632c0,3.951,0.233,8.002,0.676,12.112c-8.663,2.251-12.784,15.577-9.204,29.839
	c3.591,14.307,13.569,24.131,22.288,21.942c0.795-0.2,1.536-0.521,2.251-0.898c16.137,32.392,42.946,58.673,73.294,58.673
	s57.156-26.279,73.294-58.673c0.715,0.378,1.458,0.698,2.251,0.898c8.718,2.188,18.697-7.635,22.288-21.942
	C357.414,242.145,353.292,228.817,344.629,226.568z"/>
<path style="fill:#E8CF89;" d="M344.629,226.568c0.445-4.11,0.676-8.161,0.676-12.112c0-52.264-39.984-94.632-89.305-94.632
	c-0.193,0-0.381,0.014-0.574,0.016v216.269c0.191,0.002,0.383,0.016,0.574,0.016c30.348,0,57.156-26.279,73.294-58.673
	c0.715,0.378,1.458,0.698,2.251,0.898c8.718,2.188,18.697-7.635,22.288-21.942C357.414,242.145,353.292,228.817,344.629,226.568z"/>
<polygon style="fill:#B7CECC;" points="256,481.461 211.32,401.291 256,356.752 300.68,401.291 "/>
<polygon style="fill:#829391;" points="300.68,401.291 256,356.752 255.426,357.324 255.426,480.43 256,481.461 "/>
<polygon style="fill:#D48B07;" points="274.677,375.513 256,356.752 237.323,375.513 247.811,388.992 247.811,470.411 
	264.189,470.411 264.189,388.992 "/>
<polygon style="fill:#FF0F27;" points="256,356.752 255.426,357.329 255.426,470.411 264.189,470.411 264.189,388.992 
	274.677,375.513 "/>
<path style="fill:#6D462B;" d="M371.415,360.108l-42.777-5.47L256,400.808l-72.816-46.114l-42.599,5.415
	c-26.112,4.632-44.908,24.971-44.908,48.593v46.864C139.555,490.863,195.305,512,256,512s116.445-21.137,160.323-56.432v-46.864
	C416.323,385.081,397.527,364.742,371.415,360.108z"/>
<path style="fill:#56351F;" d="M371.415,360.108l-42.777-5.47L256,400.808l-0.574-0.364v111.549c0.191,0,0.383,0.007,0.574,0.007
	c60.695,0,116.445-21.137,160.323-56.432v-46.864C416.323,385.081,397.527,364.742,371.415,360.108z"/>
<path style="fill:#444444;" d="M330.59,216.771c-1.684-1.684-4.411-1.684-6.094,0l-16.467,16.467
	c-3.605-7.339-11.135-12.414-19.849-12.414c-10.107,0-18.632,6.818-21.266,16.089h-21.826c-2.636-9.271-11.161-16.089-21.266-16.089
	c-8.713,0-16.243,5.075-19.849,12.414l-16.467-16.467c-1.684-1.684-4.411-1.684-6.094,0s-1.684,4.411,0,6.094l20.297,20.297
	c0.117,12.1,9.987,21.907,22.113,21.907c11.324,0,20.673-8.554,21.961-19.539h20.44c1.286,10.985,10.636,19.539,21.961,19.539
	c12.126,0,21.994-9.809,22.113-21.907l20.297-20.297C332.272,221.182,332.272,218.455,330.59,216.771z M223.82,256.452
	c-7.446,0-13.503-6.06-13.503-13.505c0-7.446,6.058-13.503,13.503-13.503c7.446,0,13.505,6.058,13.505,13.503
	C237.325,250.392,231.265,256.452,223.82,256.452z M288.18,256.452c-7.446,0-13.505-6.06-13.505-13.505
	c0-7.446,6.06-13.503,13.505-13.503c7.446,0,13.503,6.058,13.503,13.503C301.684,250.392,295.626,256.452,288.18,256.452z"/>
<path style="fill:#333333;" d="M330.59,216.771c-1.684-1.684-4.411-1.684-6.094,0l-16.467,16.467
	c-3.605-7.339-11.135-12.414-19.849-12.414c-10.107,0-18.632,6.818-21.266,16.089h-11.488v8.62h10.793
	c1.286,10.985,10.637,19.539,21.961,19.539c12.126,0,21.994-9.809,22.113-21.907l20.297-20.297
	C332.272,221.182,332.272,218.455,330.59,216.771z M288.18,256.452c-7.446,0-13.505-6.06-13.505-13.505
	c0-7.446,6.06-13.503,13.505-13.503c7.446,0,13.503,6.058,13.503,13.503C301.684,250.392,295.626,256.452,288.18,256.452z"/>
<path style="fill:#D6D6D6;" d="M200.949,166.124c0,0-15.579,1.315-9.737,20.513s-9.599,72.195-9.599,72.195
	s-0.876-25.721-14.21-32.266c-13.334-6.546-3.631-113.795,88.597-113.795s101.929,107.251,88.597,113.795
	c-13.333,6.544-14.21,32.266-14.21,32.266s-15.441-53-9.599-72.195c5.842-19.196-9.737-20.513-9.737-20.513
	S259.929,185.535,200.949,166.124z"/>
<path style="fill:#B7B6B6;" d="M256,112.773c-0.195,0-0.381,0.01-0.574,0.01v61.955c32.765,0.047,55.625-8.613,55.625-8.613
	s15.579,1.315,9.737,20.513c-5.842,19.197,9.599,72.195,9.599,72.195s0.876-25.721,14.21-32.266
	C357.931,220.022,348.227,112.773,256,112.773z"/>
<path style="fill:#A3A3A3;" d="M275.085,286.741c-12.783-8.289-16.699-4.644-19.085-0.564c-2.386-4.081-6.303-7.725-19.085,0.564
	c-13.072,8.476-30.311-1.293-30.311-1.293s9.206,17.891,31.749,15.658c9.656-0.957,15.586-4.908,17.649-8.923
	c2.064,4.015,7.992,7.968,17.649,8.923c22.543,2.232,31.749-15.658,31.749-15.658S288.159,295.217,275.085,286.741z"/>
<path style="fill:#7A7A79;" d="M275.085,286.741c-12.783-8.289-16.699-4.644-19.085-0.564c-0.179-0.309-0.374-0.61-0.574-0.908
	v7.816c0.198-0.3,0.419-0.598,0.574-0.9c2.064,4.015,7.992,7.968,17.649,8.923c22.544,2.232,31.749-15.658,31.749-15.658
	S288.159,295.217,275.085,286.741z"/>
<g>
</g>
<g>
</g>
<g>
</g>
<g>
</g>
<g>
</g>
<g>
</g>
<g>
</g>
<g>
</g>
<g>
</g>
<g>
</g>
<g>
</g>
<g>
</g>
<g>
</g>
<g>
</g>
<g>
</g>
</svg>
