<?xml version="1.0" encoding="iso-8859-1"?>
<!-- Generator: Adobe Illustrator 19.0.0, SVG Export Plug-In . SVG Version: 6.00 Build 0)  -->
<svg version="1.1" id="Layer_1" xmlns="http://www.w3.org/2000/svg" xmlns:xlink="http://www.w3.org/1999/xlink" x="0px" y="0px"
	 viewBox="0 0 512 512" style="enable-background:new 0 0 512 512;" xml:space="preserve">
<circle style="fill:#71E2EF;" cx="256" cy="256" r="256"/>
<path style="fill:#38C6D9;" d="M192.241,411.414l98.263,98.263c115.91-15.619,207.21-108.799,219.955-225.597L350.715,124.335
	L192.241,411.414z"/>
<rect x="213.333" y="292.219" style="fill:#FCD088;" width="85.333" height="104.296"/>
<rect x="255.431" y="292.219" style="fill:#DDAB62;" width="43.236" height="104.296"/>
<path style="fill:#366695;" d="M357.764,365.671l-45.22-9.044l-7.992-11.666c-1.496-2.184-4.327-3.007-6.759-1.965L256,390.494
	l-41.543-47.48c-2.415-1.053-5.239-0.262-6.754,1.893l-8.247,11.719l-45.22,9.044c-23.023,4.606-39.596,24.821-39.596,48.3v55.475
	C155.148,496.328,203.742,512,256,512s100.852-15.672,141.36-42.555V413.97C397.36,390.491,380.787,370.276,357.764,365.671z"/>
<path style="fill:#273B7A;" d="M357.764,365.671l-45.22-9.044l-7.992-11.666c-1.496-2.184-4.327-3.007-6.759-1.965L256,390.494
	l-0.574-0.657v122.151c0.191,0,0.381,0.01,0.574,0.01c52.258,0,100.852-15.672,141.36-42.555v-55.475
	C397.36,390.491,380.787,370.276,357.764,365.671z"/>
<path style="fill:#FFEDB5;" d="M347.531,205.44c0.459-4.244,0.698-8.428,0.698-12.509c0-53.974-41.293-97.728-92.229-97.728
	s-92.229,43.754-92.229,97.728c0,4.08,0.24,8.264,0.698,12.509c-8.945,2.326-13.202,16.087-9.506,30.817
	c3.708,14.776,14.014,24.921,23.018,22.661c0.821-0.205,1.586-0.538,2.326-0.927c16.667,33.452,44.351,60.594,75.693,60.594
	s59.027-27.139,75.693-60.594c0.74,0.39,1.505,0.722,2.326,0.927c9.004,2.26,19.309-7.885,23.018-22.661
	C360.734,221.527,356.478,207.763,347.531,205.44z"/>
<path style="fill:#E8CF89;" d="M347.531,205.44c0.459-4.244,0.698-8.428,0.698-12.509c0-53.974-41.293-97.728-92.229-97.728
	c-0.193,0-0.381,0.014-0.574,0.016v223.349c0.191,0.002,0.383,0.016,0.574,0.016c31.342,0,59.027-27.139,75.693-60.592
	c0.74,0.39,1.505,0.721,2.326,0.927c9.004,2.26,19.309-7.885,23.018-22.661C360.734,221.527,356.478,207.763,347.531,205.44z"/>
<path style="fill:#494948;" d="M162.047,189.918c0,0,1.724,18.963,6.034,30.456l8.045-0.288c0,0-2.012-15.515,14.941-31.318
	S162.047,189.918,162.047,189.918z"/>
<path style="fill:#333333;" d="M349.953,189.918c0,0-1.724,18.963-6.034,30.456l-8.045-0.288c0,0,2.012-15.515-14.941-31.318
	S349.953,189.918,349.953,189.918z"/>
<path style="fill:#263A7A;" d="M256,390.608l-43.973-51.053c-1.872-2.007-5.26-2.003-7.127,0.007l-16.994,19.299l36.664,52.707
	c3.053,4.472,10.119,4.596,13.357,0.233L256,390.608z"/>
<path style="fill:#121149;" d="M256,390.608l43.973-51.053c1.872-2.007,5.26-2.003,7.127,0.007l16.994,19.297l-36.664,52.707
	c-3.053,4.472-10.119,4.596-13.357,0.233L256,390.608z"/>
<path style="fill:#366695;" d="M353.115,190.492H158.887v-51.795c0-22.659,16.031-42.153,38.264-46.528l46.558-9.163
	c5.842-1.15,11.848-1.189,17.706-0.116l52.827,9.683c22.518,4.127,38.871,23.752,38.871,46.644v51.274H353.115z"/>
<g>
	<path style="fill:#273B7A;" d="M353.115,139.217c0-22.892-16.355-42.517-38.871-46.644l-52.827-9.683
		c-1.982-0.364-3.984-0.588-5.989-0.696v108.297h97.687V139.217z"/>
	<path style="fill:#273B7A;" d="M256,161.12c-39.421,0-75.143,9.969-101.224,26.124c-1.995,1.236-1.131,4.31,1.215,4.31h200.018
		c2.346,0,3.21-3.074,1.215-4.31C331.145,171.089,295.422,161.12,256,161.12z"/>
</g>
<path style="fill:#121149;" d="M357.224,187.244C331.143,171.089,295.421,161.12,256,161.12c-0.193,0-0.381,0.009-0.574,0.009
	v30.423h100.583C358.355,191.553,359.219,188.48,357.224,187.244z"/>
<ellipse style="fill:#FFC61B;" cx="256" cy="124.328" rx="21.333" ry="18.316"/>
<path style="fill:#D48B07;" d="M256,106.02c-0.193,0-0.381,0.021-0.574,0.024v36.583c0.193,0.003,0.381,0.024,0.574,0.024
	c11.783,0,21.333-8.201,21.333-18.316C277.333,114.221,267.783,106.02,256,106.02z"/>
<path style="fill:#263A7A;" d="M187.906,358.936l-20.687,4.137v133.058C194.882,506.368,224.777,512,256,512
	s61.119-5.632,88.781-15.869V363.075l-20.687-4.137v64.586H187.906V358.936z"/>
<path style="fill:#121149;" d="M324.094,358.936v64.586h-68.668v88.471c0.191,0,0.381,0.007,0.574,0.007
	c31.223,0,61.119-5.632,88.781-15.87V363.074L324.094,358.936z"/>
<g>
</g>
<g>
</g>
<g>
</g>
<g>
</g>
<g>
</g>
<g>
</g>
<g>
</g>
<g>
</g>
<g>
</g>
<g>
</g>
<g>
</g>
<g>
</g>
<g>
</g>
<g>
</g>
<g>
</g>
</svg>
