<?xml version="1.0" encoding="iso-8859-1"?>
<!-- Generator: Adobe Illustrator 19.0.0, SVG Export Plug-In . SVG Version: 6.00 Build 0)  -->
<svg version="1.1" id="Layer_1" xmlns="http://www.w3.org/2000/svg" xmlns:xlink="http://www.w3.org/1999/xlink" x="0px" y="0px"
	 viewBox="0 0 512 512" style="enable-background:new 0 0 512 512;" xml:space="preserve">
<circle style="fill:#FF6262;" cx="256" cy="256" r="256"/>
<path style="fill:#FF0F27;" d="M204.121,418.087l90.95,90.95c114.943-17.601,204.697-111.654,215.764-228.623L339.466,109.046
	L204.121,418.087z"/>
<g>
	<path style="fill:#1E1E1E;" d="M343.345,272.377l-3.16,26.433c0,0-112.916,31.892-153.428,0.288l-12.355-41.662l171.817-7.758
		L343.345,272.377z"/>
	<path style="fill:#1E1E1E;" d="M174.402,257.436l12.355,41.662c15.648,12.207,42.096,14.938,68.668,13.696V253.78L174.402,257.436z
		"/>
	<path style="fill:#1E1E1E;" d="M255.426,253.778v59.014c42.224-1.974,84.759-13.983,84.759-13.983l3.16-26.433l2.874-22.699
		L255.426,253.778z"/>
</g>
<rect x="213.333" y="292.219" style="fill:#FCD088;" width="85.333" height="104.296"/>
<rect x="255.431" y="292.219" style="fill:#DDAB62;" width="43.236" height="104.296"/>
<path style="fill:#366695;" d="M357.764,365.671l-45.22-9.044l-7.992-11.666c-1.496-2.184-4.327-3.007-6.759-1.965L256,390.494
	l-41.543-47.48c-2.415-1.053-5.239-0.262-6.754,1.893l-8.247,11.719l-45.22,9.044c-23.023,4.606-39.596,24.821-39.596,48.3v55.475
	C155.148,496.328,203.742,512,256,512s100.852-15.672,141.36-42.555V413.97C397.36,390.491,380.787,370.276,357.764,365.671z"/>
<path style="fill:#273B7A;" d="M357.764,365.671l-45.22-9.044l-7.992-11.666c-1.496-2.184-4.327-3.007-6.759-1.965L256,390.494
	l-0.574-0.657V511.99c0.191,0,0.381,0.01,0.574,0.01c52.258,0,100.852-15.672,141.36-42.555V413.97
	C397.36,390.491,380.787,370.276,357.764,365.671z"/>
<path style="fill:#FFEDB5;" d="M347.531,205.44c0.459-4.244,0.698-8.428,0.698-12.509c0-53.974-41.293-97.728-92.229-97.728
	s-92.229,43.754-92.229,97.728c0,4.08,0.24,8.264,0.698,12.509c-8.945,2.326-13.202,16.087-9.506,30.817
	c3.708,14.776,14.014,24.921,23.018,22.661c0.821-0.205,1.586-0.538,2.326-0.927c16.667,33.452,44.351,60.594,75.693,60.594
	s59.027-27.139,75.693-60.594c0.74,0.39,1.505,0.722,2.326,0.927c9.004,2.26,19.309-7.885,23.018-22.661
	C360.734,221.527,356.478,207.763,347.531,205.44z"/>
<path style="fill:#E8CF89;" d="M347.531,205.44c0.459-4.244,0.698-8.428,0.698-12.509c0-53.974-41.293-97.728-92.229-97.728
	c-0.193,0-0.381,0.014-0.574,0.016v223.349c0.191,0.002,0.383,0.016,0.574,0.016c31.342,0,59.027-27.139,75.693-60.594
	c0.74,0.39,1.505,0.722,2.326,0.927c9.004,2.26,19.309-7.885,23.018-22.661C360.734,221.527,356.478,207.763,347.531,205.44z"/>
<g>
	<circle style="fill:#FFFFFF;" cx="256" cy="413.186" r="4.31"/>
	<path style="fill:#FFFFFF;" d="M256,390.608l-40.262-51.053c-1.714-2.007-4.817-2.003-6.527,0.007l-15.56,18.292l33.57,53.713
		c2.796,4.472,9.266,4.596,12.229,0.233L256,390.608z"/>
</g>
<path style="fill:#EAEAEA;" d="M256,390.608l40.262-51.053c1.714-2.007,4.817-2.003,6.527,0.007l15.56,18.292l-33.57,53.713
	c-2.796,4.472-9.266,4.596-12.229,0.233L256,390.608z"/>
<path style="fill:#3A3A3A;" d="M226.12,144.808c0,0,30.168,38.788,83.609,44.822c53.441,6.034,6.896,120.099,6.896,120.099
	s14.653-2.874,45.684-20.113c0,0,59.763-210.316-106.882-210.316c-173.253,0-92.229,224.108-92.229,224.108l36.202,7.758
	c0,0-20.687-37.926-18.101-80.162C183.884,188.768,210.604,146.532,226.12,144.808z"/>
<path style="fill:#333333;" d="M255.426,79.3v90.812c13.703,8.745,31.959,16.994,54.303,19.518
	c53.441,6.034,6.896,120.099,6.896,120.099s14.653-2.874,45.684-20.113C362.308,289.616,422.071,79.3,255.426,79.3z"/>
<path style="fill:#D6D6D6;" d="M187.906,358.936l-20.687,4.137v133.058C194.882,506.368,224.777,512,256,512
	s61.119-5.632,88.781-15.869V363.075l-20.687-4.137v64.586H187.906V358.936z"/>
<path style="fill:#B5B4B4;" d="M324.094,358.936v64.586h-68.668v88.471c0.191,0,0.381,0.007,0.574,0.007
	c31.223,0,61.119-5.632,88.781-15.869V363.075L324.094,358.936z"/>
<g>
</g>
<g>
</g>
<g>
</g>
<g>
</g>
<g>
</g>
<g>
</g>
<g>
</g>
<g>
</g>
<g>
</g>
<g>
</g>
<g>
</g>
<g>
</g>
<g>
</g>
<g>
</g>
<g>
</g>
</svg>
