<?xml version="1.0" encoding="iso-8859-1"?>
<!-- Generator: Adobe Illustrator 19.0.0, SVG Export Plug-In . SVG Version: 6.00 Build 0)  -->
<svg version="1.1" id="Layer_1" xmlns="http://www.w3.org/2000/svg" xmlns:xlink="http://www.w3.org/1999/xlink" x="0px" y="0px"
	 viewBox="0 0 512 512" style="enable-background:new 0 0 512 512;" xml:space="preserve">
<circle style="fill:#71E2EF;" cx="256" cy="256" r="256"/>
<path style="fill:#38C6D9;" d="M172.165,329.04l168.579,168.581c85.171-29.872,149.752-103.49,166.798-193.91L346.055,142.222
	L172.165,329.04z"/>
<path style="fill:#535B68;" d="M148.159,396.21c0,0-15.131-148.83,4.608-215.631C169.005,125.626,198.985,88.781,256,88.781
	s92.186,36.695,103.233,91.798c23.762,118.519,8.821,209.311,8.821,209.311"/>
<path style="fill:#313944;" d="M359.233,180.579C348.186,125.476,313.015,88.781,256,88.781v304.33l112.054-3.222
	C368.054,389.891,382.995,299.098,359.233,180.579z"/>
<rect x="213.333" y="273.791" style="fill:#FCD088;" width="85.333" height="85.333"/>
<rect x="256" y="273.791" style="fill:#DDAB62;" width="42.665" height="85.333"/>
<path style="fill:#BFBFBF;" d="M357.764,360.5l-45.22-9.044l-7.992-11.666c-1.496-2.184-4.327-3.007-6.759-1.965l-0.217,0.093
	c-26.533,11.431-56.606,11.404-83.116-0.076l0,0c-2.415-1.053-5.239-0.262-6.754,1.893l-8.247,11.719l-45.22,9.044
	c-23.026,4.606-39.598,24.821-39.598,48.3v60.647C155.148,496.328,203.74,512,256,512s100.852-15.672,141.36-42.555v-60.647
	C397.36,385.319,380.787,365.104,357.764,360.5z"/>
<path style="fill:#8C8C8C;" d="M397.36,408.798c0-23.48-16.572-43.696-39.596-48.3l-45.22-9.044l-7.992-11.666
	c-1.496-2.184-4.327-3.007-6.759-1.965l-0.217,0.093c-13.269,5.716-27.422,8.566-41.574,8.552V512
	c52.258,0,100.85-15.674,141.359-42.555V408.798z"/>
<path style="fill:#535B68;" d="M256,439.884c-56.887,0-106.756-22.33-134.665-55.849c-4.267,7.325-6.696,15.803-6.696,24.766v60.647
	C155.148,496.328,203.74,512,256,512s100.852-15.672,141.36-42.555v-60.647c0-8.963-2.429-17.439-6.696-24.764
	C362.756,417.552,312.885,439.884,256,439.884z"/>
<path style="fill:#313944;" d="M397.36,408.798c0-8.963-2.429-17.439-6.696-24.764c-27.908,33.518-77.779,55.848-134.665,55.848V512
	c52.258,0,100.85-15.672,141.359-42.555v-60.647H397.36z"/>
<path style="fill:#BFBFBF;" d="M342.163,186.327H169.837c-0.565,4.565-0.876,9.306-0.89,14.236h174.104
	C343.037,195.632,342.726,190.89,342.163,186.327z"/>
<path style="fill:#8C8C8C;" d="M342.163,186.327H256v14.236h87.052C343.037,195.632,342.726,190.89,342.163,186.327z"/>
<path style="fill:#FFEDB5;" d="M168.948,200.563c0,0.121-0.005,0.236-0.005,0.357c0,57.696,38.978,118.934,87.057,118.934
	s87.057-61.237,87.057-118.934c0-0.121-0.005-0.236-0.005-0.357L168.948,200.563L168.948,200.563z"/>
<path style="fill:#E8CF89;" d="M343.057,200.918c0-0.121-0.005-0.236-0.005-0.357H256V319.85
	C304.08,319.852,343.057,258.615,343.057,200.918z"/>
<polygon style="fill:#FFFFFF;" points="277.118,432.269 263.327,432.269 263.327,417.185 248.673,417.185 248.673,432.269 
	234.882,432.269 234.882,445.63 248.673,445.63 248.673,488.727 263.327,488.727 263.327,445.63 277.118,445.63 "/>
<polygon style="fill:#CBD3D1;" points="263.327,432.269 263.327,417.185 256,417.185 256,488.727 263.327,488.727 263.327,445.63 
	277.118,445.63 277.118,432.269 "/>
<path style="fill:#FFFFFF;" d="M256,411.582c-44.098,0-83.291-20.163-99.854-51.367c-0.669-1.26-0.188-2.827,1.072-3.496
	c1.26-0.667,2.829-0.186,3.496,1.072c15.675,29.536,53.077,48.619,95.284,48.619s79.61-19.084,95.284-48.619
	c0.671-1.258,2.239-1.739,3.496-1.072c1.26,0.671,1.741,2.236,1.072,3.496C339.29,391.42,300.098,411.582,256,411.582z"/>
<path style="fill:#CBD3D1;" d="M354.781,356.719c-1.257-0.667-2.827-0.186-3.496,1.072c-15.675,29.536-53.077,48.619-95.284,48.619
	v5.172c44.098,0,83.29-20.163,99.854-51.367C356.523,358.955,356.042,357.388,354.781,356.719z"/>
<g>
</g>
<g>
</g>
<g>
</g>
<g>
</g>
<g>
</g>
<g>
</g>
<g>
</g>
<g>
</g>
<g>
</g>
<g>
</g>
<g>
</g>
<g>
</g>
<g>
</g>
<g>
</g>
<g>
</g>
</svg>
