<?xml version="1.0" encoding="iso-8859-1"?>
<!-- Generator: Adobe Illustrator 19.0.0, SVG Export Plug-In . SVG Version: 6.00 Build 0)  -->
<svg version="1.1" id="Layer_1" xmlns="http://www.w3.org/2000/svg" xmlns:xlink="http://www.w3.org/1999/xlink" x="0px" y="0px"
	 viewBox="0 0 512 512" style="enable-background:new 0 0 512 512;" xml:space="preserve">
<circle style="fill:#D48B07;" cx="256" cy="256" r="256"/>
<path style="fill:#FF5419;" d="M368.054,119.411L157.163,334.438l168.079,168.079c105.517-29.577,183.474-125.071,186.651-239.266
	L368.054,119.411z"/>
<path style="fill:#3A3A3A;" d="M173.253,131.879c0,0-81.598,159.173,10.343,266.056l155.726-9.194c0,0,48.843-55.739,23.561-201.123
	"/>
<path style="fill:#333333;" d="M362.882,187.618l-107.456-31.585v237.661l83.897-4.953
	C339.323,388.741,388.167,333.002,362.882,187.618z"/>
<rect x="213.333" y="293.685" style="fill:#FCD088;" width="85.333" height="104.296"/>
<rect x="255.431" y="293.685" style="fill:#DDAB62;" width="43.236" height="104.296"/>
<path style="fill:#FFEDB5;" d="M347.529,205.44c0.459-4.244,0.698-8.428,0.698-12.509c0-53.974-41.293-97.728-92.229-97.728
	s-92.229,43.754-92.229,97.728c0,4.08,0.24,8.264,0.698,12.509c-8.945,2.326-13.202,16.087-9.506,30.817
	c3.708,14.776,14.014,24.921,23.018,22.661c0.821-0.205,1.586-0.538,2.326-0.927c16.667,33.452,44.351,60.594,75.693,60.594
	s59.027-27.139,75.693-60.594c0.74,0.39,1.505,0.722,2.326,0.927c9.004,2.26,19.309-7.885,23.018-22.661
	C360.732,221.527,356.476,207.763,347.529,205.44z"/>
<path style="fill:#E8CF89;" d="M347.529,205.44c0.459-4.244,0.698-8.428,0.698-12.509c0-53.974-41.293-97.728-92.229-97.728
	c-0.193,0-0.381,0.014-0.574,0.016v223.349c0.191,0.002,0.381,0.016,0.574,0.016c31.342,0,59.027-27.139,75.693-60.594
	c0.74,0.39,1.505,0.722,2.326,0.927c9.004,2.26,19.309-7.885,23.018-22.661C360.732,221.527,356.476,207.763,347.529,205.44z"/>
<path style="fill:#FF6262;" d="M216.064,376.099c0,0,34.766,24.423,84.471,0l-44.822,115.79L216.064,376.099z"/>
<path style="fill:#FF0F27;" d="M300.535,376.099c-17.065,8.385-32.368,11.011-45.109,10.847v104.103l0.288,0.84L300.535,376.099z"/>
<path style="fill:#D9EDEC;" d="M357.762,361.951l-45.22-9.044l-7.992-11.666c-1.496-2.184-4.327-3.007-6.759-1.965l-41.793,140.255
	l-41.543-140.238c-2.415-1.053-5.239-0.262-6.754,1.893l-8.247,11.719l-45.22,9.044c-23.023,4.605-39.596,24.821-39.596,48.3v59.194
	C155.148,496.326,203.74,512,256,512c52.258,0,100.85-15.672,141.359-42.555V410.25
	C397.359,386.772,380.787,366.556,357.762,361.951z"/>
<path style="fill:#BDD1CF;" d="M357.762,361.951l-45.22-9.044l-7.992-11.666c-1.496-2.184-4.327-3.007-6.759-1.965l-41.793,140.255
	l-0.574-1.934v34.392c0.191,0,0.383,0.01,0.574,0.01c52.258,0,100.85-15.672,141.36-42.555V410.25
	C397.359,386.772,380.787,366.556,357.762,361.951z"/>
<path style="fill:#3A3A3A;" d="M233.015,144.52c0,0,32.18,41.948,78.15,63.21s13.217,75.852,13.217,75.852
	s98.263-120.099-18.963-180.436c-104.022-53.541-165.783,63.785-136.763,118.662C168.657,221.81,186.758,169.805,233.015,144.52z"/>
<path style="fill:#333333;" d="M305.419,103.146c-18.017-9.273-34.764-13.414-49.993-13.648v79.193
	c13.757,13.036,33.066,28.551,55.739,39.038c45.971,21.261,13.217,75.852,13.217,75.852S422.645,163.483,305.419,103.146z"/>
<path style="fill:#D9EDEC;" d="M329.333,162.601c-40.501-45.173-106.165-45.173-146.666,0
	c-12.907-14.396-25.814-28.791-38.721-43.189c61.886-69.027,162.223-69.027,224.109,0
	C355.147,133.808,342.24,148.204,329.333,162.601z"/>
<path style="fill:#BDD1CF;" d="M255.426,67.65v61.087c26.733-0.164,53.51,11.116,73.907,33.864
	c12.907-14.396,25.814-28.793,38.721-43.189C336.965,84.737,296.172,67.486,255.426,67.65z"/>
<g>
</g>
<g>
</g>
<g>
</g>
<g>
</g>
<g>
</g>
<g>
</g>
<g>
</g>
<g>
</g>
<g>
</g>
<g>
</g>
<g>
</g>
<g>
</g>
<g>
</g>
<g>
</g>
<g>
</g>
</svg>
