<?xml version="1.0" encoding="iso-8859-1"?>
<!-- Generator: Adobe Illustrator 19.0.0, SVG Export Plug-In . SVG Version: 6.00 Build 0)  -->
<svg version="1.1" id="Layer_1" xmlns="http://www.w3.org/2000/svg" xmlns:xlink="http://www.w3.org/1999/xlink" x="0px" y="0px"
	 viewBox="0 0 512 512" style="enable-background:new 0 0 512 512;" xml:space="preserve">
<circle style="fill:#FF5419;" cx="256" cy="256" r="256"/>
<path style="fill:#940030;" d="M507.599,303.418L320.705,116.524l-54.146,79.139L256.36,511.995
	C381.381,511.822,485.381,422.031,507.599,303.418z"/>
<rect x="213.333" y="273.791" style="fill:#FCD088;" width="85.333" height="85.333"/>
<rect x="256.293" y="273.791" style="fill:#DDAB62;" width="42.379" height="85.333"/>
<path style="fill:#535B68;" d="M357.764,360.5l-45.22-9.044l-7.992-11.666c-1.496-2.184-4.327-3.007-6.759-1.965l-0.217,0.093
	c-26.533,11.431-56.606,11.404-83.116-0.076l0,0c-2.415-1.053-5.239-0.262-6.754,1.893l-8.247,11.719l-45.22,9.044
	c-23.026,4.606-39.598,24.821-39.598,48.3v60.647C155.148,496.328,203.74,512,256,512s100.852-15.672,141.36-42.555v-60.647
	C397.36,385.319,380.787,365.104,357.764,360.5z"/>
<path style="fill:#333333;" d="M397.36,408.798c0-23.48-16.572-43.696-39.596-48.3l-45.22-9.044l-7.992-11.666
	c-1.496-2.184-4.327-3.007-6.759-1.965l-0.217,0.093c-13.178,5.677-27.231,8.521-41.286,8.547v165.529
	c52.148-0.057,100.638-15.717,141.072-42.549v-60.645H397.36z"/>
<path style="fill:#FFEDB5;" d="M349.394,212.737c0.467-4.33,0.712-8.599,0.712-12.764c0-55.074-42.132-99.719-94.106-99.719
	s-94.106,44.647-94.106,99.719c0,4.163,0.245,8.432,0.712,12.764c-9.128,2.372-13.471,16.415-9.699,31.444
	c3.784,15.076,14.3,25.428,23.486,23.123c0.836-0.21,1.619-0.548,2.372-0.946c17.006,34.133,45.254,61.826,77.234,61.826
	s60.228-27.693,77.234-61.826c0.755,0.396,1.536,0.736,2.372,0.946c9.187,2.307,19.703-8.045,23.486-23.123
	C362.865,229.152,358.522,215.109,349.394,212.737z"/>
<path style="fill:#E8CF89;" d="M349.394,212.737c0.467-4.33,0.712-8.599,0.712-12.764c0-54.97-41.979-99.545-93.818-99.711v227.914
	c31.861-0.165,59.992-27.788,76.947-61.819c0.755,0.396,1.536,0.736,2.372,0.946c9.187,2.307,19.703-8.045,23.486-23.123
	C362.865,229.152,358.522,215.109,349.394,212.737z"/>
<path style="fill:#D6D6D6;" d="M197.989,149.045c0,0-16.417,1.386-10.261,21.616s-10.114,76.078-10.114,76.078
	s-0.924-27.103-14.974-34.001c-14.05-6.896-3.825-119.913,93.358-119.913s107.41,113.016,93.358,119.913
	c-14.05,6.896-14.974,34.001-14.974,34.001s-16.27-55.848-10.114-76.078c6.156-20.228-10.261-21.616-10.261-21.616
	S260.141,169.5,197.989,149.045z"/>
<path style="fill:#ADADAD;" d="M256.288,92.829v65.295c34.051-0.107,57.723-9.08,57.723-9.08s16.417,1.386,10.261,21.616
	c-6.156,20.228,10.114,76.078,10.114,76.078s0.924-27.103,14.974-34.001C363.394,205.848,353.202,93.055,256.288,92.829z"/>
<path style="fill:#FFFFFF;" d="M266.559,345.948c-7.021,0.703-14.098,0.698-21.118-0.021v19.971h21.118V345.948z"/>
<path style="fill:#D3D3D3;" d="M266.559,345.948c-3.415,0.341-6.842,0.51-10.271,0.515v19.435h10.271V345.948z"/>
<g>
	<polygon style="fill:#FFFFFF;" points="277.118,432.269 263.327,432.269 263.327,417.185 248.673,417.185 248.673,432.269 
		234.882,432.269 234.882,445.63 248.673,445.63 248.673,488.727 263.327,488.727 263.327,445.63 277.118,445.63 	"/>
	<path style="fill:#FFFFFF;" d="M256,411.582c-44.098,0-83.291-20.163-99.854-51.367c-0.669-1.26-0.188-2.827,1.072-3.496
		c1.26-0.667,2.829-0.19,3.496,1.072c15.675,29.536,53.077,48.619,95.284,48.619s79.61-19.084,95.284-48.619
		c0.671-1.262,2.239-1.739,3.496-1.072c1.26,0.671,1.741,2.236,1.072,3.496C339.29,391.42,300.098,411.582,256,411.582z"/>
</g>
<g>
	<polygon style="fill:#D3D3D3;" points="263.327,432.269 263.327,417.185 256.288,417.185 256.288,488.727 263.327,488.727 
		263.327,445.63 277.118,445.63 277.118,432.269 	"/>
	<path style="fill:#D3D3D3;" d="M354.781,356.719c-1.257-0.667-2.827-0.19-3.496,1.072c-15.639,29.468-52.908,48.528-94.996,48.616
		v5.172c43.98-0.088,83.039-20.227,99.566-51.362C356.523,358.955,356.042,357.388,354.781,356.719z"/>
</g>
<g>
</g>
<g>
</g>
<g>
</g>
<g>
</g>
<g>
</g>
<g>
</g>
<g>
</g>
<g>
</g>
<g>
</g>
<g>
</g>
<g>
</g>
<g>
</g>
<g>
</g>
<g>
</g>
<g>
</g>
</svg>
