<?xml version="1.0" encoding="iso-8859-1"?>
<!-- Generator: Adobe Illustrator 19.0.0, SVG Export Plug-In . SVG Version: 6.00 Build 0)  -->
<svg version="1.1" id="Layer_1" xmlns="http://www.w3.org/2000/svg" xmlns:xlink="http://www.w3.org/1999/xlink" x="0px" y="0px"
	 viewBox="0 0 512 512" style="enable-background:new 0 0 512 512;" xml:space="preserve">
<circle style="fill:#FF7F4F;" cx="256" cy="256" r="256"/>
<path style="fill:#EA4113;" d="M317.74,504.487C429.296,476.86,512,376.096,512,256c0-14.946-1.295-29.589-3.753-43.835
	L387.781,89.028l-21.737,23.242c-78.091,0-236.284,3.448-240.773,3.448l148.463,152.845l-72.176,119.744L317.74,504.487z"/>
<rect x="213.333" y="292.219" style="fill:#FCD088;" width="85.333" height="85.333"/>
<rect x="256.293" y="292.219" style="fill:#DDAB62;" width="42.379" height="85.333"/>
<g>
	<path style="fill:#D9EDEC;" d="M357.764,360.5l-45.22-9.044l-7.992-11.666c-1.496-2.184-4.327-3.007-6.759-1.965L256,355.83
		l-41.543-17.987c-2.415-1.053-5.239-0.262-6.754,1.893l-8.247,11.719l-45.22,9.044c-23.024,4.606-39.596,24.821-39.596,48.3v60.647
		C155.148,496.328,203.74,512,256,512c44.166,0,85.721-11.185,121.985-30.877c6.644-4.113,13.107-8.32,19.375-12.514V408.8
		C397.36,385.319,380.788,365.104,357.764,360.5z"/>
	<path style="fill:#D9EDEC;" d="M256,355.83l-41.543-17.987c-2.415-1.053-5.239-0.262-6.754,1.893l-8.247,11.719l-45.22,9.044
		c-23.024,4.606-39.596,24.821-39.596,48.3v60.647C155.148,496.328,203.74,512,256,512c0.097,0,0.191-0.005,0.288-0.005V355.706
		L256,355.83z"/>
</g>
<path style="fill:#B8D3D1;" d="M357.764,360.5l-45.22-9.044l-7.992-11.666c-1.496-2.184-4.327-3.007-6.759-1.965l-41.503,17.88
	v156.289c44.06-0.048,85.513-11.224,121.697-30.873c6.644-4.113,13.107-8.32,19.375-12.514v-59.809
	C397.36,385.319,380.788,365.104,357.764,360.5z"/>
<path style="fill:#FFEDB5;" d="M347.531,205.44c0.459-4.244,0.698-8.428,0.698-12.509c0-53.974-41.293-97.728-92.229-97.728
	s-92.229,43.753-92.229,97.728c0,4.08,0.24,8.264,0.698,12.509c-8.945,2.326-13.202,16.087-9.506,30.817
	c3.708,14.776,14.014,24.921,23.018,22.661c0.821-0.205,1.586-0.538,2.326-0.927c16.667,33.452,44.351,60.594,75.693,60.594
	s59.027-27.139,75.693-60.594c0.74,0.39,1.505,0.722,2.326,0.927c9.004,2.26,19.309-7.885,23.018-22.661
	C360.732,221.527,356.476,207.763,347.531,205.44z"/>
<path style="fill:#E8CF89;" d="M347.531,205.44c0.459-4.244,0.698-8.428,0.698-12.509c0-53.872-41.138-97.556-91.941-97.721v223.365
	c31.223-0.167,58.79-27.236,75.405-60.585c0.74,0.39,1.505,0.722,2.326,0.927c9.004,2.26,19.309-7.885,23.018-22.661
	C360.732,221.527,356.476,207.763,347.531,205.44z"/>
<path style="fill:#444444;" d="M341.795,200.097c-1.684-1.684-4.411-1.684-6.094,0l-20.635,20.633
	c-5.185-7.994-16.977-8.004-22.793-8.004c-6.192,0-23.283,0.01-27.87,11.381h-20.247c-4.589-11.369-21.678-11.381-27.87-11.381
	c-5.816,0-17.608,0.01-22.793,8.004l-20.635-20.633c-1.684-1.684-4.411-1.684-6.094,0s-1.684,4.413,0,6.094l24.183,24.181
	c0,0.028-0.002,0.052-0.002,0.079c0,14.722,7.651,23.166,20.99,23.166c13.186,0,31.287-7.89,33.206-20.892h18.284
	c1.907,13.105,20.016,21.059,33.208,21.059c13.34,0,20.99-8.506,20.99-23.333c0-0.028-0.002-0.052-0.002-0.079l24.183-24.181
	C343.48,204.51,343.48,201.781,341.795,200.097z M211.928,245c-5.76,0-12.371-1.653-12.371-14.546c0-6.039,2.586-9.106,16.724-9.106
	c18.089,0,20.409,4.867,20.409,9.106C236.691,238.752,221.668,245,211.928,245z M296.626,245.167
	c-9.74,0-24.762-6.318-24.762-14.714c0-4.239,2.32-9.106,20.409-9.106c14.138,0,16.724,3.067,16.724,9.106
	C308.996,243.641,301.935,245.167,296.626,245.167z"/>
<path style="fill:#333333;" d="M341.795,200.097c-1.684-1.684-4.411-1.684-6.094,0l-20.635,20.633
	c-5.185-7.994-16.977-8.004-22.793-8.004c-6.192,0-23.283,0.01-27.87,11.381h-8.113v8.62h7.13
	c1.907,13.105,20.016,21.059,33.208,21.059c13.34,0,20.99-8.506,20.99-23.333c0-0.028-0.002-0.052-0.002-0.079l24.183-24.181
	C343.48,204.51,343.48,201.781,341.795,200.097z M296.626,245.167c-9.74,0-24.762-6.318-24.762-14.714
	c0-4.239,2.32-9.106,20.409-9.106c14.138,0,16.724,3.067,16.724,9.106C308.996,243.641,301.935,245.167,296.626,245.167z"/>
<path style="fill:#B7CECC;" d="M300.68,401.291L256,356.752l-44.68,44.539l-11.864-49.836l-14.567,2.395l11.667,151.199
	C215.635,509.585,235.534,512,256,512c25.512,0,50.147-3.749,73.399-10.699l-2.296-147.453l-14.558-2.395L300.68,401.291z"/>
<path style="fill:#9AB2AF;" d="M327.102,353.849l-14.558-2.395l-11.864,49.836l-44.392-44.253v154.955
	c25.409-0.028,49.945-3.772,73.111-10.693L327.102,353.849z"/>
<path style="fill:#494948;" d="M162.047,189.918c0,0,1.724,18.963,6.034,30.456l8.045-0.288c0,0-2.012-15.515,14.941-31.318
	S162.047,189.918,162.047,189.918z"/>
<path style="fill:#333333;" d="M349.953,189.918c0,0-1.724,18.963-6.034,30.456l-8.045-0.288c0,0,2.012-15.515-14.941-31.318
	S349.953,189.918,349.953,189.918z"/>
<path style="fill:#273B7A;" d="M358.384,360.108l-31.282-6.261l-30.77,154.979c37.247-5.896,71.818-19.82,101.888-39.95v-60.173
	C398.222,385.081,381.549,364.742,358.384,360.108z"/>
<path style="fill:#366695;" d="M153.616,360.108l31.273-6.261l30.777,154.979c-37.247-5.896-71.818-19.82-101.888-39.95v-60.173
	C113.778,385.081,130.451,364.742,153.616,360.108z"/>
<g>
	<path style="fill:#494948;" d="M237.323,375.513l10.488,13.478v122.864c2.72,0.086,5.448,0.143,8.189,0.143
		c2.741,0,5.468-0.059,8.189-0.143V388.991l10.488-13.478L256,356.752L237.323,375.513z"/>
	<path style="fill:#494948;" d="M256.288,357.042v154.953c2.643-0.003,5.275-0.057,7.901-0.138V388.992l10.488-13.477
		L256.288,357.042z"/>
	<path style="fill:#494948;" d="M256,356.752l-18.677,18.761l10.488,13.478v122.864c2.72,0.086,5.448,0.143,8.189,0.143
		c0.097,0,0.191-0.005,0.288-0.005V357.04L256,356.752z"/>
</g>
<rect x="160.323" y="111.963" style="fill:#273B7A;" width="191.354" height="84.661"/>
<rect x="256.293" y="111.963" style="fill:#121149;" width="95.384" height="84.661"/>
<path style="fill:#263A7A;" d="M376.53,213.549c-1.903,0-3.448-1.545-3.448-3.448v-97.832c0-1.903,1.545-3.448,3.448-3.448
	s3.448,1.545,3.448,3.448v97.832C379.978,212.004,378.435,213.549,376.53,213.549z"/>
<path style="fill:#FFC61B;" d="M380.719,246.038h-8.376c-2.846,0-5.082-2.438-4.836-5.273l2.736-31.565
	c0.217-2.508,2.317-4.434,4.836-4.434h2.905c2.519,0,4.618,1.926,4.836,4.434l2.736,31.565
	C385.801,243.6,383.566,246.038,380.719,246.038z"/>
<path style="fill:#386895;" d="M383.138,117.226H128.862c-3.57,0-6.465-2.894-6.465-6.465V93.522c0-3.57,2.894-6.465,6.465-6.465
	h254.276c3.57,0,6.465,2.894,6.465,6.465v17.239C389.603,114.331,386.71,117.226,383.138,117.226z"/>
<path style="fill:#273B7A;" d="M383.138,87.057h-126.85v30.168h126.85c3.57,0,6.465-2.894,6.465-6.465V93.522
	C389.603,89.952,386.71,87.057,383.138,87.057z"/>
<g>
</g>
<g>
</g>
<g>
</g>
<g>
</g>
<g>
</g>
<g>
</g>
<g>
</g>
<g>
</g>
<g>
</g>
<g>
</g>
<g>
</g>
<g>
</g>
<g>
</g>
<g>
</g>
<g>
</g>
</svg>
