<?xml version="1.0" encoding="iso-8859-1"?>
<!-- Generator: Adobe Illustrator 19.0.0, SVG Export Plug-In . SVG Version: 6.00 Build 0)  -->
<svg version="1.1" id="Layer_1" xmlns="http://www.w3.org/2000/svg" xmlns:xlink="http://www.w3.org/1999/xlink" x="0px" y="0px"
	 viewBox="0 0 512.002 512.002" style="enable-background:new 0 0 512.002 512.002;" xml:space="preserve">
<circle style="fill:#366695;" cx="256.001" cy="256" r="256"/>
<path style="fill:#273B7A;" d="M236.093,283.582l55.058,226.004c113.833-15.634,203.804-106.091,218.679-220.163L327.136,106.729
	L236.093,283.582z"/>
<rect x="213.334" y="292.219" style="fill:#FCD088;" width="85.333" height="104.296"/>
<rect x="255.432" y="292.219" style="fill:#DDAB62;" width="43.236" height="104.296"/>
<path style="fill:#9AA07F;" d="M370.692,365.671l-50.964-9.044l-9.007-11.666c-1.686-2.184-4.875-3.007-7.618-1.965l-47.101,47.497
	l-46.82-47.48c-2.722-1.053-5.904-0.262-7.613,1.893l-9.295,11.719l-50.964,9.044c-25.948,4.605-44.627,24.819-44.627,48.3v42.408
	C140.406,491.187,195.769,512,256.001,512s115.595-20.813,159.318-55.622V413.97C415.319,390.491,396.641,370.276,370.692,365.671z"
	/>
<path style="fill:#85896A;" d="M370.692,365.671l-50.964-9.044l-9.007-11.666c-1.686-2.184-4.875-3.007-7.618-1.965l-47.101,47.497
	l-0.576-0.583v122.084c0.191,0,0.383,0.007,0.574,0.007c60.232,0,115.595-20.813,159.318-55.622v-42.408
	C415.319,390.491,396.641,370.276,370.692,365.671z"/>
<path style="fill:#FFEDB5;" d="M347.532,205.44c0.459-4.244,0.698-8.428,0.698-12.509c0-53.974-41.293-97.728-92.229-97.728
	s-92.229,43.754-92.229,97.728c0,4.08,0.24,8.264,0.698,12.509c-8.945,2.326-13.202,16.087-9.506,30.817
	c3.708,14.776,14.014,24.921,23.018,22.661c0.821-0.205,1.586-0.538,2.326-0.927c16.667,33.452,44.351,60.594,75.693,60.594
	s59.027-27.139,75.693-60.594c0.74,0.39,1.505,0.722,2.326,0.927c9.004,2.26,19.309-7.885,23.018-22.661
	C360.735,221.527,356.479,207.763,347.532,205.44z"/>
<path style="fill:#E8CF89;" d="M347.532,205.44c0.459-4.244,0.698-8.428,0.698-12.509c0-53.974-41.293-97.728-92.229-97.728
	c-0.193,0-0.383,0.014-0.574,0.016v223.349c0.191,0.002,0.383,0.016,0.574,0.016c31.342,0,59.027-27.139,75.693-60.592
	c0.74,0.39,1.505,0.721,2.326,0.927c9.004,2.26,19.309-7.885,23.018-22.661C360.735,221.527,356.479,207.763,347.532,205.44z"/>
<path style="fill:#494948;" d="M162.048,189.918c0,0,1.724,18.963,6.034,30.456l8.045-0.288c0,0-2.012-15.515,14.941-31.318
	S162.048,189.918,162.048,189.918z"/>
<path style="fill:#333333;" d="M349.954,189.918c0,0-1.724,18.963-6.034,30.456l-8.045-0.288c0,0,2.012-15.515-14.941-31.318
	C303.981,172.965,349.954,189.918,349.954,189.918z"/>
<path style="fill:#BEC1AA;" d="M348.876,186.851H163.125v-28.251c0-40.186,32.577-72.763,72.763-72.763h40.226
	c40.186,0,72.763,32.577,72.763,72.763V186.851z"/>
<path style="fill:#9DA087;" d="M348.876,158.599c0-40.186-32.577-72.763-72.763-72.763h-20.687v101.014h93.449V158.599z"/>
<path style="fill:#9AA07F;" d="M256.001,161.12c-37.852,0-72.152,9.969-97.196,26.124c-1.915,1.236-1.086,4.31,1.167,4.31h192.057
	c2.253,0,3.082-3.074,1.167-4.31C328.155,171.089,293.854,161.12,256.001,161.12z"/>
<g>
	<path style="fill:#85896A;" d="M353.198,187.244c-25.043-16.155-59.344-26.124-97.196-26.124c-0.193,0-0.383,0.009-0.574,0.009
		v30.423h96.603C354.282,191.553,355.113,188.48,353.198,187.244z"/>
	<path style="fill:#85896A;" d="M137.627,427.529c36.49-6.608,64.072-4.884,44.534-14.365s-52.005-0.288-76.714-8.045
		c-2.65-0.831-5.12-1.438-7.437-1.876c-0.871,3.465-1.327,7.058-1.327,10.73v12.279C107.452,428.89,121.562,430.439,137.627,427.529
		z"/>
	<path style="fill:#85896A;" d="M187.333,439.308c0,0,33.904-12.641,74.128,1.15c26.322,9.025,50.307,8.945,63.743,7.811
		c2.043-0.172,2.71,2.67,0.805,3.429c-13.491,5.38-39.483,12.786-74.604,9.159c-40.553-4.187-85.669-2.796-104.488-1.92
		c-1.953,0.091-2.605-2.576-0.831-3.394C155.964,450.981,173.04,443.502,187.333,439.308z"/>
</g>
<g>
	<path style="fill:#6E7052;" d="M325.204,448.269c-13.434,1.133-37.419,1.214-63.743-7.811c-2.031-0.696-4.039-1.308-6.034-1.874
		v22.618c33.071,2.682,57.615-4.332,70.582-9.502C327.912,450.939,327.245,448.097,325.204,448.269z"/>
	<path style="fill:#6E7052;" d="M329.674,478.651c-35.121-3.627-61.112,3.779-74.604,9.159c-1.903,0.759-1.236,3.601,0.805,3.429
		c13.434-1.133,37.419-1.214,63.743,7.811c2.924,1.003,5.808,1.85,8.654,2.588c17.23-5.065,33.704-11.89,49.216-20.273
		C362.081,481.07,345.532,480.287,329.674,478.651z"/>
</g>
<g>
	<path style="fill:#85896A;" d="M201.498,396.991c0,0-17.73,6.611-38.767-0.602c-13.765-4.72-26.31-4.679-33.335-4.086
		c-1.067,0.09-1.417-1.396-0.421-1.793c7.056-2.813,20.649-6.687,39.015-4.791c21.207,2.189,44.803,1.462,54.644,1.005
		c1.021-0.048,1.362,1.346,0.434,1.776C217.903,390.887,208.973,394.799,201.498,396.991z"/>
	<path style="fill:#85896A;" d="M233.821,481.894c0,0-17.73,6.611-38.767-0.602c-13.765-4.72-26.31-4.679-33.335-4.086
		c-1.067,0.09-1.417-1.396-0.421-1.793c7.056-2.813,20.649-6.687,39.015-4.791c21.207,2.189,44.803,1.462,54.644,1.005
		c1.021-0.048,1.362,1.346,0.434,1.776C250.226,475.789,241.296,479.701,233.821,481.894z"/>
</g>
<path style="fill:#6E7052;" d="M415.319,425.482c-10.209-1.991-22.883-5.03-34.621-9.445c-12.778-4.806-30.487-11.89-46.545-9.194
	c-25.574,4.294-63.21-9.194-69.53-2.874c-6.322,6.322-1.724,22.411,26.433,20.399c28.157-2.012,53.729,4.022,78.15,12.067
	c13.374,4.406,31.996,1.658,46.114-1.729L415.319,425.482L415.319,425.482z"/>
<path style="fill:#BEC1AA;" d="M256.001,390.608l-43.973-51.053c-1.872-2.007-5.26-2.003-7.127,0.007l-16.994,19.299l36.664,52.707
	c3.053,4.472,10.119,4.596,13.357,0.233L256.001,390.608z"/>
<path style="fill:#9DA087;" d="M256.001,390.608l43.973-51.053c1.872-2.007,5.26-2.003,7.127,0.007l16.994,19.297l-36.664,52.707
	c-3.053,4.472-10.119,4.596-13.357,0.233L256.001,390.608z"/>
<g>
</g>
<g>
</g>
<g>
</g>
<g>
</g>
<g>
</g>
<g>
</g>
<g>
</g>
<g>
</g>
<g>
</g>
<g>
</g>
<g>
</g>
<g>
</g>
<g>
</g>
<g>
</g>
<g>
</g>
</svg>
