<?xml version="1.0" encoding="iso-8859-1"?>
<!-- Generator: Adobe Illustrator 19.0.0, SVG Export Plug-In . SVG Version: 6.00 Build 0)  -->
<svg version="1.1" id="Layer_1" xmlns="http://www.w3.org/2000/svg" xmlns:xlink="http://www.w3.org/1999/xlink" x="0px" y="0px"
	 viewBox="0 0 512 512" style="enable-background:new 0 0 512 512;" xml:space="preserve">
<circle style="fill:#71E2EF;" cx="256" cy="256" r="256"/>
<path style="fill:#38C6D9;" d="M230.141,413.449l57.763,96.573c110.864-13.784,199.72-98.451,219.813-207.231L325.841,120.913
	L230.141,413.449z"/>
<path style="fill:#51331E;" d="M166.933,211.178c0,0-0.574,95.965,48.269,161.473H296.8c0,0,41.948-49.419,37.926-119.524
	C330.704,183.022,166.933,211.178,166.933,211.178z"/>
<path style="fill:#3F2717;" d="M334.726,253.126c-1.898-33.087-39.383-44.282-78.438-46.883v166.409H296.8
	C296.8,372.652,338.747,323.232,334.726,253.126z"/>
<rect x="214.626" y="295.253" style="fill:#FCD088;" width="82.747" height="101.136"/>
<rect x="256.293" y="295.253" style="fill:#DDAB62;" width="41.086" height="101.136"/>
<path style="fill:#FFEDB5;" d="M347.529,205.44c0.459-4.244,0.698-8.428,0.698-12.509c0-53.974-41.293-97.728-92.229-97.728
	s-92.229,43.754-92.229,97.728c0,4.08,0.24,8.264,0.698,12.509c-8.945,2.326-13.202,16.087-9.506,30.817
	c3.708,14.776,14.014,24.921,23.018,22.661c0.821-0.205,1.586-0.538,2.326-0.927c16.667,33.452,44.351,60.594,75.693,60.594
	s59.027-27.139,75.693-60.594c0.74,0.39,1.505,0.722,2.326,0.927c9.004,2.26,19.309-7.885,23.018-22.661
	C360.732,221.527,356.476,207.763,347.529,205.44z"/>
<path style="fill:#E8CF89;" d="M347.529,205.44c0.459-4.244,0.698-8.428,0.698-12.509c0-53.872-41.138-97.556-91.941-97.721v223.365
	c31.223-0.167,58.79-27.236,75.405-60.585c0.74,0.39,1.505,0.722,2.326,0.927c9.004,2.26,19.309-7.885,23.018-22.661
	C360.732,221.527,356.476,207.763,347.529,205.44z"/>
<path style="fill:#273B7A;" d="M216.064,373.944c0,0,34.766,24.423,84.471,0l-44.822,115.79L216.064,373.944z"/>
<path style="fill:#121149;" d="M256.288,386.939v103.464l44.247-114.305C283.848,384.298,268.857,386.977,256.288,386.939z"/>
<path style="fill:#366695;" d="M357.762,361.951l-45.22-9.044l-7.992-11.666c-1.496-2.184-4.327-3.007-6.759-1.965l-41.793,140.255
	l-41.543-140.238c-2.415-1.053-5.239-0.262-6.754,1.893l-8.247,11.719l-45.22,9.044c-23.023,4.605-39.596,24.821-39.596,48.3v59.194
	C155.148,496.326,203.74,512,256,512c52.258,0,100.85-15.672,141.359-42.555V410.25
	C397.359,386.772,380.787,366.556,357.762,361.951z"/>
<path style="fill:#273B7A;" d="M397.359,410.252c0-23.48-16.574-43.696-39.596-48.3l-45.22-9.044l-7.992-11.666
	c-1.496-2.184-4.327-3.007-6.759-1.965l-41.503,139.286v33.43c52.148-0.057,100.638-15.717,141.072-42.548v-59.194H397.359z"/>
<path style="fill:#6D462B;" d="M224.396,151.992c0,0,118.949,32.18,97.689,167.219c0,0,83.322-70.106,16.665-180.436
	c-52.191-86.385-157.449-54.015-164.345-9.194c0,0-24.466,16.103-9.933,75.859C164.467,205.44,201.411,194.513,224.396,151.992z"/>
<path style="fill:#5E3B24;" d="M338.747,138.774c-21.88-36.214-53.084-51.55-82.46-53.855v81.505
	c33.551,20.07,79.713,64.388,65.796,152.786C322.084,319.21,405.406,249.104,338.747,138.774z"/>
<path style="fill:#FFC61B;" d="M369.464,415.03h-26.786c-1.426-5.842-4.57-9.912-8.232-9.912s-6.806,4.07-8.232,9.912h-26.786v7.111
	h6.896v5.818h8.404v5.818h13.212c1.646,3.184,3.949,5.172,6.506,5.172c2.555,0,4.86-1.988,6.504-5.172h13.212v-5.818h8.404v-5.818
	h6.896v-7.111H369.464z"/>
<path style="fill:#FFFFFF;" d="M257.172,389.791c-22.095,0-43.939-10.271-65.002-30.586c-2.184-2.103-2.246-5.579-0.141-7.761
	c2.108-2.186,5.582-2.243,7.761-0.141c20.211,19.49,40.848,28.722,61.281,27.381c30.41-1.962,50.46-26.61,50.66-26.86
	c1.898-2.365,5.348-2.75,7.716-0.858c2.367,1.895,2.751,5.348,0.859,7.716c-0.936,1.171-23.33,28.688-58.525,30.958
	C260.244,389.741,258.705,389.791,257.172,389.791z"/>
<path style="fill:#CCCCCC;" d="M319.447,350.966c-2.367-1.893-5.818-1.508-7.716,0.859c-0.198,0.248-20.249,24.897-50.66,26.86
	c-1.588,0.103-3.175,0.121-4.767,0.098v10.983c0.29,0.003,0.578,0.026,0.867,0.026c1.533,0,3.072-0.05,4.606-0.148
	c35.195-2.27,57.589-29.787,58.525-30.958C322.198,356.316,321.815,352.861,319.447,350.966z"/>
<path style="fill:#DDDDDD;" d="M230.51,376.246l-11.879-1.321c0,0-0.036,0.062-0.09,0.153l-3.574-5.301
	c0,0-40.16,6.639-53.769,46.466c0,0,30.892,3.256,51.64-14.705c0.443,6.096,2.181,12.774,6.206,19.522
	C219.045,421.062,241.309,399.822,230.51,376.246z"/>
<circle style="fill:#CECECE;" cx="225.694" cy="370.416" r="14.007"/>
<g>
</g>
<g>
</g>
<g>
</g>
<g>
</g>
<g>
</g>
<g>
</g>
<g>
</g>
<g>
</g>
<g>
</g>
<g>
</g>
<g>
</g>
<g>
</g>
<g>
</g>
<g>
</g>
<g>
</g>
</svg>
