<?xml version="1.0" encoding="iso-8859-1"?>
<!-- Generator: Adobe Illustrator 19.0.0, SVG Export Plug-In . SVG Version: 6.00 Build 0)  -->
<svg version="1.1" id="Layer_1" xmlns="http://www.w3.org/2000/svg" xmlns:xlink="http://www.w3.org/1999/xlink" x="0px" y="0px"
	 viewBox="0 0 512.002 512.002" style="enable-background:new 0 0 512.002 512.002;" xml:space="preserve">
<circle style="fill:#FFC61B;" cx="256.001" cy="256" r="256"/>
<path style="fill:#D48B07;" d="M329.298,108.853L150.469,261.394l95.23,95.23l-46.587,122.909l4.305,27.05
	c16.972,3.544,34.559,5.417,52.583,5.417c130.067,0,237.471-97.004,253.833-222.611L329.298,108.853z"/>
<rect x="213.334" y="292.219" style="fill:#3F444C;" width="85.333" height="104.296"/>
<rect x="255.432" y="292.219" style="fill:#2A2F35;" width="43.236" height="104.296"/>
<path style="fill:#2B3344;" d="M370.692,365.671l-50.964-9.044l-9.007-11.666c-1.686-2.184-4.875-3.007-7.618-1.965l-10.84,10.931
	c-19.961,20.128-52.515,20.083-72.42-0.102l-10.662-10.812c-2.722-1.053-5.904-0.262-7.613,1.893l-9.295,11.719l-50.964,9.044
	c-25.948,4.605-44.627,24.819-44.627,48.3v42.408C140.406,491.187,195.769,512,256.001,512s115.595-20.813,159.318-55.622V413.97
	C415.319,390.491,396.641,370.276,370.692,365.671z"/>
<path style="fill:#212733;" d="M370.692,365.671l-50.964-9.044l-9.007-11.666c-1.686-2.184-4.875-3.007-7.618-1.965l-10.84,10.931
	c-10.133,10.219-23.512,15.227-36.835,15.051v143.015c0.191,0,0.381,0.007,0.574,0.007c60.232,0,115.595-20.813,159.318-55.622
	v-42.408C415.319,390.491,396.641,370.276,370.692,365.671z"/>
<g>
	<path style="fill:#494948;" d="M162.048,189.918c0,0,1.724,18.963,6.034,30.456l8.045-0.288c0,0-2.012-15.515,14.941-31.318
		S162.048,189.918,162.048,189.918z"/>
	<path style="fill:#494948;" d="M349.954,189.918c0,0-1.724,18.963-6.034,30.456l-8.045-0.288c0,0,2.012-15.515-14.941-31.318
		C303.981,172.965,349.954,189.918,349.954,189.918z"/>
</g>
<path style="fill:#474E5B;" d="M355.987,188.426v-14.439c0-51.293-41.582-92.875-92.875-92.875H248.89
	c-51.293,0-92.875,41.582-92.875,92.875v14.439c-6.482,0.846-11.492,6.378-11.492,13.091v48.843c0,7.299,5.918,13.217,13.217,13.217
	h7.47c3.898,0,7.39-1.698,9.809-4.38c0.996,0.036,1.988-0.036,2.963-0.281c0.821-0.205,1.586-0.538,2.326-0.927
	c16.667,33.452,44.351,60.592,75.693,60.592s59.027-27.139,75.693-60.592c0.74,0.39,1.505,0.721,2.326,0.927
	c0.976,0.245,1.969,0.317,2.963,0.281c2.419,2.684,5.911,4.38,9.809,4.38h7.47c7.299,0,13.217-5.916,13.217-13.217v-48.843
	C367.481,194.803,362.471,189.273,355.987,188.426z"/>
<path style="fill:#363C47;" d="M355.987,188.426v-14.439c0-51.293-41.582-92.875-92.875-92.875h-7.685v237.454
	c0.191,0.002,0.383,0.016,0.574,0.016c31.342,0,59.027-27.139,75.693-60.592c0.74,0.39,1.505,0.721,2.326,0.927
	c0.976,0.245,1.969,0.317,2.963,0.281c2.419,2.684,5.911,4.38,9.809,4.38h7.47c7.299,0,13.217-5.916,13.217-13.217v-48.843
	C367.481,194.803,362.471,189.273,355.987,188.426z"/>
<path style="fill:#71E2EF;" d="M256.001,222.894c8.542,0,5.435,20.964,13.588,26.4c8.152,5.435,34.066,10.093,55.42,10.871
	c21.354,0.777,32.322-60.954,12.521-65.612c-19.801-4.658-60.992-10.093-81.53-10.093s-61.73,5.435-81.53,10.093
	c-19.801,4.658-8.832,66.388,12.521,65.612s47.266-5.435,55.42-10.871C250.567,243.86,247.461,222.894,256.001,222.894z"/>
<path style="fill:#38C6D9;" d="M337.531,194.553c-19.799-4.658-60.992-10.093-81.529-10.093c-0.186,0-0.384,0.003-0.574,0.003
	v38.476c0.188-0.022,0.374-0.045,0.574-0.045c8.542,0,5.435,20.964,13.588,26.4c8.152,5.435,34.066,10.093,55.42,10.871
	C346.363,260.942,357.332,199.213,337.531,194.553z"/>
<path style="fill:#272935;" d="M325.435,266.207c-0.214,0-0.428-0.005-0.643-0.012c-21.176-0.771-48.866-5.423-58.549-11.881
	c-5.892-3.927-7.539-11.431-8.994-18.051c-0.322-1.462-0.765-3.484-1.248-5.13c-0.481,1.645-0.926,3.668-1.248,5.13
	c-1.455,6.62-3.101,14.122-8.994,18.051c-9.683,6.456-37.373,11.109-58.549,11.881c-15.794,0.493-25.848-20.132-28.469-39.614
	c-2.777-20.644,2.72-35.166,14.345-37.902c19.737-4.644,61.123-10.254,82.913-10.254s63.174,5.61,82.913,10.254
	c11.624,2.736,17.124,17.26,14.345,37.902C350.674,245.8,340.884,266.207,325.435,266.207z M256.003,216.86
	c9.342,0,11.474,9.719,13.034,16.817c0.821,3.731,2.057,9.369,3.901,10.597c6.727,4.486,31.163,9.092,52.293,9.861
	c0.053,0.003,0.109,0.003,0.165,0.003c6.403,0,13.803-13.529,15.906-29.165c1.905-14.158-1.122-23.597-5.149-24.545
	c-19.001-4.472-59.718-9.935-80.148-9.935s-61.147,5.463-80.148,9.935c-4.027,0.948-7.056,10.387-5.149,24.545
	c2.103,15.636,9.504,29.165,15.906,29.165c0.055,0,0.109,0,0.165-0.003c21.13-0.767,45.566-5.375,52.293-9.861
	c1.843-1.229,3.081-6.866,3.901-10.597C244.527,226.58,246.661,216.86,256.003,216.86z"/>
<path style="fill:#212733;" d="M338.914,188.68c-19.737-4.644-61.123-10.254-82.913-10.254c-0.186,0-0.384,0.003-0.574,0.003v12.067
	c0.19,0,0.388-0.005,0.574-0.005c20.432,0,61.147,5.463,80.148,9.935c4.027,0.948,7.056,10.387,5.149,24.545
	c-2.103,15.636-9.504,29.165-15.906,29.165c-0.055,0-0.11,0-0.165-0.003c-21.13-0.767-45.566-5.375-52.293-9.861
	c-1.843-1.229-3.081-6.866-3.901-10.597c-1.558-7.097-3.693-16.817-13.034-16.817c-0.2,0-0.379,0.029-0.574,0.038v16.425
	c0.181-0.75,0.374-1.503,0.574-2.189c0.481,1.645,0.926,3.668,1.248,5.13c1.455,6.62,3.101,14.122,8.994,18.051
	c9.683,6.456,37.373,11.109,58.549,11.881c0.215,0.007,0.429,0.012,0.643,0.012c15.45,0,25.241-20.408,27.826-39.624
	C356.037,205.939,350.538,191.416,338.914,188.68z"/>
<g>
	<path style="fill:#474E5B;" d="M343.346,496.704c9.063-3.289,17.88-7.085,26.433-11.336V358.859l-26.433-5.746L343.346,496.704
		L343.346,496.704z"/>
	<path style="fill:#474E5B;" d="M142.223,485.369c8.552,4.251,17.37,8.045,26.433,11.335V353.113l-26.433,5.747V485.369z"/>
</g>
<g>
</g>
<g>
</g>
<g>
</g>
<g>
</g>
<g>
</g>
<g>
</g>
<g>
</g>
<g>
</g>
<g>
</g>
<g>
</g>
<g>
</g>
<g>
</g>
<g>
</g>
<g>
</g>
<g>
</g>
</svg>
