<?xml version="1.0" encoding="iso-8859-1"?>
<!-- Generator: Adobe Illustrator 19.0.0, SVG Export Plug-In . SVG Version: 6.00 Build 0)  -->
<svg version="1.1" id="Layer_1" xmlns="http://www.w3.org/2000/svg" xmlns:xlink="http://www.w3.org/1999/xlink" x="0px" y="0px"
	 viewBox="0 0 512 512" style="enable-background:new 0 0 512 512;" xml:space="preserve">
<circle style="fill:#FF6262;" cx="256" cy="256" r="256"/>
<path style="fill:#FF0F27;" d="M220.738,380.195l110.787,120.475c99.09-30.553,172.492-119.643,179.852-226.892L365.623,110.685
	L220.738,380.195z"/>
<rect x="213.333" y="292.219" style="fill:#FCD088;" width="85.333" height="93.522"/>
<rect x="256.293" y="292.219" style="fill:#DDAB62;" width="42.379" height="93.522"/>
<path style="fill:#172956;" d="M360.867,358.541l-46.599-9.319l-8.235-12.021c-1.541-2.25-4.458-3.098-6.966-2.026l-7.999,7.985
	c-19.361,19.328-50.731,19.285-70.039-0.098l-7.839-7.868c-2.489-1.084-5.398-0.271-6.961,1.95l-8.499,12.076l-46.599,9.319
	c-23.723,4.748-40.801,25.579-40.801,49.774v58.206C151.681,495.187,201.873,512,256,512s104.319-16.813,145.67-45.48v-58.206
	C401.67,384.119,384.591,363.287,360.867,358.541z"/>
<path style="fill:#121149;" d="M401.67,408.314c0-24.195-17.079-45.027-40.803-49.773l-46.599-9.319l-8.235-12.021
	c-1.541-2.25-4.458-3.098-6.966-2.026l-7.999,7.985c-9.614,9.599-22.19,14.414-34.78,14.462v154.374
	c54.017-0.06,104.103-16.862,145.382-45.477V408.314z"/>
<path style="fill:#6D4711;" d="M314.268,349.222l46.599,9.319c23.724,4.746,40.803,25.578,40.803,49.773v58.206
	C360.319,495.187,310.127,512,256,512s-104.319-16.813-145.67-45.48v-58.206c0-24.195,17.079-45.027,40.803-49.773l46.599-9.319
	l58.125,153.728L314.268,349.222z"/>
<path style="fill:#56340C;" d="M401.67,408.314c0-24.195-17.079-45.027-40.803-49.773l-46.599-9.319l-57.98,152.593v10.181
	c54.017-0.06,104.103-16.862,145.382-45.477V408.314z"/>
<path style="fill:#FFEDB5;" d="M347.531,205.44c0.459-4.244,0.698-8.428,0.698-12.509c0-53.974-41.293-97.728-92.229-97.728
	s-92.229,43.753-92.229,97.728c0,4.08,0.24,8.264,0.698,12.509c-8.945,2.326-13.202,16.087-9.506,30.817
	c3.708,14.776,14.014,24.921,23.018,22.661c0.821-0.205,1.586-0.538,2.326-0.927c16.667,33.452,44.351,60.594,75.693,60.594
	s59.027-27.139,75.693-60.594c0.74,0.39,1.505,0.722,2.326,0.927c9.004,2.26,19.309-7.885,23.018-22.661
	C360.732,221.527,356.476,207.763,347.531,205.44z"/>
<path style="fill:#E8CF89;" d="M347.531,205.44c0.459-4.244,0.698-8.428,0.698-12.509c0-53.872-41.138-97.554-91.941-97.721v223.365
	c31.223-0.167,58.79-27.236,75.405-60.585c0.74,0.39,1.505,0.721,2.326,0.927c9.004,2.26,19.309-7.885,23.018-22.661
	C360.732,221.527,356.476,207.763,347.531,205.44z"/>
<path style="fill:#494948;" d="M161.127,181.119c0,0,1.724,24.442,6.034,39.253l8.045-0.371c0,0-2.012-19.997,14.941-40.365
	S161.127,181.119,161.127,181.119z"/>
<path style="fill:#FEE187;" d="M378.397,140.802c0,31.194-54.936,42.894-122.534,42.894s-122.261-11.7-122.261-42.894
	S188.402,59.864,256,59.864S378.397,109.608,378.397,140.802z"/>
<path style="fill:#FFC61B;" d="M378.397,140.802c0-31.149-54.644-80.789-122.109-80.93v123.823
	C323.691,183.644,378.397,171.929,378.397,140.802z"/>
<path style="fill:#333333;" d="M350.873,181.119c0,0-1.724,24.442-6.034,39.253l-8.045-0.371c0,0,2.012-19.997-14.941-40.365
	S350.873,181.119,350.873,181.119z"/>
<path style="fill:#172956;" d="M256,210.161c37.505,0,71.494-9.485,96.308-24.855c1.898-1.176,1.076-4.099-1.157-18.041H160.849
	c-2.232,13.941-3.055,16.865-1.157,18.041C184.508,200.676,218.495,210.161,256,210.161z"/>
<path style="fill:#121149;" d="M351.151,167.265h-94.863v42.893c37.392-0.048,71.27-9.519,96.02-24.852
	C354.206,184.13,353.383,181.207,351.151,167.265z"/>
<path style="fill:#6D4711;" d="M350.899,185.792c-62.828-8.919-126.561-8.938-189.392-0.057c-1.46,0.207-2.808-0.805-3.013-2.265
	c-0.938-6.728-1.874-13.455-2.812-20.183c-0.305-2.189,1.221-4.224,3.41-4.529c64.307-8.975,129.508-8.975,193.815,0
	c2.189,0.305,3.715,2.339,3.41,4.529c-0.957,6.863-1.912,13.726-2.869,20.589C353.278,185.11,352.135,185.966,350.899,185.792z"/>
<path style="fill:#56340C;" d="M352.908,158.756c-32.058-4.474-64.338-6.715-96.62-6.728v27.062
	c31.613,0.014,63.224,2.248,94.61,6.703c1.236,0.176,2.379-0.681,2.551-1.919c0.957-6.863,1.912-13.726,2.869-20.589
	C356.624,161.096,355.097,159.061,352.908,158.756z"/>
<path style="fill:#494948;" d="M273.984,270.6c-12.045-5.847-15.736-3.277-17.984-0.398c-2.248-2.879-5.939-5.449-17.984,0.398
	c-12.317,5.98-28.562-0.912-28.562-0.912s8.675,12.622,29.915,11.047c9.099-0.674,14.686-3.463,16.631-6.296
	c1.945,2.832,7.532,5.622,16.631,6.296c21.242,1.574,29.915-11.047,29.915-11.047S286.303,276.58,273.984,270.6z"/>
<path style="fill:#333333;" d="M273.984,270.6c-11.552-5.608-15.415-3.472-17.696-0.748v4.925c2.146,2.713,7.608,5.31,16.343,5.958
	c21.242,1.576,29.915-11.047,29.915-11.047S286.303,276.58,273.984,270.6z"/>
<g>
	<rect x="220.729" y="105.831" style="fill:#494948;" width="14.288" height="14.288"/>
	<rect x="276.98" y="105.831" style="fill:#494948;" width="14.288" height="14.288"/>
	<rect x="234.882" y="119.967" style="fill:#494948;" width="14.288" height="14.288"/>
	<rect x="249.001" y="105.831" style="fill:#494948;" width="14.288" height="14.288"/>
	<rect x="263.154" y="119.967" style="fill:#494948;" width="14.288" height="14.288"/>
</g>
<g>
</g>
<g>
</g>
<g>
</g>
<g>
</g>
<g>
</g>
<g>
</g>
<g>
</g>
<g>
</g>
<g>
</g>
<g>
</g>
<g>
</g>
<g>
</g>
<g>
</g>
<g>
</g>
<g>
</g>
</svg>
