<?xml version="1.0" encoding="iso-8859-1"?>
<!-- Generator: Adobe Illustrator 19.0.0, SVG Export Plug-In . SVG Version: 6.00 Build 0)  -->
<svg version="1.1" id="Layer_1" xmlns="http://www.w3.org/2000/svg" xmlns:xlink="http://www.w3.org/1999/xlink" x="0px" y="0px"
	 viewBox="0 0 512 512" style="enable-background:new 0 0 512 512;" xml:space="preserve">
<circle style="fill:#71E2EF;" cx="256" cy="256" r="256"/>
<path style="fill:#38C6D9;" d="M312.889,120.913l-58.004,220.739l133.499,133.499c58.323-35.306,101.419-93.234,117.124-161.621
	L312.889,120.913z"/>
<path style="fill:#282828;" d="M139.604,377.558H360.01l-44.356-19.746c-10.331-4.599-16.989-14.85-16.989-26.159v-39.429h-85.333
	v38.097c0,11.978-7.456,22.69-18.689,26.85L139.604,377.558z"/>
<path style="fill:#161616;" d="M315.656,357.812c-10.331-4.599-16.989-14.85-16.989-26.159v-39.429h-42.379v85.333H360.01
	L315.656,357.812z"/>
<path style="fill:#3C4443;" d="M371.622,361.374l-51.378-9.918c0,0-63.462,43.553-128.49,0l-51.378,9.918
	c-26.159,5.049-44.989,27.219-44.989,52.967v40.996C139.311,490.772,195.172,512,256,512s116.689-21.228,160.611-56.663v-40.996
	C416.611,388.592,397.783,366.423,371.622,361.374z"/>
<path style="fill:#333333;" d="M416.611,414.341c0-25.748-18.83-47.918-44.989-52.967l-51.378-9.918
	c0,0-27.067,18.568-63.955,19.328v141.214c60.716-0.067,116.47-21.282,160.323-56.661v-40.996H416.611z"/>
<path style="fill:#494948;" d="M349.379,200.597c0,61.887-41.806,127.569-93.379,127.569s-93.379-65.683-93.379-127.569
	s41.806-97.401,93.379-97.401S349.379,138.711,349.379,200.597z"/>
<path style="fill:#333333;" d="M349.379,200.597c0-61.769-41.653-97.261-93.091-97.394v224.952
	C307.728,327.909,349.379,262.366,349.379,200.597z"/>
<path style="fill:#FFEDB5;" d="M234.724,210.346c1.92,11.424-5.277,22.156-16.074,23.971c-10.797,1.815-24.259,3.005-26.179-8.42
	s9.857-22.635,20.654-24.448C223.922,199.633,232.803,198.921,234.724,210.346z"/>
<path style="fill:#FEE187;" d="M277.278,210.346c-1.92,11.424,5.277,22.156,16.074,23.971s24.259,3.005,26.179-8.42
	c1.92-11.424-9.857-22.635-20.654-24.448C288.08,199.635,279.199,198.921,277.278,210.346z"/>
<path style="fill:#FFEDB5;" d="M285.091,287.461c0,10.711-13.024,15.946-29.091,15.946s-29.091-5.236-29.091-15.946
	S239.935,260.31,256,260.31S285.091,276.751,285.091,287.461z"/>
<path style="fill:#FEE187;" d="M285.091,287.461c0-10.647-12.871-26.936-28.803-27.134v43.074
	C272.22,303.338,285.091,298.108,285.091,287.461z"/>
<g>
</g>
<g>
</g>
<g>
</g>
<g>
</g>
<g>
</g>
<g>
</g>
<g>
</g>
<g>
</g>
<g>
</g>
<g>
</g>
<g>
</g>
<g>
</g>
<g>
</g>
<g>
</g>
<g>
</g>
</svg>
