<?xml version="1.0" encoding="iso-8859-1"?>
<!-- Generator: Adobe Illustrator 19.0.0, SVG Export Plug-In . SVG Version: 6.00 Build 0)  -->
<svg version="1.1" id="Layer_1" xmlns="http://www.w3.org/2000/svg" xmlns:xlink="http://www.w3.org/1999/xlink" x="0px" y="0px"
	 viewBox="0 0 512 512" style="enable-background:new 0 0 512 512;" xml:space="preserve">
<circle style="fill:#FF6262;" cx="256" cy="256" r="256"/>
<path style="fill:#FF0F27;" d="M205.702,381.252l120.887,120.887c93.946-26.893,165.773-106.117,181.958-204.117l-155.8-155.8
	L205.702,381.252z"/>
<path style="fill:#543E1E;" d="M177.85,125.414c0,0-78.869,109.468,26.721,239.192l113.347-9.051c0,0,46.114-66.37,46.545-132.741
	S177.85,125.414,177.85,125.414z"/>
<path style="fill:#3F2D15;" d="M364.463,222.815c0.24-36.966-57.672-62.962-109.037-78.748v216.478l62.492-4.991
	C317.918,355.556,364.032,289.185,364.463,222.815z"/>
<rect x="213.333" y="292.219" style="fill:#FCD088;" width="85.333" height="85.333"/>
<rect x="255.431" y="292.219" style="fill:#DDAB62;" width="43.236" height="85.333"/>
<path style="fill:#D9EDEC;" d="M357.764,360.5l-45.22-9.044l-7.992-11.666c-1.496-2.184-4.327-3.007-6.759-1.965L256,355.83
	l-41.543-17.987c-2.415-1.053-5.239-0.262-6.754,1.893l-8.247,11.719l-45.22,9.044c-23.024,4.606-39.596,24.821-39.596,48.3v60.647
	C155.148,496.328,203.74,512,256,512s100.852-15.672,141.36-42.555v-60.647C397.36,385.319,380.787,365.104,357.764,360.5z"/>
<path style="fill:#ADC4C2;" d="M357.764,360.5l-45.22-9.044l-7.992-11.666c-1.496-2.184-4.327-3.007-6.759-1.965L256,355.83
	l-0.574-0.248V511.99c0.191,0,0.381,0.01,0.574,0.01c52.26,0,100.852-15.672,141.36-42.555v-60.647
	C397.36,385.319,380.787,365.104,357.764,360.5z"/>
<path style="fill:#FFEDB5;" d="M347.531,205.44c0.459-4.244,0.698-8.428,0.698-12.509c0-53.974-41.293-97.728-92.229-97.728
	s-92.229,43.753-92.229,97.728c0,4.08,0.24,8.264,0.698,12.509c-8.945,2.326-13.202,16.087-9.506,30.817
	c3.708,14.776,14.014,24.921,23.018,22.661c0.821-0.205,1.586-0.538,2.326-0.927c16.667,33.452,44.351,60.594,75.693,60.594
	s59.027-27.139,75.693-60.594c0.74,0.39,1.505,0.722,2.326,0.927c9.004,2.26,19.309-7.885,23.018-22.661
	C360.732,221.527,356.476,207.763,347.531,205.44z"/>
<path style="fill:#E8CF89;" d="M347.531,205.44c0.459-4.244,0.698-8.428,0.698-12.509c0-53.974-41.293-97.728-92.229-97.728
	c-0.193,0-0.381,0.014-0.574,0.016v223.349c0.191,0.002,0.381,0.016,0.574,0.016c31.342,0,59.027-27.139,75.693-60.592
	c0.74,0.39,1.505,0.721,2.326,0.927c9.004,2.26,19.309-7.885,23.018-22.661C360.732,221.527,356.476,207.763,347.531,205.44z"/>
<path style="fill:#6B0027;" d="M267.91,511.697c30.484-1.398,59.564-8.135,86.354-19.287V359.8l-34.907-6.982L267.91,511.697z"/>
<path style="fill:#940030;" d="M244.09,511.697c-30.484-1.398-59.564-8.135-86.354-19.287V359.8l34.907-6.982L244.09,511.697z"/>
<path style="fill:#494948;" d="M290.245,355.924l-24.061,8.814c-0.398-1.245-1.552-2.151-2.929-2.151h-13.648
	c-1.37,0-2.52,0.9-2.924,2.136l-24.017-8.799c-4.16-1.524-8.566,1.555-8.566,5.985v30.396c0,4.429,4.406,7.509,8.566,5.985
	l24.017-8.799c0.403,1.236,1.552,2.136,2.924,2.136h13.648c1.377,0,2.529-0.907,2.929-2.151l24.061,8.814
	c4.16,1.524,8.566-1.555,8.566-5.985V361.91C298.811,357.479,294.405,354.401,290.245,355.924z"/>
<path style="fill:#333333;" d="M290.245,355.924l-24.061,8.814c-0.398-1.245-1.552-2.153-2.929-2.153h-7.83v29.041h7.83
	c1.377,0,2.529-0.907,2.929-2.151l24.061,8.814c4.16,1.524,8.566-1.555,8.566-5.985v-30.396
	C298.811,357.479,294.405,354.401,290.245,355.924z"/>
<g>
	<circle style="fill:#ADADAD;" cx="256" cy="410.29" r="4.31"/>
	<circle style="fill:#ADADAD;" cx="256" cy="433.131" r="4.31"/>
</g>
<path style="fill:#543E1E;" d="M206.295,144.808c0,0,24.997,36.202,77.576,42.667s53.41,44.92,47.823,70.515
	c-5.587,25.595,26.305,10.94,30.184-11.902S383.772,81.113,252.409,88.781c-110.761,6.465-87.94,116.658-87.94,116.658
	S173.971,159.03,206.295,144.808z"/>
<path style="fill:#3F2D15;" d="M255.426,88.655v91.81c8.38,3.181,17.841,5.706,28.444,7.009c52.579,6.465,53.41,44.92,47.823,70.515
	c-5.587,25.593,26.305,10.94,30.184-11.902C365.725,223.423,383.464,83.349,255.426,88.655z"/>
<g>
</g>
<g>
</g>
<g>
</g>
<g>
</g>
<g>
</g>
<g>
</g>
<g>
</g>
<g>
</g>
<g>
</g>
<g>
</g>
<g>
</g>
<g>
</g>
<g>
</g>
<g>
</g>
<g>
</g>
</svg>
