<?xml version="1.0" encoding="iso-8859-1"?>
<!-- Generator: Adobe Illustrator 19.0.0, SVG Export Plug-In . SVG Version: 6.00 Build 0)  -->
<svg version="1.1" id="Layer_1" xmlns="http://www.w3.org/2000/svg" xmlns:xlink="http://www.w3.org/1999/xlink" x="0px" y="0px"
	 viewBox="0 0 512 512" style="enable-background:new 0 0 512 512;" xml:space="preserve">
<circle style="fill:#366695;" cx="256" cy="256" r="256"/>
<path style="fill:#38C6D9;" d="M216.426,376.951l121.618,121.618c90.795-30.699,158.746-110.947,171.704-208.563L334.605,114.864
	L216.426,376.951z"/>
<path style="fill:#273B7A;" d="M216.426,376.951l121.618,121.618c90.795-30.699,158.746-110.947,171.704-208.563L334.605,114.864
	L216.426,376.951z"/>
<rect x="213.333" y="292.219" style="fill:#FCD088;" width="85.333" height="85.333"/>
<rect x="255.431" y="292.219" style="fill:#DDAB62;" width="43.236" height="85.333"/>
<path style="fill:#FEE187;" d="M357.764,360.5l-45.22-9.044l-7.992-11.666c-1.496-2.184-4.327-3.007-6.759-1.965l-0.217,0.093
	c-26.533,11.431-56.606,11.404-83.116-0.076l0,0c-2.415-1.053-5.239-0.262-6.754,1.893l-8.247,11.719l-45.22,9.044
	c-23.026,4.606-39.598,24.821-39.598,48.3v60.647C155.148,496.328,203.742,512,256,512s100.852-15.672,141.36-42.555v-60.647
	C397.36,385.319,380.788,365.104,357.764,360.5z"/>
<path style="fill:#FFC61B;" d="M357.764,360.5l-45.22-9.044l-7.992-11.666c-1.496-2.184-4.327-3.007-6.759-1.965l-0.217,0.093
	c-13.448,5.794-27.805,8.63-42.148,8.539V511.99c0.191,0,0.381,0.01,0.574,0.01c52.258,0,100.852-15.672,141.36-42.555v-60.647
	C397.36,385.319,380.787,365.104,357.764,360.5z"/>
<path style="fill:#FFEDB5;" d="M347.531,205.44c0.459-4.244,0.698-8.428,0.698-12.509c0-53.974-41.293-97.728-92.229-97.728
	s-92.229,43.753-92.229,97.728c0,4.08,0.24,8.264,0.698,12.509c-8.945,2.326-13.202,16.087-9.506,30.817
	c3.708,14.776,14.014,24.921,23.018,22.661c0.821-0.205,1.586-0.538,2.326-0.927c16.667,33.452,44.351,60.594,75.693,60.594
	s59.027-27.139,75.693-60.594c0.74,0.39,1.505,0.722,2.326,0.927c9.004,2.26,19.309-7.885,23.018-22.661
	C360.732,221.527,356.476,207.763,347.531,205.44z"/>
<path style="fill:#E8CF89;" d="M347.531,205.44c0.459-4.244,0.698-8.428,0.698-12.509c0-53.974-41.293-97.728-92.229-97.728
	c-0.193,0-0.381,0.014-0.574,0.016v223.349c0.191,0.002,0.381,0.016,0.574,0.016c31.342,0,59.027-27.139,75.693-60.594
	c0.74,0.39,1.505,0.722,2.326,0.927c9.004,2.26,19.309-7.885,23.018-22.661C360.732,221.527,356.476,207.763,347.531,205.44z"/>
<path style="fill:#494948;" d="M162.047,189.918c0,0,1.724,18.963,6.034,30.456l8.045-0.288c0,0-2.012-15.515,14.941-31.318
	S162.047,189.918,162.047,189.918z"/>
<path style="fill:#303030;" d="M349.953,189.918c0,0-1.724,18.963-6.034,30.456l-8.045-0.288c0,0,2.012-15.515-14.941-31.318
	C303.981,172.965,349.953,189.918,349.953,189.918z"/>
<path style="fill:#FEE187;" d="M354.263,190.923c0-25.984-8.239-48.502-21.964-65.708l2.819-3.258
	c1.817-2.1,1.588-5.277-0.514-7.094l-17.601-15.226c-2.1-1.817-5.275-1.588-7.092,0.514l-2.653,3.067
	c-10.409-6.285-22.1-10.593-34.592-12.638v-4.96c0-2.777-2.251-5.029-5.029-5.029h-23.273c-2.777,0-5.029,2.251-5.029,5.029v4.96
	c-12.491,2.043-24.183,6.351-34.592,12.638l-2.653-3.067c-1.817-2.1-4.992-2.331-7.094-0.514l-17.601,15.226
	c-2.1,1.817-2.331,4.992-0.514,7.094l2.819,3.258c-13.724,17.206-21.963,39.724-21.963,65.708H354.263z"/>
<path style="fill:#FFC61B;" d="M332.298,125.214l2.819-3.258c1.817-2.1,1.588-5.277-0.514-7.094l-17.601-15.226
	c-2.101-1.817-5.277-1.588-7.094,0.514l-2.653,3.067c-10.409-6.285-22.1-10.593-34.592-12.638v-4.96
	c0-2.777-2.251-5.029-5.029-5.029h-12.21v110.33h98.838C354.263,164.938,346.024,142.42,332.298,125.214z"/>
<path style="fill:#FF5419;" d="M256,163.74c-39.421,0-75.143,9.969-101.224,26.124c-1.995,1.236-1.131,4.31,1.215,4.31h200.018
	c2.346,0,3.21-3.074,1.215-4.31C331.143,173.709,295.421,163.74,256,163.74z"/>
<path style="fill:#FF0F27;" d="M357.224,189.864C331.143,173.709,295.421,163.74,256,163.74c-0.193,0-0.381,0.009-0.574,0.009
	v30.423h100.581C358.355,194.172,359.219,191.1,357.224,189.864z"/>
<path style="fill:#273B7A;" d="M187.906,353.764l-20.687,4.137v138.23C194.882,506.368,224.777,512,256,512
	s61.119-5.632,88.781-15.869V357.903l-20.687-4.137v62.557H187.906V353.764z"/>
<path style="fill:#121149;" d="M324.094,353.764v62.559h-68.668v95.67c0.191,0,0.381,0.007,0.574,0.007
	c31.223,0,61.119-5.632,88.781-15.869V357.904L324.094,353.764z"/>
<g>
</g>
<g>
</g>
<g>
</g>
<g>
</g>
<g>
</g>
<g>
</g>
<g>
</g>
<g>
</g>
<g>
</g>
<g>
</g>
<g>
</g>
<g>
</g>
<g>
</g>
<g>
</g>
<g>
</g>
</svg>
