<?xml version="1.0" encoding="iso-8859-1"?>
<!-- Generator: Adobe Illustrator 19.0.0, SVG Export Plug-In . SVG Version: 6.00 Build 0)  -->
<svg version="1.1" id="Layer_1" xmlns="http://www.w3.org/2000/svg" xmlns:xlink="http://www.w3.org/1999/xlink" x="0px" y="0px"
	 viewBox="0 0 512 512" style="enable-background:new 0 0 512 512;" xml:space="preserve">
<circle style="fill:#FF6262;" cx="256" cy="256" r="256"/>
<path style="fill:#FF0F27;" d="M174.883,318.085l180.389,173.949c80.351-33.835,139.805-107.501,153.648-196.274L335.825,116.443
	L174.883,318.085z"/>
<g>
	<path style="fill:#494948;" d="M360.153,225.832c0,0-0.719,81.311-21.406,90.505s-106.625,16.801-156.875,5.746
		c-28.732-6.322-15.227-103.577-15.227-103.577"/>
	<path style="fill:#494948;" d="M166.645,218.505c0,0-13.503,97.258,15.227,103.577c21.023,4.625,48.29,5.977,74.416,5.318V221.899
		L166.645,218.505z"/>
</g>
<path style="fill:#333333;" d="M256.288,221.899v105.501c36.319-0.914,70.428-5.716,82.46-11.064
	c20.687-9.194,21.406-90.505,21.406-90.505L256.288,221.899z"/>
<rect x="213.333" y="292.219" style="fill:#FCD088;" width="85.333" height="85.333"/>
<rect x="256.293" y="292.219" style="fill:#DDAB62;" width="42.379" height="85.333"/>
<path style="fill:#FEE187;" d="M357.764,360.5l-45.22-9.044l-7.992-11.666c-1.496-2.184-4.327-3.007-6.759-1.965l-0.217,0.093
	c-26.533,11.431-56.606,11.404-83.116-0.076l0,0c-2.415-1.053-5.239-0.262-6.754,1.893l-8.247,11.719l-45.22,9.044
	c-23.026,4.606-39.598,24.821-39.598,48.3v60.647C155.148,496.328,203.742,512,256,512s100.852-15.672,141.36-42.555v-60.647
	C397.36,385.319,380.788,365.104,357.764,360.5z"/>
<path style="fill:#FFC61B;" d="M397.36,408.798c0-23.48-16.574-43.696-39.596-48.3l-45.22-9.044l-7.992-11.666
	c-1.496-2.184-4.327-3.007-6.759-1.965l-0.217,0.093c-13.178,5.677-27.231,8.521-41.286,8.547v165.529
	c52.148-0.057,100.638-15.717,141.072-42.549v-60.645H397.36z"/>
<path style="fill:#FFEDB5;" d="M347.531,205.44c0.459-4.244,0.698-8.428,0.698-12.509c0-53.974-41.293-97.728-92.229-97.728
	s-92.229,43.753-92.229,97.728c0,4.08,0.24,8.264,0.698,12.509c-8.945,2.326-13.202,16.087-9.506,30.817
	c3.708,14.776,14.014,24.921,23.018,22.661c0.821-0.205,1.586-0.538,2.326-0.927c16.667,33.452,44.351,60.594,75.693,60.594
	s59.027-27.139,75.693-60.594c0.74,0.39,1.505,0.722,2.326,0.927c9.004,2.26,19.309-7.885,23.018-22.661
	C360.732,221.527,356.476,207.763,347.531,205.44z"/>
<path style="fill:#E8CF89;" d="M347.531,205.44c0.459-4.244,0.698-8.428,0.698-12.509c0-53.872-41.138-97.556-91.941-97.721v223.365
	c31.223-0.167,58.79-27.236,75.405-60.585c0.74,0.39,1.505,0.722,2.326,0.927c9.004,2.26,19.309-7.885,23.018-22.661
	C360.732,221.527,356.476,207.763,347.531,205.44z"/>
<path style="fill:#FEE187;" d="M354.263,190.923c0-25.984-8.239-48.502-21.964-65.708l2.819-3.258
	c1.817-2.1,1.588-5.277-0.514-7.094l-17.601-15.226c-2.1-1.817-5.275-1.588-7.092,0.514l-2.653,3.067
	c-10.409-6.285-22.1-10.593-34.592-12.638v-4.96c0-2.777-2.251-5.029-5.029-5.029h-23.273c-2.777,0-5.029,2.251-5.029,5.029v4.96
	c-12.491,2.043-24.183,6.351-34.592,12.638l-2.653-3.067c-1.817-2.1-4.992-2.331-7.094-0.514l-17.601,15.226
	c-2.1,1.817-2.331,4.992-0.514,7.094l2.819,3.258c-13.724,17.206-21.963,39.724-21.963,65.708H354.263z"/>
<path style="fill:#FFC61B;" d="M332.298,125.216l2.819-3.258c1.817-2.101,1.588-5.277-0.514-7.094l-17.601-15.226
	c-2.101-1.817-5.277-1.588-7.094,0.514l-2.653,3.067c-10.409-6.285-22.1-10.593-34.592-12.638v-4.96
	c0-2.777-2.251-5.029-5.029-5.029h-11.348v110.33h97.976C354.263,164.938,346.024,142.42,332.298,125.216z"/>
<path style="fill:#273B7A;" d="M187.906,353.764l-20.687,4.137v138.23C194.882,506.368,224.777,512,256,512
	s61.119-5.632,88.781-15.869V357.903l-20.687-4.137v62.557H187.906V353.764z"/>
<path style="fill:#121149;" d="M344.781,357.902l-20.687-4.137v62.559h-67.806v95.673c31.118-0.034,60.916-5.66,88.493-15.865
	V357.902z"/>
<path style="fill:#494948;" d="M203.709,189.918c0,0,94.815,83.897,133.315,89.069c0,0,38.498-38.788,17.237-88.062
	c0,0-148.258-34.628-190.492,2.008c0,0-9.051,17.858,0.864,40.658c11.493,26.433,16.089,31.604,16.089,31.604
	S182.448,212.902,203.709,189.918z"/>
<path style="fill:#333333;" d="M354.263,190.923c0,0-48.533-11.331-97.975-14.169v56.03c28.438,21.535,61.566,43.627,80.736,46.202
	C337.025,278.985,375.524,240.197,354.263,190.923z"/>
<path style="fill:#FF5419;" d="M256,163.74c-39.421,0-75.143,9.969-101.224,26.124c-1.995,1.236-1.131,4.31,1.215,4.31h200.018
	c2.346,0,3.21-3.074,1.215-4.31C331.143,173.709,295.421,163.74,256,163.74z"/>
<path style="fill:#E03A00;" d="M357.224,189.864c-26.017-16.115-61.63-26.071-100.936-26.121v30.429h99.719
	C358.355,194.172,359.219,191.1,357.224,189.864z"/>
<g>
</g>
<g>
</g>
<g>
</g>
<g>
</g>
<g>
</g>
<g>
</g>
<g>
</g>
<g>
</g>
<g>
</g>
<g>
</g>
<g>
</g>
<g>
</g>
<g>
</g>
<g>
</g>
<g>
</g>
</svg>
