<?xml version="1.0" encoding="iso-8859-1"?>
<!-- Generator: Adobe Illustrator 19.0.0, SVG Export Plug-In . SVG Version: 6.00 Build 0)  -->
<svg version="1.1" id="Capa_1" xmlns="http://www.w3.org/2000/svg" xmlns:xlink="http://www.w3.org/1999/xlink" x="0px" y="0px"
	 viewBox="0 0 512 512" style="enable-background:new 0 0 512 512;" xml:space="preserve">
<g>
	<g>
		<path d="M104.985,0H74.548L0.023,212.928h42.365l11.196-31.989h71.525l11.036,31.989h42.299L104.985,0z M67.579,140.952
			l22.025-62.927l21.71,62.927H67.579z"/>
	</g>
</g>
<g>
	<g>
		<polygon points="138.85,406.705 109.986,435.504 109.986,251.915 69.999,251.915 69.999,436.167 40.055,406.626 11.974,435.09 
			89.932,512 167.094,435.011 		"/>
	</g>
</g>
<g>
	<g>
		<polygon points="312.791,406.705 283.927,435.504 283.927,0 243.941,0 243.941,436.167 213.997,406.626 185.915,435.09 
			263.873,512 341.035,435.011 		"/>
	</g>
</g>
<g>
	<g>
		<polygon points="483.734,406.705 454.869,435.504 454.869,0 414.883,0 414.883,436.167 384.939,406.626 356.857,435.09 
			434.815,512 511.977,435.011 		"/>
	</g>
</g>
<g>
</g>
<g>
</g>
<g>
</g>
<g>
</g>
<g>
</g>
<g>
</g>
<g>
</g>
<g>
</g>
<g>
</g>
<g>
</g>
<g>
</g>
<g>
</g>
<g>
</g>
<g>
</g>
<g>
</g>
</svg>
