<?xml version="1.0" encoding="iso-8859-1"?>
<!-- Generator: Adobe Illustrator 19.0.0, SVG Export Plug-In . SVG Version: 6.00 Build 0)  -->
<svg version="1.1" id="Capa_1" xmlns="http://www.w3.org/2000/svg" xmlns:xlink="http://www.w3.org/1999/xlink" x="0px" y="0px"
	 viewBox="0 0 512 512" style="enable-background:new 0 0 512 512;" xml:space="preserve">
<g>
	<g>
		<polygon points="417.142,161.858 388.858,190.142 454.716,256 388.858,321.858 417.142,350.142 511.284,256 		"/>
	</g>
</g>
<g>
	<g>
		<path d="M512,156V60c0-33.084-26.916-60-60-60H60C26.916,0,0,26.916,0,60v392c0,33.084,26.916,60,60,60h392
			c33.084,0,60-26.916,60-60v-96h-40v96c0,11.028-8.972,20-20,20H346v-78H177v-40h169v-78H177v-40h169v-78H177v-40h169V40h106
			c11.028,0,20,8.972,20,20v96H512z M176,472H60c-11.028,0-20-8.972-20-20v-58h136V472z M176,354H40v-78h136V354z M176,236H40v-78
			h136V236z M176,118H40V60c0-11.028,8.972-20,20-20h116V118z"/>
	</g>
</g>
<g>
</g>
<g>
</g>
<g>
</g>
<g>
</g>
<g>
</g>
<g>
</g>
<g>
</g>
<g>
</g>
<g>
</g>
<g>
</g>
<g>
</g>
<g>
</g>
<g>
</g>
<g>
</g>
<g>
</g>
</svg>
