<?xml version="1.0" encoding="iso-8859-1"?>
<!-- Generator: Adobe Illustrator 19.0.0, SVG Export Plug-In . SVG Version: 6.00 Build 0)  -->
<svg version="1.1" id="Capa_1" xmlns="http://www.w3.org/2000/svg" xmlns:xlink="http://www.w3.org/1999/xlink" x="0px" y="0px"
	 viewBox="0 0 512 512" style="enable-background:new 0 0 512 512;" xml:space="preserve">
<g>
	<g>
		<polygon points="123.142,190.142 94.858,161.858 0.716,256 94.858,350.142 123.142,321.858 57.284,256 		"/>
	</g>
</g>
<g>
	<g>
		<path d="M452,0H60C26.916,0,0,26.916,0,60v96h40V60c0-11.028,8.972-20,20-20h106v78h169v40H166v78h169v40H166v78h169v40H166v78H60
			c-11.028,0-20-8.972-20-20v-96H0v96c0,33.084,26.916,60,60,60h392c33.084,0,60-26.916,60-60V60C512,26.916,485.084,0,452,0z
			 M472,452c0,11.028-8.972,20-20,20H336v-78h136V452z M472,354H336v-78h136V354z M472,236H336v-78h136V236z M472,118H336V40h116
			c11.028,0,20,8.972,20,20V118z"/>
	</g>
</g>
<g>
</g>
<g>
</g>
<g>
</g>
<g>
</g>
<g>
</g>
<g>
</g>
<g>
</g>
<g>
</g>
<g>
</g>
<g>
</g>
<g>
</g>
<g>
</g>
<g>
</g>
<g>
</g>
<g>
</g>
</svg>
