<?xml version="1.0" encoding="iso-8859-1"?>
<!-- Generator: Adobe Illustrator 19.0.0, SVG Export Plug-In . SVG Version: 6.00 Build 0)  -->
<svg version="1.1" id="Capa_1" xmlns="http://www.w3.org/2000/svg" xmlns:xlink="http://www.w3.org/1999/xlink" x="0px" y="0px"
	 viewBox="0 0 512 512" style="enable-background:new 0 0 512 512;" xml:space="preserve">
<g>
	<g>
		<polygon points="321.858,388.858 256,454.716 190.142,388.858 161.858,417.142 256,511.284 350.142,417.142 		"/>
	</g>
</g>
<g>
	<g>
		<path d="M452,0H60C26.916,0,0,26.916,0,60v196v78v118c0,33.084,26.916,60,60,60h96v-40H60c-11.028,0-20-8.972-20-20v-98h116V236
			H40v-78h116v78h40v-78h120v78H196v118h120V237h40v117h116v98c0,11.028-8.972,20-20,20h-96v40h96c33.084,0,60-26.916,60-60V334v-78
			V60C512,26.916,485.084,0,452,0z M156,118H40V60c0-11.028,8.972-20,20-20h96V118z M316,118H196V40h120V118z M472,236H356v-78h116
			V236z M472,118H356V40h96c11.028,0,20,8.972,20,20V118z"/>
	</g>
</g>
<g>
</g>
<g>
</g>
<g>
</g>
<g>
</g>
<g>
</g>
<g>
</g>
<g>
</g>
<g>
</g>
<g>
</g>
<g>
</g>
<g>
</g>
<g>
</g>
<g>
</g>
<g>
</g>
<g>
</g>
</svg>
