<?xml version="1.0" encoding="iso-8859-1"?>
<!-- Generator: Adobe Illustrator 19.0.0, SVG Export Plug-In . SVG Version: 6.00 Build 0)  -->
<svg version="1.1" id="Capa_1" xmlns="http://www.w3.org/2000/svg" xmlns:xlink="http://www.w3.org/1999/xlink" x="0px" y="0px"
	 viewBox="0 0 512 512" style="enable-background:new 0 0 512 512;" xml:space="preserve">
<g>
	<g>
		<polygon points="256,0.716 161.858,94.858 190.142,123.142 256,57.284 321.858,123.142 350.142,94.858 		"/>
	</g>
</g>
<g>
	<g>
		<path d="M452,0h-96v40h96c11.028,0,20,8.972,20,20v98H356v117h-40V158H196v118h120v78H196v-78h-40v78H40v-78h116V158H40V60
			c0-11.028,8.972-20,20-20h96V0H60C26.916,0,0,26.916,0,60v118v78v196c0,33.084,26.916,60,60,60h392c33.084,0,60-26.916,60-60V256
			v-78V60C512,26.916,485.084,0,452,0z M156,472H60c-11.028,0-20-8.972-20-20v-58h116V472z M316,472H196v-78h120V472z M472,452
			c0,11.028-8.972,20-20,20h-96v-78h116V452z M472,354H356v-78h116V354z"/>
	</g>
</g>
<g>
</g>
<g>
</g>
<g>
</g>
<g>
</g>
<g>
</g>
<g>
</g>
<g>
</g>
<g>
</g>
<g>
</g>
<g>
</g>
<g>
</g>
<g>
</g>
<g>
</g>
<g>
</g>
<g>
</g>
</svg>
