<?xml version="1.0" encoding="iso-8859-1"?>
<!-- Generator: Adobe Illustrator 19.0.0, SVG Export Plug-In . SVG Version: 6.00 Build 0)  -->
<svg version="1.1" id="Capa_1" xmlns="http://www.w3.org/2000/svg" xmlns:xlink="http://www.w3.org/1999/xlink" x="0px" y="0px"
	 viewBox="0 0 512 512" style="enable-background:new 0 0 512 512;" xml:space="preserve">
<g>
	<g>
		<path d="M366.885,213.55c23.174-22.623,37.588-54.183,37.588-89.05c0-68.649-55.851-124.5-124.5-124.5H30.5v40h59.973v432H30.5v40
			H330c83.537,0,151.5-67.963,151.5-151.5C481.5,289.682,432.654,230.064,366.885,213.55z M130.473,40h149.5
			c46.593,0,84.5,37.907,84.5,84.5s-37.907,84.5-84.5,84.5h-149.5V40z M330,472H130.473V249H330c61.481,0,111.5,50.019,111.5,111.5
			S391.481,472,330,472z"/>
	</g>
</g>
<g>
</g>
<g>
</g>
<g>
</g>
<g>
</g>
<g>
</g>
<g>
</g>
<g>
</g>
<g>
</g>
<g>
</g>
<g>
</g>
<g>
</g>
<g>
</g>
<g>
</g>
<g>
</g>
<g>
</g>
</svg>
