<?xml version="1.0" encoding="iso-8859-1"?>
<!-- Generator: Adobe Illustrator 19.0.0, SVG Export Plug-In . SVG Version: 6.00 Build 0)  -->
<svg version="1.1" id="Capa_1" xmlns="http://www.w3.org/2000/svg" xmlns:xlink="http://www.w3.org/1999/xlink" x="0px" y="0px"
	 viewBox="0 0 512 512" style="enable-background:new 0 0 512 512;" xml:space="preserve">
<g>
	<g>
		<rect x="236" width="40" height="40"/>
	</g>
</g>
<g>
	<g>
		<rect x="314" width="40" height="40"/>
	</g>
</g>
<g>
	<g>
		<rect x="236" y="236" width="40" height="40"/>
	</g>
</g>
<g>
	<g>
		<rect x="236" y="79" width="40" height="40"/>
	</g>
</g>
<g>
	<g>
		<rect x="236" y="158" width="40" height="40"/>
	</g>
</g>
<g>
	<g>
		<rect x="236" y="472" width="40" height="40"/>
	</g>
</g>
<g>
	<g>
		<rect x="236" y="393" width="40" height="40"/>
	</g>
</g>
<g>
	<g>
		<rect x="236" y="314" width="40" height="40"/>
	</g>
</g>
<g>
	<g>
		<rect y="236" width="40" height="40"/>
	</g>
</g>
<g>
	<g>
		<rect y="79" width="40" height="40"/>
	</g>
</g>
<g>
	<g>
		<path d="M0,40h40V0C17.909,0,0,17.909,0,40z"/>
	</g>
</g>
<g>
	<g>
		<rect y="158" width="40" height="40"/>
	</g>
</g>
<g>
	<g>
		<rect y="393" width="40" height="40"/>
	</g>
</g>
<g>
	<g>
		<rect y="314" width="40" height="40"/>
	</g>
</g>
<g>
	<g>
		<rect x="392" width="40" height="40"/>
	</g>
</g>
<g>
	<g>
		<rect x="314" y="472" width="40" height="40"/>
	</g>
</g>
<g>
	<g>
		<rect x="392" y="472" width="40" height="40"/>
	</g>
</g>
<g>
	<g>
		<rect x="314" y="236" width="40" height="40"/>
	</g>
</g>
<g>
	<g>
		<rect x="392" y="236" width="40" height="40"/>
	</g>
</g>
<g>
	<g>
		<rect x="158" width="40" height="40"/>
	</g>
</g>
<g>
	<g>
		<rect x="80" width="40" height="40"/>
	</g>
</g>
<g>
	<g>
		<rect x="158" y="472" width="40" height="40"/>
	</g>
</g>
<g>
	<g>
		<rect x="80" y="472" width="40" height="40"/>
	</g>
</g>
<g>
	<g>
		<path d="M0,472c0,22.091,17.909,40,40,40v-40H0z"/>
	</g>
</g>
<g>
	<g>
		<path d="M472,0v512c22.091,0,40-17.909,40-40V40C512,17.909,494.091,0,472,0z"/>
	</g>
</g>
<g>
	<g>
		<rect x="158" y="236" width="40" height="40"/>
	</g>
</g>
<g>
	<g>
		<rect x="80" y="236" width="40" height="40"/>
	</g>
</g>
<g>
</g>
<g>
</g>
<g>
</g>
<g>
</g>
<g>
</g>
<g>
</g>
<g>
</g>
<g>
</g>
<g>
</g>
<g>
</g>
<g>
</g>
<g>
</g>
<g>
</g>
<g>
</g>
<g>
</g>
</svg>
