<?xml version="1.0" encoding="iso-8859-1"?>
<!-- Generator: Adobe Illustrator 19.0.0, SVG Export Plug-In . SVG Version: 6.00 Build 0)  -->
<svg version="1.1" id="Capa_1" xmlns="http://www.w3.org/2000/svg" xmlns:xlink="http://www.w3.org/1999/xlink" x="0px" y="0px"
	 viewBox="0 0 512 512" style="enable-background:new 0 0 512 512;" xml:space="preserve">
<g>
	<g>
		<path d="M473.655,110c0.488-0.558,0.979-1.119,1.469-1.682c29.271-33.63,35.27-47.636,35.27-58.318c0-27.57-22.43-50-50-50
			h-50.711v40h50.711c4.882,0,9.082,3.715,9.868,8.413c-1.442,3.033-7.161,13.087-27.903,36.604
			c-13.665,15.493-26.779,28.802-26.91,28.934l-5.766,5.843V150h102v-40H473.655z"/>
	</g>
</g>
<g>
	<g>
		<polygon points="367.046,110 316.174,110 183.681,278.628 51.189,110 0.317,110 158.246,311 0.317,512 51.189,512 
			183.681,343.372 316.174,512 367.046,512 209.116,311 		"/>
	</g>
</g>
<g>
</g>
<g>
</g>
<g>
</g>
<g>
</g>
<g>
</g>
<g>
</g>
<g>
</g>
<g>
</g>
<g>
</g>
<g>
</g>
<g>
</g>
<g>
</g>
<g>
</g>
<g>
</g>
<g>
</g>
</svg>
