<?xml version="1.0" encoding="iso-8859-1"?>
<!-- Generator: Adobe Illustrator 19.0.0, SVG Export Plug-In . SVG Version: 6.00 Build 0)  -->
<svg version="1.1" id="Capa_1" xmlns="http://www.w3.org/2000/svg" xmlns:xlink="http://www.w3.org/1999/xlink" x="0px" y="0px"
	 viewBox="0 0 512 512" style="enable-background:new 0 0 512 512;" xml:space="preserve">
<g>
	<g>
		<polygon points="194.05,236.016 76.428,236.016 130.243,182.201 101.982,153.94 0,255.92 101.902,358.98 130.322,330.878 
			76.045,275.984 194.05,275.984 		"/>
	</g>
</g>
<g>
	<g>
		<polygon points="410.019,153.94 381.758,182.201 435.572,236.016 317.951,236.016 317.951,275.984 435.955,275.984 
			381.678,330.878 410.098,358.98 512,255.92 		"/>
	</g>
</g>
<g>
	<g>
		<path d="M511.796,145.089V60.156c0-33.058-26.895-59.952-59.952-59.952H60.157c-33.058,0-59.952,26.895-59.952,59.952v84.932
			h39.968V60.156c0-11.019,8.965-19.984,19.984-19.984h175.859v431.655H60.157c-11.019,0-19.984-8.965-19.984-19.984v-85.931H0.205
			v85.931c0,33.058,26.895,59.952,59.952,59.952h391.687c33.058,0,59.952-26.895,59.952-59.952v-85.931h-39.968v85.931
			c0,11.019-8.965,19.984-19.984,19.984H275.985V40.172h175.859c11.019,0,19.984,8.965,19.984,19.984v84.932H511.796z"/>
	</g>
</g>
<g>
</g>
<g>
</g>
<g>
</g>
<g>
</g>
<g>
</g>
<g>
</g>
<g>
</g>
<g>
</g>
<g>
</g>
<g>
</g>
<g>
</g>
<g>
</g>
<g>
</g>
<g>
</g>
<g>
</g>
</svg>
