<?xml version="1.0" encoding="iso-8859-1"?>
<!-- Generator: Adobe Illustrator 19.0.0, SVG Export Plug-In . SVG Version: 6.00 Build 0)  -->
<svg version="1.1" id="Capa_1" xmlns="http://www.w3.org/2000/svg" xmlns:xlink="http://www.w3.org/1999/xlink" x="0px" y="0px"
	 viewBox="0 0 512 512" style="enable-background:new 0 0 512 512;" xml:space="preserve">
<g>
	<g>
		<path d="M452,0H60C26.916,0,0,26.916,0,60v392c0,33.084,26.916,60,60,60h392c33.084,0,60-26.916,60-60V60
			C512,26.916,485.084,0,452,0z M156,472H60c-11.028,0-20-8.972-20-20v-58h116V472z M156,354H40v-78h116V354z M156,236H40v-78h116
			V236z M156,118H40V60c0-11.028,8.972-20,20-20h96V118z M316,472H196v-78h120V472z M316,354H196v-78h120V354z M316,236H196v-78h120
			V236z M316,118H196V40h120V118z M472,452c0,11.028-8.972,20-20,20h-96v-78h116V452z M472,354H356v-78h116V354z M472,236H356v-78
			h116V236z M472,118H356V40h96c11.028,0,20,8.972,20,20V118z"/>
	</g>
</g>
<g>
</g>
<g>
</g>
<g>
</g>
<g>
</g>
<g>
</g>
<g>
</g>
<g>
</g>
<g>
</g>
<g>
</g>
<g>
</g>
<g>
</g>
<g>
</g>
<g>
</g>
<g>
</g>
<g>
</g>
</svg>
