<?xml version="1.0" encoding="iso-8859-1"?>
<!-- Generator: Adobe Illustrator 19.0.0, SVG Export Plug-In . SVG Version: 6.00 Build 0)  -->
<svg version="1.1" id="Capa_1" xmlns="http://www.w3.org/2000/svg" xmlns:xlink="http://www.w3.org/1999/xlink" x="0px" y="0px"
	 viewBox="0 0 512 512" style="enable-background:new 0 0 512 512;" xml:space="preserve">
<g>
	<g>
		<rect x="162" y="236" width="350" height="40"/>
	</g>
</g>
<g>
	<g>
		<rect x="162" y="50" width="350" height="40"/>
	</g>
</g>
<g>
	<g>
		<rect x="162" y="417" width="350" height="40"/>
	</g>
</g>
<g>
	<g>
		<rect x="31" width="40" height="140"/>
	</g>
</g>
<g>
	<g>
		<path d="M63.972,287c0.489-0.558,0.979-1.119,1.469-1.682c29.271-33.63,35.27-47.636,35.27-58.318c0-27.57-22.43-50-50-50H0v40
			h50.711c4.882,0,9.082,3.715,9.868,8.413c-1.443,3.033-7.162,13.087-27.903,36.604C19.01,277.51,5.896,290.819,5.765,290.951
			L0,296.793V327h102v-40H63.972z"/>
	</g>
</g>
<g>
	<g>
		<path d="M102,362H0v40h33.863L20,415.605l0.018,21.396l10.887,5.573c12.342,6.318,25.93,16.123,29.637,21.224
			C59.667,468.396,55.52,472,50.711,472H0v40h50.711c27.57,0,50-22.43,50-50c0-14.07-9.137-27.129-28.755-41.099
			c-0.047-0.034-0.095-0.067-0.142-0.101L102,391.175V362z"/>
	</g>
</g>
<g>
</g>
<g>
</g>
<g>
</g>
<g>
</g>
<g>
</g>
<g>
</g>
<g>
</g>
<g>
</g>
<g>
</g>
<g>
</g>
<g>
</g>
<g>
</g>
<g>
</g>
<g>
</g>
<g>
</g>
</svg>
