<?xml version="1.0" encoding="iso-8859-1"?>
<!-- Generator: Adobe Illustrator 19.0.0, SVG Export Plug-In . SVG Version: 6.00 Build 0)  -->
<svg version="1.1" id="Capa_1" xmlns="http://www.w3.org/2000/svg" xmlns:xlink="http://www.w3.org/1999/xlink" x="0px" y="0px"
	 viewBox="0 0 512 512" style="enable-background:new 0 0 512 512;" xml:space="preserve">
<g>
	<g>
		<path d="M59,197c-32.533,0-59,26.467-59,59c0,32.533,26.467,59,59,59s59-26.467,59-59S91.533,197,59,197z M59,275
			c-10.477,0-19-8.523-19-19s8.523-19,19-19s19,8.523,19,19S69.477,275,59,275z"/>
	</g>
</g>
<g>
	<g>
		<path d="M59,394c-32.533,0-59,26.467-59,59c0,32.533,26.467,59,59,59s59-26.467,59-59C118,420.467,91.533,394,59,394z M59,472
			c-10.477,0-19-8.523-19-19s8.523-19,19-19s19,8.523,19,19S69.477,472,59,472z"/>
	</g>
</g>
<g>
	<g>
		<path d="M59,0C26.467,0,0,26.467,0,59s26.467,59,59,59s59-26.467,59-59S91.533,0,59,0z M59,78c-10.477,0-19-8.523-19-19
			s8.523-19,19-19s19,8.523,19,19S69.477,78,59,78z"/>
	</g>
</g>
<g>
	<g>
		<rect x="162" y="236" width="350" height="40"/>
	</g>
</g>
<g>
	<g>
		<rect x="162" y="39" width="350" height="40"/>
	</g>
</g>
<g>
	<g>
		<rect x="162" y="433" width="350" height="40"/>
	</g>
</g>
<g>
</g>
<g>
</g>
<g>
</g>
<g>
</g>
<g>
</g>
<g>
</g>
<g>
</g>
<g>
</g>
<g>
</g>
<g>
</g>
<g>
</g>
<g>
</g>
<g>
</g>
<g>
</g>
<g>
</g>
</svg>
