<?xml version="1.0" encoding="UTF-8" standalone="no"?>
<!-- Created with Inkscape (http://www.inkscape.org/) -->

<svg
   xmlns:dc="http://purl.org/dc/elements/1.1/"
   xmlns:cc="http://creativecommons.org/ns#"
   xmlns:rdf="http://www.w3.org/1999/02/22-rdf-syntax-ns#"
   xmlns:svg="http://www.w3.org/2000/svg"
   xmlns="http://www.w3.org/2000/svg"
   xmlns:sodipodi="http://sodipodi.sourceforge.net/DTD/sodipodi-0.dtd"
   xmlns:inkscape="http://www.inkscape.org/namespaces/inkscape"
   version="1.1"
   id="svg2"
   xml:space="preserve"
   width="1885.72"
   height="504.76266"
   viewBox="0 0 1885.72 504.76266"
   sodipodi:docname="Eureka_logo_blue_new_t.svg"
   inkscape:version="0.92.3 (2405546, 2018-03-11)"><metadata
     id="metadata8"><rdf:RDF><cc:Work
         rdf:about=""><dc:format>image/svg+xml</dc:format><dc:type
           rdf:resource="http://purl.org/dc/dcmitype/StillImage" /><dc:title></dc:title></cc:Work></rdf:RDF></metadata><defs
     id="defs6"><clipPath
       clipPathUnits="userSpaceOnUse"
       id="clipPath18"><path
         d="M 0,378.572 H 1414.286 V 0 H 0 Z"
         id="path16"
         inkscape:connector-curvature="0" /></clipPath><clipPath
       clipPathUnits="userSpaceOnUse"
       id="clipPath30"><path
         d="m 168.759,342.826 c -3.257,-1.894 -6.062,-4.261 -8.366,-6.976 v 0 c -12.442,-13.673 -20.069,-37.119 -34.982,-45.728 v 0 C 108.76,280.517 83.93,287.59 65.316,281.993 v 0 l -0.294,-0.085 -0.084,-0.028 -0.106,-0.031 -0.089,-0.029 -0.091,-0.026 -0.084,-0.032 c -0.012,-0.002 -0.117,-0.032 -0.117,-0.032 v 0 l -0.087,-0.032 -0.096,-0.022 -0.098,-0.029 -0.094,-0.035 -0.093,-0.037 -0.096,-0.026 -0.072,-0.023 c -0.018,-0.01 -0.118,-0.045 -0.118,-0.045 v 0 l -0.091,-0.032 -0.188,-0.069 -0.097,-0.033 c -2.356,-0.83 -4.574,-1.948 -6.638,-3.282 v 0 l -0.489,-0.321 -0.194,-0.122 -0.169,-0.13 -0.436,-0.305 -0.05,-0.035 -0.404,-0.297 c -3.148,-2.354 -5.768,-5.202 -7.795,-8.374 v 0 l -0.318,-0.507 -0.097,-0.152 -0.305,-0.515 -0.079,-0.149 -0.293,-0.525 -0.081,-0.145 -0.286,-0.539 -0.08,-0.147 -0.259,-0.531 c -1.549,-3.16 -2.591,-6.625 -3.018,-10.259 v 0 l -0.058,-0.487 -0.017,-0.282 -0.052,-0.527 c -0.235,-3.182 -0.022,-6.407 0.705,-9.575 v 0 l 0.012,-0.061 0.041,-0.164 0.039,-0.164 0.031,-0.159 c 4.401,-18.966 23.033,-36.973 23.043,-56.232 v 0 c 0,-17.189 -16.429,-35.492 -22.075,-53.068 v 0 l -0.02,-0.059 c -0.011,-0.012 -0.238,-0.691 -0.238,-0.691 v 0 c -0.007,0 -0.191,-0.576 -0.191,-0.576 v 0 l -0.06,-0.193 -0.17,-0.562 -0.054,-0.2 -0.157,-0.566 -0.066,-0.18 -0.16,-0.583 -0.097,-0.197 -0.24,-0.579 c -0.321,-1.655 -0.403,-7.886 -0.403,-7.886 v 0 c 0.06,-1.431 0.225,-2.866 0.487,-4.285 v 0 l 0.026,-0.172 c 0.101,-0.498 0.199,-0.991 0.313,-1.483 v 0 l 0.043,-0.172 0.084,-0.323 0.04,-0.171 0.039,-0.156 0.052,-0.156 0.039,-0.17 c 0.008,-0.029 0.043,-0.16 0.043,-0.16 v 0 l 0.192,-0.635 c 0,-0.01 0.049,-0.173 0.049,-0.173 v 0 l 0.184,-0.577 0.025,-0.057 0.052,-0.153 c 0.229,-0.692 0.481,-1.358 0.76,-2.024 v 0 c 0.344,-0.825 0.72,-1.618 1.116,-2.39 v 0 l 0.286,-0.525 0.081,-0.155 c 0.022,-0.039 0.385,-0.67 0.385,-0.67 v 0 l 0.292,-0.521 0.097,-0.139 0.324,-0.512 0.544,-0.823 c 0.281,-0.416 0.567,-0.819 0.865,-1.215 v 0 l 0.087,-0.112 c 0.011,-0.016 0.419,-0.537 0.419,-0.537 v 0 l 0.079,-0.104 0.345,-0.406 0.104,-0.133 0.064,-0.067 0.04,-0.053 0.219,-0.255 0.109,-0.13 0.112,-0.133 c 0.032,-0.032 0.104,-0.119 0.104,-0.119 v 0 l 0.117,-0.117 0.109,-0.123 0.118,-0.129 0.11,-0.112 c 0.011,-0.031 0.119,-0.13 0.119,-0.13 v 0 l 0.11,-0.128 0.11,-0.113 0.123,-0.124 0.096,-0.099 c 0.017,-0.014 0.145,-0.144 0.145,-0.144 v 0 l 0.11,-0.111 0.124,-0.119 0.115,-0.124 0.253,-0.225 0.115,-0.12 0.119,-0.105 0.121,-0.131 c 0.034,-0.027 0.13,-0.115 0.13,-0.115 v 0 l 0.127,-0.113 0.126,-0.111 0.515,-0.442 0.123,-0.107 0.389,-0.333 0.137,-0.108 c 0.81,-0.649 1.649,-1.271 2.512,-1.841 v 0 l 0.131,-0.095 0.14,-0.087 0.139,-0.087 0.14,-0.1 0.136,-0.082 0.137,-0.087 0.104,-0.056 0.039,-0.029 0.135,-0.084 0.144,-0.089 0.151,-0.077 0.128,-0.089 0.066,-0.03 0.076,-0.039 0.43,-0.255 0.148,-0.074 c 0.027,-0.01 0.143,-0.084 0.143,-0.084 v 0 l 0.143,-0.069 0.144,-0.088 0.142,-0.071 0.122,-0.071 c 0.028,-0.011 0.177,-0.083 0.177,-0.083 v 0 l 0.52,-0.25 0.063,-0.048 c 1.488,-0.721 3.039,-1.325 4.636,-1.81 v 0 l 0.566,-0.173 0.192,-0.054 0.572,-0.142 0.182,-0.058 0.583,-0.136 0.182,-0.048 0.597,-0.128 c 0.008,0 0.701,-0.128 0.701,-0.128 v 0 l 0.092,-0.026 c 18.038,-3.891 42.098,1.19 56.994,-7.397 v 0 c 16.626,-9.612 22.922,-34.667 37.073,-47.981 v 0 l 0.266,-0.251 0.167,-0.154 0.079,-0.075 0.057,-0.057 c 0.026,-0.025 0.118,-0.094 0.118,-0.094 v 0 l 0.086,-0.083 0.078,-0.073 0.095,-0.089 0.077,-0.07 0.086,-0.072 0.05,-0.04 0.047,-0.041 0.086,-0.075 0.082,-0.064 0.092,-0.09 0.083,-0.072 0.094,-0.084 0.179,-0.137 0.087,-0.071 0.089,-0.09 0.093,-0.071 0.087,-0.073 0.092,-0.071 0.092,-0.069 c 0.008,0 0.097,-0.067 0.097,-0.067 v 0 l 0.089,-0.071 0.093,-0.088 0.089,-0.066 0.096,-0.061 0.568,-0.424 0.083,-0.071 0.097,-0.074 0.204,-0.138 0.083,-0.058 0.101,-0.067 0.102,-0.072 0.288,-0.197 0.1,-0.077 c 1.271,-0.853 2.596,-1.621 3.978,-2.273 v 0 l 0.078,-0.052 0.647,-0.32 c 0.035,-0.011 0.489,-0.259 0.489,-0.259 v 0 l 0.286,-0.211 0.415,-0.342 h 0.044 c 3.38,-1 6.894,-1.965 10.399,-2.123 v 0 c 0.007,0 0.605,0.123 0.605,0.123 v 0 h 0.173 0.599 0.173 l 0.597,0.034 c 4.019,0.091 8.075,0.947 11.929,2.605 v 0 l 0.443,0.206 0.067,0.031 0.648,0.291 c 1.075,0.512 2.09,1.074 3.083,1.684 v 0 c 1.757,1.09 3.413,2.35 4.959,3.798 v 0 l 0.232,0.225 c 14.297,13.257 20.562,38.488 37.282,48.161 v 0 c 14.926,8.616 39.058,3.479 57.117,7.423 v 0 c 3.491,0.64 6.944,1.887 10.2,3.77 v 0 c 15.286,8.813 20.511,28.361 11.698,43.65 v 0 c -8.827,15.264 -28.36,20.502 -43.649,11.687 v 0 c -3.259,-1.883 -6.054,-4.265 -8.363,-6.978 v 0 C 258.619,130.486 250.992,107.046 236.077,98.434 v 0 c -14.15,-8.167 -34.167,-7.063 -51.343,-7.818 v 0 c -17.459,0.043 -37.194,-0.349 -51.348,7.818 v 0 c -8.767,5.047 -16.255,15.213 -16.617,25.346 v 0 c -0.359,10.156 8.242,19.896 16.617,24.722 v 0 c 16.741,9.651 41.76,2.435 60.415,8.219 v 0 c 2.016,0.594 4.006,1.404 5.926,2.435 v 0 l 0.132,0.076 0.853,0.464 c 15.277,8.817 20.513,28.361 11.687,43.634 v 0 c -8.828,15.281 -28.355,20.519 -43.64,11.701 v 0 l -0.823,-0.502 -0.132,-0.076 c -1.848,-1.157 -3.543,-2.48 -5.081,-3.924 v 0 c -14.317,-13.252 -20.589,-38.533 -37.312,-48.205 v 0 c -7.672,-4.429 -23.513,-8.512 -31.427,-2.822 v 0 c -2.225,1.598 -4.034,2.859 -5.637,5.209 v 0 c -5.159,7.562 -6.295,13.73 -6.295,22.65 v 0 c 0,16.335 11.976,31.943 20.167,47.656 v 0 c 10.266,16.24 17.033,33.106 31.167,41.264 v 0 c 14.922,8.622 39.039,3.501 57.094,7.436 v 0 c 3.506,0.647 6.968,1.881 10.232,3.767 v 0 c 15.277,8.821 20.513,28.359 11.687,43.643 v 0 c -5.923,10.249 -16.661,15.983 -27.703,15.983 v 0 c -5.417,0 -10.907,-1.38 -15.937,-4.284"
         id="path28"
         inkscape:connector-curvature="0" /></clipPath><linearGradient
       x1="0"
       y1="0"
       x2="1"
       y2="0"
       gradientUnits="userSpaceOnUse"
       gradientTransform="matrix(139.07809,80.296783,80.296783,-139.07809,70.138184,121.20215)"
       spreadMethod="pad"
       id="linearGradient40"><stop
         style="stop-opacity:1;stop-color:#2e3191"
         offset="0"
         id="stop36" /><stop
         style="stop-opacity:1;stop-color:#68c8d2"
         offset="1"
         id="stop38" /></linearGradient><clipPath
       clipPathUnits="userSpaceOnUse"
       id="clipPath50"><path
         d="M 0,378.572 H 1414.286 V 0 H 0 Z"
         id="path48"
         inkscape:connector-curvature="0" /></clipPath></defs><sodipodi:namedview
     pagecolor="#ffffff"
     bordercolor="#666666"
     borderopacity="1"
     objecttolerance="10"
     gridtolerance="10"
     guidetolerance="10"
     inkscape:pageopacity="0"
     inkscape:pageshadow="2"
     inkscape:window-width="838"
     inkscape:window-height="480"
     id="namedview4"
     showgrid="false"
     inkscape:zoom="0.2211357"
     inkscape:cx="942.85999"
     inkscape:cy="252.38133"
     inkscape:window-x="2421"
     inkscape:window-y="278"
     inkscape:window-maximized="0"
     inkscape:current-layer="g10" /><g
     id="g10"
     inkscape:groupmode="layer"
     inkscape:label="Eureka_logo_blue_new_t (1)"
     transform="matrix(1.3333333,0,0,-1.3333333,0,504.76267)"><g
       id="g12"><g
         id="g14"
         clip-path="url(#clipPath18)"><g
           id="g20"
           transform="translate(1296.3433,220.9639)"><path
             d="m 0,0 43.064,-101.392 h 23.614 l -55.959,128 H -9.993 l -55.971,-128 h 22.889 z m -223.915,-101.392 h 24 v 37.764 l 19.644,19.934 43.262,-57.698 h 27.251 l -55.416,72.897 53.059,55.103 h -27.61 l -60.19,-63.871 v 63.871 h -24 z m -136.254,109 h 21.575 49.679 v 19 h -93 v -19 z m -21.746,-109 h 94 v 21 h -73 v 35 h 65 v 19 h -42.679 -21.575 -21.746 z m -172,0 h 24 v 45 h 28.209 l 31.244,-45 h 26.536 l -33.257,48.608 c 17.639,5.08 31.268,18.058 31.268,38.958 v 0.365 c 0,11.083 -4.908,20.489 -11.635,27.386 -8.185,7.997 -21.81,12.683 -37.799,12.683 h -58.566 v -19 h 24.216 17.366 15.167 c 16.529,0 27.251,-8.712 27.251,-22.345 v -0.356 c 0,-12.909 -11.078,-21.299 -27.072,-21.299 h -15.346 -17.366 -24.216 z m -121.766,-1.097 c 33.245,0 54.766,19.063 54.766,57.051 v 72.046 h -21 V -46.53 c 0,-23.444 -12.6,-35.258 -32.406,-35.258 -19.988,0 -32.594,12.533 -32.594,36.17 v 72.226 h -23 V -46.53 c 0,-36.896 21.163,-55.959 54.234,-55.959 M -865.308,7.608 h 11.052 62.341 v 19 h -96 v -19 z m -22.607,-109 h 96 v 21 h -75 v 35 h 64 v 19 h -51.341 -11.052 -22.607 z"
             style="fill:#2e3191;fill-opacity:1;fill-rule:evenodd;stroke:none"
             id="path22"
             inkscape:connector-curvature="0" /></g></g></g><g
       id="g24"><g
         id="g26"
         clip-path="url(#clipPath30)"><g
           id="g32"><g
             id="g34"><path
               d="m 168.759,342.826 c -3.257,-1.894 -6.062,-4.261 -8.366,-6.976 v 0 c -12.442,-13.673 -20.069,-37.119 -34.982,-45.728 v 0 C 108.76,280.517 83.93,287.59 65.316,281.993 v 0 l -0.294,-0.085 -0.084,-0.028 -0.106,-0.031 -0.089,-0.029 -0.091,-0.026 -0.084,-0.032 c -0.012,-0.002 -0.117,-0.032 -0.117,-0.032 v 0 l -0.087,-0.032 -0.096,-0.022 -0.098,-0.029 -0.094,-0.035 -0.093,-0.037 -0.096,-0.026 -0.072,-0.023 c -0.018,-0.01 -0.118,-0.045 -0.118,-0.045 v 0 l -0.091,-0.032 -0.188,-0.069 -0.097,-0.033 c -2.356,-0.83 -4.574,-1.948 -6.638,-3.282 v 0 l -0.489,-0.321 -0.194,-0.122 -0.169,-0.13 -0.436,-0.305 -0.05,-0.035 -0.404,-0.297 c -3.148,-2.354 -5.768,-5.202 -7.795,-8.374 v 0 l -0.318,-0.507 -0.097,-0.152 -0.305,-0.515 -0.079,-0.149 -0.293,-0.525 -0.081,-0.145 -0.286,-0.539 -0.08,-0.147 -0.259,-0.531 c -1.549,-3.16 -2.591,-6.625 -3.018,-10.259 v 0 l -0.058,-0.487 -0.017,-0.282 -0.052,-0.527 c -0.235,-3.182 -0.022,-6.407 0.705,-9.575 v 0 l 0.012,-0.061 0.041,-0.164 0.039,-0.164 0.031,-0.159 c 4.401,-18.966 23.033,-36.973 23.043,-56.232 v 0 c 0,-17.189 -16.429,-35.492 -22.075,-53.068 v 0 l -0.02,-0.059 c -0.011,-0.012 -0.238,-0.691 -0.238,-0.691 v 0 c -0.007,0 -0.191,-0.576 -0.191,-0.576 v 0 l -0.06,-0.193 -0.17,-0.562 -0.054,-0.2 -0.157,-0.566 -0.066,-0.18 -0.16,-0.583 -0.097,-0.197 -0.24,-0.579 c -0.321,-1.655 -0.403,-7.886 -0.403,-7.886 v 0 c 0.06,-1.431 0.225,-2.866 0.487,-4.285 v 0 l 0.026,-0.172 c 0.101,-0.498 0.199,-0.991 0.313,-1.483 v 0 l 0.043,-0.172 0.084,-0.323 0.04,-0.171 0.039,-0.156 0.052,-0.156 0.039,-0.17 c 0.008,-0.029 0.043,-0.16 0.043,-0.16 v 0 l 0.192,-0.635 c 0,-0.01 0.049,-0.173 0.049,-0.173 v 0 l 0.184,-0.577 0.025,-0.057 0.052,-0.153 c 0.229,-0.692 0.481,-1.358 0.76,-2.024 v 0 c 0.344,-0.825 0.72,-1.618 1.116,-2.39 v 0 l 0.286,-0.525 0.081,-0.155 c 0.022,-0.039 0.385,-0.67 0.385,-0.67 v 0 l 0.292,-0.521 0.097,-0.139 0.324,-0.512 0.544,-0.823 c 0.281,-0.416 0.567,-0.819 0.865,-1.215 v 0 l 0.087,-0.112 c 0.011,-0.016 0.419,-0.537 0.419,-0.537 v 0 l 0.079,-0.104 0.345,-0.406 0.104,-0.133 0.064,-0.067 0.04,-0.053 0.219,-0.255 0.109,-0.13 0.112,-0.133 c 0.032,-0.032 0.104,-0.119 0.104,-0.119 v 0 l 0.117,-0.117 0.109,-0.123 0.118,-0.129 0.11,-0.112 c 0.011,-0.031 0.119,-0.13 0.119,-0.13 v 0 l 0.11,-0.128 0.11,-0.113 0.123,-0.124 0.096,-0.099 c 0.017,-0.014 0.145,-0.144 0.145,-0.144 v 0 l 0.11,-0.111 0.124,-0.119 0.115,-0.124 0.253,-0.225 0.115,-0.12 0.119,-0.105 0.121,-0.131 c 0.034,-0.027 0.13,-0.115 0.13,-0.115 v 0 l 0.127,-0.113 0.126,-0.111 0.515,-0.442 0.123,-0.107 0.389,-0.333 0.137,-0.108 c 0.81,-0.649 1.649,-1.271 2.512,-1.841 v 0 l 0.131,-0.095 0.14,-0.087 0.139,-0.087 0.14,-0.1 0.136,-0.082 0.137,-0.087 0.104,-0.056 0.039,-0.029 0.135,-0.084 0.144,-0.089 0.151,-0.077 0.128,-0.089 0.066,-0.03 0.076,-0.039 0.43,-0.255 0.148,-0.074 c 0.027,-0.01 0.143,-0.084 0.143,-0.084 v 0 l 0.143,-0.069 0.144,-0.088 0.142,-0.071 0.122,-0.071 c 0.028,-0.011 0.177,-0.083 0.177,-0.083 v 0 l 0.52,-0.25 0.063,-0.048 c 1.488,-0.721 3.039,-1.325 4.636,-1.81 v 0 l 0.566,-0.173 0.192,-0.054 0.572,-0.142 0.182,-0.058 0.583,-0.136 0.182,-0.048 0.597,-0.128 c 0.008,0 0.701,-0.128 0.701,-0.128 v 0 l 0.092,-0.026 c 18.038,-3.891 42.098,1.19 56.994,-7.397 v 0 c 16.626,-9.612 22.922,-34.667 37.073,-47.981 v 0 l 0.266,-0.251 0.167,-0.154 0.079,-0.075 0.057,-0.057 c 0.026,-0.025 0.118,-0.094 0.118,-0.094 v 0 l 0.086,-0.083 0.078,-0.073 0.095,-0.089 0.077,-0.07 0.086,-0.072 0.05,-0.04 0.047,-0.041 0.086,-0.075 0.082,-0.064 0.092,-0.09 0.083,-0.072 0.094,-0.084 0.179,-0.137 0.087,-0.071 0.089,-0.09 0.093,-0.071 0.087,-0.073 0.092,-0.071 0.092,-0.069 c 0.008,0 0.097,-0.067 0.097,-0.067 v 0 l 0.089,-0.071 0.093,-0.088 0.089,-0.066 0.096,-0.061 0.568,-0.424 0.083,-0.071 0.097,-0.074 0.204,-0.138 0.083,-0.058 0.101,-0.067 0.102,-0.072 0.288,-0.197 0.1,-0.077 c 1.271,-0.853 2.596,-1.621 3.978,-2.273 v 0 l 0.078,-0.052 0.647,-0.32 c 0.035,-0.011 0.489,-0.259 0.489,-0.259 v 0 l 0.286,-0.211 0.415,-0.342 h 0.044 c 3.38,-1 6.894,-1.965 10.399,-2.123 v 0 c 0.007,0 0.605,0.123 0.605,0.123 v 0 h 0.173 0.599 0.173 l 0.597,0.034 c 4.019,0.091 8.075,0.947 11.929,2.605 v 0 l 0.443,0.206 0.067,0.031 0.648,0.291 c 1.075,0.512 2.09,1.074 3.083,1.684 v 0 c 1.757,1.09 3.413,2.35 4.959,3.798 v 0 l 0.232,0.225 c 14.297,13.257 20.562,38.488 37.282,48.161 v 0 c 14.926,8.616 39.058,3.479 57.117,7.423 v 0 c 3.491,0.64 6.944,1.887 10.2,3.77 v 0 c 15.286,8.813 20.511,28.361 11.698,43.65 v 0 c -8.827,15.264 -28.36,20.502 -43.649,11.687 v 0 c -3.259,-1.883 -6.054,-4.265 -8.363,-6.978 v 0 C 258.619,130.486 250.992,107.046 236.077,98.434 v 0 c -14.15,-8.167 -34.167,-7.063 -51.343,-7.818 v 0 c -17.459,0.043 -37.194,-0.349 -51.348,7.818 v 0 c -8.767,5.047 -16.255,15.213 -16.617,25.346 v 0 c -0.359,10.156 8.242,19.896 16.617,24.722 v 0 c 16.741,9.651 41.76,2.435 60.415,8.219 v 0 c 2.016,0.594 4.006,1.404 5.926,2.435 v 0 l 0.132,0.076 0.853,0.464 c 15.277,8.817 20.513,28.361 11.687,43.634 v 0 c -8.828,15.281 -28.355,20.519 -43.64,11.701 v 0 l -0.823,-0.502 -0.132,-0.076 c -1.848,-1.157 -3.543,-2.48 -5.081,-3.924 v 0 c -14.317,-13.252 -20.589,-38.533 -37.312,-48.205 v 0 c -7.672,-4.429 -23.513,-8.512 -31.427,-2.822 v 0 c -2.225,1.598 -4.034,2.859 -5.637,5.209 v 0 c -5.159,7.562 -6.295,13.73 -6.295,22.65 v 0 c 0,16.335 11.976,31.943 20.167,47.656 v 0 c 10.266,16.24 17.033,33.106 31.167,41.264 v 0 c 14.922,8.622 39.039,3.501 57.094,7.436 v 0 c 3.506,0.647 6.968,1.881 10.232,3.767 v 0 c 15.277,8.821 20.513,28.359 11.687,43.643 v 0 c -5.923,10.249 -16.661,15.983 -27.703,15.983 v 0 c -5.417,0 -10.907,-1.38 -15.937,-4.284"
               style="fill:url(#linearGradient40);stroke:none"
               id="path42"
               inkscape:connector-curvature="0" /></g></g></g></g><g
       id="g44"><g
         id="g46"
         clip-path="url(#clipPath50)"><g
           id="g52"
           transform="translate(311.3789,223.5952)"><path
             d="m 0,0 c -15.282,-8.828 -34.82,-3.59 -43.647,11.684 -8.814,15.282 -3.588,34.823 11.696,43.645 15.288,8.822 34.822,3.585 43.648,-11.694 C 20.512,28.357 15.282,8.81 0,0"
             style="fill:#2e3191;fill-opacity:1;fill-rule:evenodd;stroke:none"
             id="path54"
             inkscape:connector-curvature="0" /></g></g></g></g></svg>